<svg xmlns="http://www.w3.org/2000/svg" width="94.127" height="81.691" viewBox="0 0 94.127 81.691">
  <g id="Group_14457" data-name="Group 14457" transform="translate(-105.683 -40.271)">
    <g id="Group_14454" data-name="Group 14454" transform="translate(105.683 86.978)">
      <path id="Path_13948" data-name="Path 13948" d="M105.683,599.857V598.3h1.8l-.652-1.1v-4.479h3.625q1.507,0,1.507,1.778v1.941h-1.737v-1.168q0-.977-.8-.977h-.869v2.81l.815,1.195h2.986v1.561Z" transform="translate(-105.683 -580.147)" fill="#165425"/>
      <path id="Path_13949" data-name="Path 13949" d="M197,495.28h-4.154V475.57h2.769v17.212H197Z" transform="translate(-183.491 -475.57)" fill="#165425"/>
      <path id="Path_13950" data-name="Path 13950" d="M245.152,564.4H227.506v-2.5h2.986v-8.9h2.756v8.9h2.632v-8.9h2.756v8.9h2.389v-8.9H243.8v8.9h1.357Z" transform="translate(-214.435 -544.686)" fill="#165425"/>
      <path id="Path_13951" data-name="Path 13951" d="M387.788,529.5V527h10.086v-2.918q0-1.751-1.846-1.751H389.77v-2.443l4.167-5.986h2.62l-4.479,6.678,5.511-.014q3.067,0,3.068,3.394V529.5Z" transform="translate(-357.519 -509.789)" fill="#165425"/>
      <path id="Path_13952" data-name="Path 13952" d="M567.974,526.45h-9.9v-8.457a3.956,3.956,0,0,1,.163-1.086,2.451,2.451,0,0,1,.556-.977,2.341,2.341,0,0,1,1.833-.882h5.5v8.9h1.846ZM562,513.025h-3.081v-2.538H562Zm1.344,10.954v-6.434H562.26q-1.412,0-1.412,1.574v4.86Zm2.959-10.954h-3.068v-2.538H566.3Z" transform="translate(-509.538 -506.74)" fill="#165425"/>
      <path id="Path_13953" data-name="Path 13953" d="M662.268,561.685h-15.9v-2.5H649.7v-9.23h2.783V552.4q.652-2.118,3.352-2.118h5.05v8.9h1.386Zm-4.168-2.5v-6.095h-1.819q-3.8,0-3.8,3.516v2.579Z" transform="translate(-588.357 -541.975)" fill="#165425"/>
      <path id="Path_13954" data-name="Path 13954" d="M799.321,523.953v2.5h-8.972v-2.5h4.928v-8.9h2.769v8.9Zm-4.941-10.927h-3.067v-2.538h3.067Z" transform="translate(-716.886 -506.74)" fill="#165425"/>
      <path id="Path_13955" data-name="Path 13955" d="M869.918,561.9h1.955v-8.9h6.148q2.064,0,2.063,2.213v6.054q0,.638.517.638v2.5H869.918Zm7.806,0a1.091,1.091,0,0,1-.434-.855,1.7,1.7,0,0,1,.013-.2v-4.425q0-1-1.073-1h-1.588v5.267q0,1.018.76,1.222Z" transform="translate(-787.917 -544.686)" fill="#165425"/>
      <path id="Path_13956" data-name="Path 13956" d="M114.59,733.622h3.175a2.629,2.629,0,0,1,.871.137,1.869,1.869,0,0,1,.669.4,1.758,1.758,0,0,1,.43.642,2.328,2.328,0,0,1,.152.865,2.3,2.3,0,0,1-.152.862,1.76,1.76,0,0,1-.43.641,1.869,1.869,0,0,1-.669.4,2.632,2.632,0,0,1-.871.137h-2.491v3.064h-.684Zm.684,3.5h2.34a2.166,2.166,0,0,0,.645-.091,1.351,1.351,0,0,0,.5-.274,1.245,1.245,0,0,0,.328-.457,1.615,1.615,0,0,0,.117-.64,1.636,1.636,0,0,0-.117-.643,1.226,1.226,0,0,0-.328-.457,1.384,1.384,0,0,0-.5-.271,2.18,2.18,0,0,0-.645-.091h-2.34Z" transform="translate(-113.634 -705.934)" fill="#7c0e6f"/>
      <path id="Path_13957" data-name="Path 13957" d="M180.142,733.622h.684v6.563h4v.581h-4.686Z" transform="translate(-172.153 -705.934)" fill="#7c0e6f"/>
      <path id="Path_13958" data-name="Path 13958" d="M232.592,733.622h.762l2.8,7.144h-.732l-.871-2.223H231.3l-.86,2.223h-.729Zm-1.081,4.344h2.815l-1.382-3.665Z" transform="translate(-216.405 -705.934)" fill="#7c0e6f"/>
      <path id="Path_13959" data-name="Path 13959" d="M292.542,733.622h5.663v.582h-2.491v6.563h-.68V734.2h-2.492Z" transform="translate(-272.492 -705.934)" fill="#7c0e6f"/>
      <path id="Path_13960" data-name="Path 13960" d="M358.378,733.622h4.535v.582h-3.851v2.58h3.421v.581h-3.421v3.4h-.684Z" transform="translate(-331.264 -705.934)" fill="#7c0e6f"/>
      <path id="Path_13961" data-name="Path 13961" d="M411.774,735.935a4.677,4.677,0,0,1,.21-1.4,3.529,3.529,0,0,1,.631-1.188,3.073,3.073,0,0,1,1.053-.823,3.685,3.685,0,0,1,2.948,0,3.075,3.075,0,0,1,1.051.823,3.528,3.528,0,0,1,.63,1.188,4.787,4.787,0,0,1,0,2.809,3.52,3.52,0,0,1-.63,1.188,3.068,3.068,0,0,1-1.051.823,3.682,3.682,0,0,1-2.948,0,3.065,3.065,0,0,1-1.053-.823,3.52,3.52,0,0,1-.631-1.188A4.674,4.674,0,0,1,411.774,735.935Zm.679,0a4.349,4.349,0,0,0,.154,1.148,3.022,3.022,0,0,0,.482,1.007,2.438,2.438,0,0,0,.837.716,2.564,2.564,0,0,0,1.22.271,2.536,2.536,0,0,0,1.212-.271,2.462,2.462,0,0,0,.836-.716,3.064,3.064,0,0,0,.481-1.007,4.391,4.391,0,0,0,0-2.3,3.025,3.025,0,0,0-.481-1.007,2.476,2.476,0,0,0-.836-.714,2.535,2.535,0,0,0-1.212-.271,2.564,2.564,0,0,0-1.22.271,2.451,2.451,0,0,0-.837.714,2.985,2.985,0,0,0-.482,1.007A4.37,4.37,0,0,0,412.453,735.935Z" transform="translate(-378.931 -704.674)" fill="#7c0e6f"/>
      <path id="Path_13962" data-name="Path 13962" d="M491.232,733.622H494.5a3.122,3.122,0,0,1,.838.11,2.026,2.026,0,0,1,.692.338,1.6,1.6,0,0,1,.471.579,1.865,1.865,0,0,1,.174.836,2.263,2.263,0,0,1-.088.638,1.745,1.745,0,0,1-.264.542,1.573,1.573,0,0,1-.438.408,1.684,1.684,0,0,1-.6.23v.02a1.492,1.492,0,0,1,.58.183,1.2,1.2,0,0,1,.376.35,1.441,1.441,0,0,1,.211.486,3.52,3.52,0,0,1,.085.594q.01.186.023.445t.041.523a3.513,3.513,0,0,0,.09.5.967.967,0,0,0,.174.369h-.747a.775.775,0,0,1-.1-.246,2.546,2.546,0,0,1-.054-.3c-.013-.1-.022-.2-.027-.3s-.009-.186-.012-.261q-.014-.249-.037-.5a3.774,3.774,0,0,0-.073-.486,2.2,2.2,0,0,0-.144-.434,1.106,1.106,0,0,0-.247-.348,1.063,1.063,0,0,0-.381-.222,1.553,1.553,0,0,0-.55-.068h-2.58v3.171h-.684Zm.684,3.391h2.541a1.8,1.8,0,0,0,.591-.1,1.477,1.477,0,0,0,.489-.274,1.3,1.3,0,0,0,.335-.437,1.328,1.328,0,0,0,.125-.586,1.677,1.677,0,0,0-.1-.589,1.159,1.159,0,0,0-.291-.444,1.3,1.3,0,0,0-.481-.283,2.031,2.031,0,0,0-.669-.1h-2.541Z" transform="translate(-449.863 -705.934)" fill="#7c0e6f"/>
      <path id="Path_13963" data-name="Path 13963" d="M560.063,733.622h1l2.473,6.265L566,733.622h1v7.144h-.684V734.59h-.02l-2.439,6.177h-.645l-2.448-6.177h-.02v6.177h-.684Z" transform="translate(-511.309 -705.934)" fill="#7c0e6f"/>
      <path id="Path_13964" data-name="Path 13964" d="M669.73,733.622h.684v3.841l4.153-3.841h.919l-3.19,2.952,3.342,4.193h-.88l-2.976-3.724-1.368,1.271v2.453h-.684Z" transform="translate(-609.209 -705.934)" fill="#7c0e6f"/>
      <path id="Path_13965" data-name="Path 13965" d="M736.983,733.622h4.934v.582h-4.25v2.58h3.982v.581h-3.982v2.82h4.3v.581h-4.984Z" transform="translate(-669.246 -705.934)" fill="#7c0e6f"/>
      <path id="Path_13966" data-name="Path 13966" d="M796.391,737.156a2.018,2.018,0,0,0,.169.921,1.485,1.485,0,0,0,.5.591,2.051,2.051,0,0,0,.747.315,4.306,4.306,0,0,0,.916.093,2.574,2.574,0,0,0,.4-.034,2.36,2.36,0,0,0,.828-.3,1.489,1.489,0,0,0,.34-.276,1.282,1.282,0,0,0,.234-.371,1.2,1.2,0,0,0,.087-.469.959.959,0,0,0-.137-.521,1.293,1.293,0,0,0-.352-.369,2.063,2.063,0,0,0-.474-.247,4.462,4.462,0,0,0-.508-.154l-1.588-.391a4.084,4.084,0,0,1-.609-.2,1.8,1.8,0,0,1-.513-.322,1.5,1.5,0,0,1-.357-.491,1.686,1.686,0,0,1-.135-.706,2.093,2.093,0,0,1,.042-.394,1.8,1.8,0,0,1,.149-.442,2.031,2.031,0,0,1,.286-.435,1.827,1.827,0,0,1,.453-.376,2.456,2.456,0,0,1,.651-.266,3.471,3.471,0,0,1,.882-.1,3.546,3.546,0,0,1,1.008.142,2.574,2.574,0,0,1,.843.422,2.084,2.084,0,0,1,.579.7,2.025,2.025,0,0,1,.209.963h-.679a1.641,1.641,0,0,0-.178-.718,1.563,1.563,0,0,0-.433-.513,1.886,1.886,0,0,0-.612-.308,2.529,2.529,0,0,0-.725-.1,3.043,3.043,0,0,0-.676.073,1.7,1.7,0,0,0-.571.239,1.224,1.224,0,0,0-.4.44,1.39,1.39,0,0,0-.149.669.994.994,0,0,0,.088.433.954.954,0,0,0,.235.31,1.294,1.294,0,0,0,.342.21,2.727,2.727,0,0,0,.415.137l1.745.43a5.716,5.716,0,0,1,.714.244,2.177,2.177,0,0,1,.589.359,1.6,1.6,0,0,1,.4.528,1.715,1.715,0,0,1,.149.75,2.571,2.571,0,0,1-.026.32,1.835,1.835,0,0,1-.119.426,2.079,2.079,0,0,1-.271.459,1.761,1.761,0,0,1-.482.417,2.79,2.79,0,0,1-.751.3,4.9,4.9,0,0,1-2.256-.029,2.509,2.509,0,0,1-.919-.452,1.951,1.951,0,0,1-.586-.776,2.539,2.539,0,0,1-.174-1.126Z" transform="translate(-721.67 -704.674)" fill="#7c0e6f"/>
      <path id="Path_13967" data-name="Path 13967" d="M860.177,733.622h.762l2.8,7.144h-.732l-.871-2.223h-3.253l-.86,2.223H857.3Zm-1.081,4.344h2.815l-1.382-3.665Z" transform="translate(-776.651 -705.934)" fill="#7c0e6f"/>
      <path id="Path_13968" data-name="Path 13968" d="M925.738,733.622h.762l2.8,7.144h-.732l-.871-2.223h-3.254l-.86,2.223h-.729Zm-1.08,4.344h2.815L926.09,734.3Z" transform="translate(-835.177 -705.934)" fill="#7c0e6f"/>
    </g>
    <g id="Group_14456" data-name="Group 14456" transform="translate(131.438 40.271)">
      <path id="Path_13969" data-name="Path 13969" d="M364.265,194.232l0-18.967,5.035,3.27.034,11.409Z" transform="translate(-362.271 -160.78)" fill="#7c0e6f"/>
      <path id="Path_13970" data-name="Path 13970" d="M396.442,74.74,364.26,112.763l.048-8.264L389.487,74.74Z" transform="translate(-362.271 -71.042)" fill="#7c0e6f"/>
      <path id="Path_13971" data-name="Path 13971" d="M402.565,74.74,369.4,113.961l7.055-.026L409.619,74.74Z" transform="translate(-366.859 -71.042)" fill="#7c0e6f"/>
      <path id="Path_13972" data-name="Path 13972" d="M565.175,304.383l-13.883-16.332-3.273,3.874L558.6,304.383Z" transform="translate(-526.313 -261.465)" fill="#165425"/>
      <path id="Path_13973" data-name="Path 13973" d="M522.409,344.307l-9.817-11.54-3.363,3.95,6.492,7.584Z" transform="translate(-491.684 -301.383)" fill="#165425"/>
      <path id="Path_13974" data-name="Path 13974" d="M480.47,385.1l-5.643-6.63-3.263,3.886,2.275,2.745Z" transform="translate(-458.062 -342.185)" fill="#165425"/>
      <g id="Group_14455" data-name="Group 14455" transform="translate(1.564 0)">
        <path id="Path_13975" data-name="Path 13975" d="M367.9,40.271a7.673,7.673,0,1,0,7.6,7.672A7.639,7.639,0,0,0,367.9,40.271ZM364.12,51.814a6.369,6.369,0,0,1-.785-3.352,5.507,5.507,0,0,1,3.949-5.3v-2.2l3.092,3.119L367.284,47.2V44.974a5.857,5.857,0,0,0-2.934,3.4A6.379,6.379,0,0,0,364.12,51.814Zm8.341-4.388a5.508,5.508,0,0,1-3.949,5.3v2.2l-3.092-3.119,3.092-3.119v2.225a5.858,5.858,0,0,0,2.934-3.4,6.38,6.38,0,0,0,.23-3.436A6.372,6.372,0,0,1,372.461,47.425Z" transform="translate(-360.293 -40.271)" fill="#165425"/>
      </g>
      <path id="Path_13976" data-name="Path 13976" d="M364.259,110.888a8.982,8.982,0,0,1-2.106,7.329,9.782,9.782,0,0,1-3.23,2.468,10.1,10.1,0,0,1-3.988.968,9.265,9.265,0,0,1-4.076-.748,8.421,8.421,0,0,1-3.252-2.553,9.451,9.451,0,0,1-1.726-7.464,11.9,11.9,0,0,0,3.033,6.326,7.871,7.871,0,0,0,5.95,2.267,9.458,9.458,0,0,0,6.075-2.436A10.666,10.666,0,0,0,364.259,110.888Z" transform="translate(-345.717 -103.311)" fill="#7c0e6f"/>
    </g>
  </g>
</svg>
