<svg xmlns="http://www.w3.org/2000/svg" xmlns:xlink="http://www.w3.org/1999/xlink" width="375" height="365" viewBox="0 0 375 365">
  <defs>
    <clipPath id="clip-_04-onboarding_1">
      <rect width="375" height="365"/>
    </clipPath>
  </defs>
  <g id="_04-onboarding_1" data-name="04-onboarding – 1" clip-path="url(#clip-_04-onboarding_1)">
    <rect width="375" height="365" fill="#fff"/>
    <path id="Path_13440" data-name="Path 13440" d="M892.981,80.4l-389.42,3.893V254.038c77.932,52.667,237.774,163.932,321.563,171.218,28.083,2.441,50.379-3.072,67.857-12.041Z" transform="translate(-510.832 -87.654)" fill="#83b927"/>
    <g id="Group_10891" data-name="Group 10891" transform="translate(178.15 -601.403)">
      <g id="Group_10890" data-name="Group 10890" transform="translate(-153.462 639.403)">
        <g id="Group_10888" data-name="Group 10888" transform="translate(0 84.217)">
          <g id="Group_10871" data-name="Group 10871">
            <g id="Group_10870" data-name="Group 10870" transform="translate(53.42 44.857)">
              <path id="Path_13648" data-name="Path 13648" d="M133.11,838.9,51.243,882.2-91,838.9s.948,107.47,3.161,110.946S42.076,993.78,50.611,992.2s77.125-43.62,80.286-46.78S133.11,838.9,133.11,838.9Z" transform="translate(90.995 -797.37)" fill="#ffd141"/>
              <path id="Path_13649" data-name="Path 13649" d="M133.11,831.865S21.846,789.909,15.841,790.34-89.413,829.02-91,831.865l142.238,43.3Z" transform="translate(90.995 -790.337)" fill="#ffd141"/>
              <path id="Path_13650" data-name="Path 13650" d="M133.11,831.865S21.846,789.909,15.841,790.34-89.413,829.02-91,831.865l142.238,43.3Z" transform="translate(90.995 -790.337)" fill="#f0a90f" style="mix-blend-mode: multiply;isolation: isolate"/>
            </g>
            <path id="Path_13651" data-name="Path 13651" d="M33.935,782.743s33.191-42.871,39.511-44.768,124.292,25.919,127.1,29.4-49.344,56.9-49.344,56.9S86.721,802.542,33.935,782.743Z" transform="translate(126.321 -737.883)" fill="#f0a90f"/>
            <path id="Path_13652" data-name="Path 13652" d="M6.794,783.238s-27.973-31.906-54.682-41.923c-2.529-.948-105.889,40.227-105.573,41.923s45.834,30.462,53.419,41.524C-100.042,824.763-3.637,787.864,6.794,783.238Z" transform="translate(153.462 -738.378)" fill="#f0a90f"/>
            <path id="Path_13653" data-name="Path 13653" d="M133.489,798.428c-7.617,1.1-28.477,2.374-35.6.89-4.975-1.036-19.752-7.843-28.645-11.711,1.415-5.406,7.744-10.061,6.006-11.657-2.365-2.172-13.176-14-18.141-14.423a28.507,28.507,0,0,1-2.961-.484C44.031,773.058,33.935,786.1,33.935,786.1c37.09,13.912,79.952,28.773,102.165,36.382-.976-9.787-1.669-16.774-1.669-16.774C134.29,803.4,137.212,797.889,133.489,798.428Z" transform="translate(126.321 -741.237)" fill="#f0a90f" opacity="0.3" style="mix-blend-mode: multiply;isolation: isolate"/>
          </g>
          <g id="Group_10883" data-name="Group 10883" transform="translate(74.011 15.705)">
            <g id="Group_10875" data-name="Group 10875" transform="translate(30.902)">
              <path id="Path_13654" data-name="Path 13654" d="M17.725,756.248s20.084,5.857,25.047,6.278,15.775,12.251,18.141,14.424-10.212,10-5.016,17.686,16.614.894,16.787,3.188.921,16.437,1.851,19.79S63.063,842.746,60.923,847.6c0,0-12.942-1.505-23.741-9.535,0,0-34.423,19.489-36.819,20.426s-11.82-15.38-18.777-29.574S-31.953,801.3-30.6,799.683,9.162,780.905,9.162,780.905,9.579,763.1,17.725,756.248Z" transform="translate(30.781 -756.248)" fill="#84e2d5"/>
              <g id="Group_10872" data-name="Group 10872" transform="translate(12.218 1.089)">
                <path id="Path_13655" data-name="Path 13655" d="M83.727,825.827c1.562-3.511,2.549-6.308,2.263-7.343a23.238,23.238,0,0,1-.509-2.929c-.793-.853-1.571-1.72-2.361-2.542A165.647,165.647,0,0,1,70.259,798.49c-.141-.185-.277-.373-.416-.558a8.243,8.243,0,0,1-2.492-2.426,7.135,7.135,0,0,1-1.2-3.1,89.428,89.428,0,0,1-7.088-15.131,51.023,51.023,0,0,1-3.4-13.515,5.4,5.4,0,0,0-1.432-.364,49.354,49.354,0,0,1-5.918-1.137C52.8,786.348,64.736,810.344,83.727,825.827Z" transform="translate(7.109 -758.208)" fill="#24a08b"/>
                <path id="Path_13656" data-name="Path 13656" d="M63.415,831.121a95.392,95.392,0,0,0,10.377,8.227c1.183-2.27,2.471-4.75,3.7-7.2-2.1-1.7-4.184-3.41-6.218-5.143a106.628,106.628,0,0,1-22.3-28.059,98.347,98.347,0,0,1-10-23.134,83.55,83.55,0,0,1-2.713-16.585c-2.288-.618-4.437-1.218-6.153-1.7a41.957,41.957,0,0,0-1.655,12.9c.369,7.562,2.723,15.089,5.832,21.977A117.662,117.662,0,0,0,63.415,831.121Z" transform="translate(9.99 -757.522)" fill="#24a08b"/>
                <path id="Path_13657" data-name="Path 13657" d="M25.776,847.443c-7.805-9.66-14.1-20.326-19.8-31.415C2.2,808.643-1.376,801.115-4.538,793.422c-3.982,1.817-8.191,3.758-11.956,5.528q3.765,9.168,8.143,18.09a270.818,270.818,0,0,0,23.74,39.82c4.053-2.257,8.48-4.74,12.41-6.951C27.115,849.1,26.438,848.276,25.776,847.443Z" transform="translate(16.494 -762.721)" fill="#24a08b"/>
                <path id="Path_13658" data-name="Path 13658" d="M14.974,782.846c-.092,1.193-.109,1.911-.109,1.911s-2.512,1.124-6.274,2.819a198.524,198.524,0,0,0,11.994,28.615A170.236,170.236,0,0,0,38.57,844.356l4.314-2.438a47.506,47.506,0,0,0,8.624,5.04,167.872,167.872,0,0,1-21.7-30.747C23.87,805.668,18.094,794.68,14.974,782.846Z" transform="translate(12.861 -761.19)" fill="#24a08b"/>
              </g>
              <g id="Group_10873" data-name="Group 10873" transform="translate(39.817 11.915)">
                <path id="Path_13659" data-name="Path 13659" d="M45.2,770.2c-9.79,3.956-19.779,7.591-29.271,12.238a.266.266,0,0,0,.234.478c9.492-4.645,19.48-8.281,29.273-12.236.318-.129.08-.607-.237-.481Z" transform="translate(-15.779 -770.181)" fill="#24a08b"/>
              </g>
              <g id="Group_10874" data-name="Group 10874" transform="translate(67.84 64.393)">
                <path id="Path_13660" data-name="Path 13660" d="M78.4,831.581c-4.986,2.762-10.005,5.461-14.892,8.4q-3.749,2.249-7.387,4.66a64.63,64.63,0,0,1-7.431,4.113.267.267,0,0,0,.235.48,64.029,64.029,0,0,0,7-3.835c2.437-1.6,4.882-3.159,7.372-4.674,5.015-3.053,10.2-5.818,15.333-8.661.3-.167.066-.647-.235-.479Z" transform="translate(-48.548 -831.546)" fill="#24a08b"/>
              </g>
              <path id="Path_13661" data-name="Path 13661" d="M-18.414,833.259C-11.458,847.452-2.033,863.77.363,862.833s36.819-20.426,36.819-20.426c10.8,8.03,23.741,9.535,23.741,9.535,2.14-4.855,14.54-26.636,13.612-29.987s-1.678-17.5-1.851-19.79-11.594,4.5-16.787-3.188c-2.148-3.177-1.256-6.378.36-9.194-4.877-2.144-8.547-3.7-8.985-3.55-3.512,1.22-2.566,4.336-3.541,6.427,0,0-2.621,5.117-6.442,12.571-3.924-4.983-7.471-9-9.037-9.3-3.866-.725-18.6-7.006-21.019-7.973s-1.209,14.014-11.6,15.462c-5.342.746-8.383-3.3-10.537-7.227-8.043,3.735-15.136,7.15-15.7,7.826C-31.953,805.64-25.371,819.067-18.414,833.259Z" transform="translate(30.781 -760.589)" fill="#1b899a" opacity="0.4" style="mix-blend-mode: multiply;isolation: isolate"/>
            </g>
            <g id="Group_10877" data-name="Group 10877" transform="translate(69.831 29.68)">
              <path id="Path_13662" data-name="Path 13662" d="M125.745,804.453c3.723-.538.8,4.973.942,7.278,0,0,5.4,54.312,7.236,72.2,0,0,1.744,6.891-.068,8.021s-56.232.194-57.231-.665.59-9.261.59-9.261l.8-20.332L71.33,880.912s-1.591,8.4-2.837,8.835-52.235-18.6-53.51-20.314,2.873-7.489,2.873-7.489c8.252-15.977,33.135-64.551,33.135-64.551.976-2.093.029-5.207,3.541-6.428,1.243-.432,28.487,12.9,35.612,14.378S118.128,805.555,125.745,804.453Z" transform="translate(-14.741 -790.955)" fill="#1f9999"/>
              <g id="Group_10876" data-name="Group 10876" transform="translate(3.317 5.823)">
                <path id="Path_13663" data-name="Path 13663" d="M92.073,849.111c4.969-1.09,7.728-4.174,8.934-8.712.961-3.618,1.778-7.268,2.756-10.881s2.268-7.13,3.227-10.749v-.01a73.79,73.79,0,0,0,8.9,1.029,80.661,80.661,0,0,0,8.1-.234c2.986,7.447,7.636,14.214,14.717,18.915.394.261.876-.251.479-.514-6.932-4.6-11.482-11.176-14.43-18.452.429-.028.863-.058,1.293-.088,3.376-.225,6.727-.41,10.062-.952.464-.075.4-.767-.07-.688a104.9,104.9,0,0,1-11.626,1.151.421.421,0,0,0-.356.015c-2.073.1-4.146.154-6.194.177a62.657,62.657,0,0,1-10.6-1.009c-2.507-.4-5.832-.4-8.106-1.563l-.006,0a39.6,39.6,0,0,1,2.326-7.026c.189-.4-.484-.719-.672-.314-1.612,3.482-2.4,7.381-3.3,11.073-1.459,5.947-2.734,11.937-3.98,17.931-1.172,5.655-2.3,11.321-3.405,16.991-.544,2.79-.965,5.637-1.662,8.4-.109.429.626.566.734.139.672-2.668,1.081-5.422,1.611-8.118Q91.427,852.359,92.073,849.111ZM98,821.377c.327-1.364.641-2.76.978-4.154,2,.966,4.536.991,6.7,1.329l.577.091c-1.642,6.18-3.624,12.235-5.163,18.447-.669,2.707-1.213,5.527-2.943,7.826a10.113,10.113,0,0,1-5.929,3.445q.924-4.636,1.875-9.267C95.319,833.172,96.583,827.256,98,821.377Z" transform="translate(-28.731 -799.394)" fill="#2eceb7"/>
                <path id="Path_13664" data-name="Path 13664" d="M45.262,818.771c10.382,1.016,18.6-5.407,24.447-12.491,1.03.492,2.07.974,3.134,1.414,6.085,2.511,12.539,4.065,18.625,6.563.442.18.762-.434.318-.617-6.083-2.5-12.519-4.1-18.624-6.562-6.2-2.5-11.71-6.187-17.586-9.266a.347.347,0,1,0-.317.616c4.648,2.435,9.071,5.2,13.773,7.52-5.66,6.821-13.606,13.129-23.64,12.148C44.916,818.05,44.783,818.725,45.262,818.771Z" transform="translate(-22.435 -797.765)" fill="#2eceb7"/>
                <path id="Path_13665" data-name="Path 13665" d="M71.729,891.286C53.847,886.2,34.9,883,19.249,872.692c-.4-.262-.877.252-.483.511C34.541,883.6,53.575,886.838,71.6,891.961,72.065,892.095,72.19,891.417,71.729,891.286Z" transform="translate(-18.619 -808.606)" fill="#2eceb7"/>
                <path id="Path_13666" data-name="Path 13666" d="M143.179,897.533c-4.376.619-8.966.487-13.4.67-4.859.2-9.716.418-14.579.593-8.931.32-18,.948-26.776-1.468-.464-.129-.588.549-.128.674,8.376,2.311,17.181,1.94,25.722,1.54,4.787-.22,9.578-.387,14.367-.588,4.913-.208,10.012-.044,14.861-.728A.348.348,0,1,0,143.179,897.533Z" transform="translate(-28.669 -812.182)" fill="#2eceb7"/>
              </g>
              <path id="Path_13667" data-name="Path 13667" d="M109.719,814.862a2.819,2.819,0,1,1-2.291-2.845A2.6,2.6,0,0,1,109.719,814.862Z" transform="translate(-27.699 -793.997)" fill="#2eceb7"/>
              <path id="Path_13668" data-name="Path 13668" d="M63.479,836.057c-2.828-3.358-12.114-16.79-18.414-24.05-7.891,15.394-21.513,41.957-27.209,52.986,0,0-4.145,5.778-2.873,7.489.667.9,14.966,6.545,28.617,11.659-.708-13.306-1.626-28.718-1.626-28.718C55.506,848.452,63.479,836.057,63.479,836.057Z" transform="translate(-14.741 -794.004)" fill="#1b899a" opacity="0.4" style="mix-blend-mode: multiply;isolation: isolate"/>
              <path id="Path_13669" data-name="Path 13669" d="M73.9,902.094c1.246-.435,2.837-8.835,2.837-8.835l5.935-17.054A332.461,332.461,0,0,0,52.1,894.59C63.333,898.761,73.361,902.283,73.9,902.094Z" transform="translate(-20.151 -803.302)" fill="#1b899a" opacity="0.4" style="mix-blend-mode: multiply;isolation: isolate"/>
              <path id="Path_13670" data-name="Path 13670" d="M139.745,846.157c-17.167,8.32-34.557,16.333-51.373,25.329L87.64,890.02s-1.591,8.4-.59,9.261,55.421,1.8,57.231.665.068-8.021.068-8.021C143.371,882.418,141.388,862.62,139.745,846.157Z" transform="translate(-25.165 -798.95)" fill="#1b899a" opacity="0.4" style="mix-blend-mode: multiply;isolation: isolate"/>
            </g>
            <g id="Group_10882" data-name="Group 10882" transform="translate(0 31.375)">
              <path id="Path_13671" data-name="Path 13671" d="M-66.917,828.1s15.946-17.482,18.845-22.314,20.295-9.921,23.678-11.241,5.075,15.349,15.464,13.9,9.18-16.428,11.6-15.462,17.152,7.248,21.019,7.974S43.5,825.116,47.364,829.707c0,0-7.973,12.395-21.5,19.364,0,0,2.657,44.662,2.416,47.561s-21.5,4.349-39.382,4.349-34.791,0-35.758-2.174.725-49.736.725-49.736S-64.017,839.784-66.917,828.1Z" transform="translate(66.917 -792.937)" fill="#fff"/>
              <g id="Group_10878" data-name="Group 10878" transform="translate(20.297 19.766)">
                <path id="Path_13672" data-name="Path 13672" d="M-41.037,816.341c-.857,11.912-2.139,23.866-2.145,35.82a.3.3,0,0,0,.6,0c.007-11.954,1.289-23.908,2.145-35.82.027-.389-.575-.386-.6,0Z" transform="translate(43.182 -816.05)" fill="#72cace"/>
              </g>
              <g id="Group_10879" data-name="Group 10879" transform="translate(89.918 16.991)">
                <path id="Path_13673" data-name="Path 13673" d="M38.23,813.1c.325,6.436.568,12.879,1.114,19.3.278,3.286.628,6.553,1.054,9.822a73.269,73.269,0,0,1,.481,9.595.3.3,0,0,0,.6,0,72.233,72.233,0,0,0-.407-9.023c-.408-3.272-.778-6.531-1.078-9.814-.6-6.614-.83-13.253-1.164-19.883-.019-.387-.623-.389-.6,0Z" transform="translate(-38.229 -812.805)" fill="#72cace"/>
              </g>
              <g id="Group_10880" data-name="Group 10880" transform="translate(66.332 35.782)">
                <path id="Path_13674" data-name="Path 13674" d="M10.649,835.071c.138,3.236-.12,6.547.242,9.763.123,1.083.314,2.158.513,3.227.068.362.063,1.187.343,1.474.978,1,1.989,1.97,3.017,2.918.86.8,1.746,1.566,2.669,2.289.414.326,1.282,1.189,1.842,1.189s1.374-.829,1.783-1.141c.858-.656,1.667-1.373,2.467-2.1q1.688-1.524,3.278-3.158c.237-.24.232-.888.291-1.189.2-1.046.387-2.1.522-3.154.42-3.333.144-6.765.286-10.122.016-.389-.588-.388-.6,0-.128,3.018.059,6.074-.173,9.082a39.231,39.231,0,0,1-.822,5.065c.037-.174-.421.39-.574.542-.611.609-1.233,1.2-1.86,1.8a27.764,27.764,0,0,1-4.544,3.7c-.6.363-3.888-3-4.394-3.466q-1.407-1.3-2.747-2.667c.158.162.015-.119-.012-.254-.066-.322-.127-.644-.189-.966-.216-1.132-.4-2.27-.53-3.415-.348-3.093-.071-6.3-.2-9.416-.018-.388-.62-.389-.6,0Z" transform="translate(-10.649 -834.779)" fill="#72cace"/>
              </g>
              <path id="Path_13675" data-name="Path 13675" d="M-3.477,815.262c7.569.127,13.75-6.179,16.019-12.99a33.709,33.709,0,0,0,1.335-7.406c-2.169-.895-3.873-1.607-4.565-1.885C6.9,792.016,8.1,807-2.285,808.444s-12.081-15.219-15.464-13.9c-.648.252-1.814.644-3.29,1.145C-17.933,803.849-13.67,815.142-3.477,815.262Z" transform="translate(60.272 -792.937)" fill="#72cace"/>
              <g id="Group_10881" data-name="Group 10881" transform="translate(10.003 5.248)">
                <path id="Path_13676" data-name="Path 13676" d="M-33.842,835.783a3.533,3.533,0,0,0-3.533,3.533,3.532,3.532,0,0,0,3.533,3.531,3.53,3.53,0,0,0,3.531-3.531A3.532,3.532,0,0,0-33.842,835.783Z" transform="translate(52.636 -804.39)" fill="#72cace"/>
                <path id="Path_13677" data-name="Path 13677" d="M-23,862.688a3.531,3.531,0,0,0-3.531,3.531A3.531,3.531,0,0,0-23,869.749a3.531,3.531,0,0,0,3.532-3.53A3.531,3.531,0,0,0-23,862.688Z" transform="translate(51.065 -808.286)" fill="#72cace"/>
                <path id="Path_13678" data-name="Path 13678" d="M-38.324,883.93a3.531,3.531,0,0,0-3.533-3.532,3.518,3.518,0,0,0-1.483.329c-.056,2.071-.113,4.2-.163,6.324a3.508,3.508,0,0,0,1.646.409A3.53,3.53,0,0,0-38.324,883.93Z" transform="translate(53.523 -810.851)" fill="#72cace"/>
                <path id="Path_13679" data-name="Path 13679" d="M-13.561,893.82a3.53,3.53,0,0,0-3.533,3.53,3.533,3.533,0,0,0,3.533,3.533,3.534,3.534,0,0,0,3.532-3.533A3.531,3.531,0,0,0-13.561,893.82Z" transform="translate(49.698 -812.795)" fill="#72cace"/>
                <path id="Path_13680" data-name="Path 13680" d="M-39.3,912.844a3.533,3.533,0,0,0-3.532,3.531c0,.1.007.193.016.288,1.046.552,3.421.924,6.729,1.174a3.521,3.521,0,0,0,.318-1.462A3.533,3.533,0,0,0-39.3,912.844Z" transform="translate(53.426 -815.55)" fill="#72cace"/>
                <path id="Path_13681" data-name="Path 13681" d="M8.447,874.057a3.531,3.531,0,1,0,3.533,3.532A3.532,3.532,0,0,0,8.447,874.057Z" transform="translate(46.511 -809.933)" fill="#72cace"/>
                <path id="Path_13682" data-name="Path 13682" d="M21.4,897.065a3.531,3.531,0,1,0,3.533,3.531A3.533,3.533,0,0,0,21.4,897.065Z" transform="translate(44.634 -813.265)" fill="#72cace"/>
                <path id="Path_13683" data-name="Path 13683" d="M43.092,913.6a3.528,3.528,0,0,0,.181,1.11c.576-.3.909-.624.936-.967s.015-1.3-.029-2.69A3.518,3.518,0,0,0,43.092,913.6Z" transform="translate(40.981 -815.29)" fill="#72cace"/>
                <path id="Path_13684" data-name="Path 13684" d="M2.294,916.973a3.526,3.526,0,0,0-3.163,1.97c2.07,0,4.179-.026,6.293-.068A3.532,3.532,0,0,0,2.294,916.973Z" transform="translate(47.348 -816.148)" fill="#72cace"/>
                <path id="Path_13685" data-name="Path 13685" d="M41.937,882.234a3.53,3.53,0,1,0,.268,4.886C42.118,885.489,42.027,883.85,41.937,882.234Z" transform="translate(42.008 -810.98)" fill="#72cace"/>
                <path id="Path_13686" data-name="Path 13686" d="M-51.688,819.046a3.531,3.531,0,0,0-3.532,3.532,3.531,3.531,0,0,0,3.532,3.531,3.531,3.531,0,0,0,3.531-3.531A3.532,3.532,0,0,0-51.688,819.046Z" transform="translate(55.22 -801.966)" fill="#72cace"/>
                <path id="Path_13687" data-name="Path 13687" d="M-24.559,811.662a3.531,3.531,0,0,0-3.532-3.533,3.532,3.532,0,0,0-3.531,3.533,3.532,3.532,0,0,0,3.531,3.532A3.532,3.532,0,0,0-24.559,811.662Z" transform="translate(51.802 -800.385)" fill="#72cace"/>
                <path id="Path_13688" data-name="Path 13688" d="M-.7,827.434A3.532,3.532,0,0,0,2.835,823.9,3.532,3.532,0,0,0-.7,820.37,3.532,3.532,0,0,0-4.228,823.9,3.532,3.532,0,0,0-.7,827.434Z" transform="translate(47.835 -802.157)" fill="#72cace"/>
                <path id="Path_13689" data-name="Path 13689" d="M35.429,801.458c0-.059-.005-.115-.008-.174-1.651-.523-3.826-1.322-6.124-2.211a3.53,3.53,0,1,0,6.132,2.385Z" transform="translate(43.114 -799.073)" fill="#72cace"/>
                <path id="Path_13690" data-name="Path 13690" d="M-5.351,846.255a3.531,3.531,0,0,0-3.532,3.532,3.531,3.531,0,0,0,3.532,3.532,3.53,3.53,0,0,0,3.53-3.532A3.53,3.53,0,0,0-5.351,846.255Z" transform="translate(48.509 -805.906)" fill="#72cace"/>
                <path id="Path_13691" data-name="Path 13691" d="M27.768,823.176a3.532,3.532,0,1,0,3.533,3.531A3.53,3.53,0,0,0,27.768,823.176Z" transform="translate(43.712 -802.564)" fill="#72cace"/>
                <path id="Path_13692" data-name="Path 13692" d="M40.483,854.8a3.532,3.532,0,1,0-3.532,3.53A3.531,3.531,0,0,0,40.483,854.8Z" transform="translate(42.382 -806.633)" fill="#72cace"/>
                <path id="Path_13693" data-name="Path 13693" d="M58.22,825.012a3.53,3.53,0,1,0,4.151,5.633C61.171,829.029,59.752,827.092,58.22,825.012Z" transform="translate(39.056 -802.83)" fill="#72cace"/>
              </g>
              <path id="Path_13694" data-name="Path 13694" d="M-28.111,834.537c-3.012.188-6.213.942-9.226.564-2.824-.187-5.083-1.694-7.531-3.012-6.045-3.167-11.76-4.345-17.9-3.467-2.418,2.709-4.148,4.606-4.148,4.606,2.9,11.683,20.779,20.97,20.779,20.97s-1.691,47.561-.725,49.736,17.88,2.174,35.758,2.174,39.141-1.449,39.382-4.349c.18-2.155-1.243-27.377-1.984-40.189-4.06-2.22-8.108-4.461-12.043-6.889C1.259,846.774-11.919,833.783-28.111,834.537Z" transform="translate(66.917 -798.064)" fill="#84e2d5" opacity="0.2"/>
            </g>
          </g>
          <g id="Group_10885" data-name="Group 10885" transform="translate(5.677 86.385)">
            <path id="Path_13695" data-name="Path 13695" d="M51.243,882.2C49,882.372,5.1,868.642-33.2,856.493L-91,838.9s.948,107.47,3.161,110.946S42.076,993.78,50.611,992.2s77.125-43.62,80.286-46.78c2.3-2.294,2.424-57.407,2.323-87.431Z" transform="translate(138.737 -838.898)" fill="#ffd141"/>
            <path id="Path_13696" data-name="Path 13696" d="M75.225,882.2l-.632,110c8.535-1.579,77.125-43.62,80.286-46.78S157.092,838.9,157.092,838.9Z" transform="translate(114.755 -838.898)" fill="#f0a90f" opacity="0.5"/>
            <path id="Path_13697" data-name="Path 13697" d="M133.11,838.9,51.243,882.2-91,838.9s.314,35.67,1,66.574c27.715,12.506,103.063,45.88,111.116,42.791,9.889-3.793,30.118-49.941,30.118-49.941s40.46,41.724,45.2,42.039c3.1.206,22.813-7.1,36.106-12.193C133.651,897.978,133.11,838.9,133.11,838.9Z" transform="translate(138.737 -838.898)" fill="#f0a90f" style="mix-blend-mode: multiply;isolation: isolate"/>
            <path id="Path_13698" data-name="Path 13698" d="M75.332,882.2s42.04,54.05,45.516,54.367,53.12-24.813,85.659-63.85c1.581-1.9-49.308-33.82-49.308-33.82S98.723,865.448,75.332,882.2Z" transform="translate(114.648 -838.898)" fill="#ffd141"/>
            <path id="Path_13699" data-name="Path 13699" d="M-99.081,838.9s-48.677,36.981-47.729,38.561S3.014,937.838,7.756,936.57s35.4-54.37,35.4-54.37S-55.776,845.219-99.081,838.9Z" transform="translate(146.823 -838.898)" fill="#ffd141"/>
            <g id="Group_10884" data-name="Group 10884" transform="translate(77.371 15.805)">
              <path id="Path_13700" data-name="Path 13700" d="M-2.134,864.433c-7.151-2.362-14.558-4.749-21.973-7.053a151.16,151.16,0,0,0-14.147,19.394c-7.073,10.979-12.783,22.667-18.1,34.568,7.514,2.917,15.028,5.813,22.258,8.572,6-12.023,11.653-24.26,17.3-36.362C-15.35,880.409-8.627,869.631-2.134,864.433Z" transform="translate(56.349 -857.38)" fill="#f0a90f" opacity="0.5"/>
            </g>
          </g>
          <g id="Group_10887" data-name="Group 10887" transform="translate(37.079 80.294)">
            <g id="Group_10886" data-name="Group 10886" transform="translate(0 67.513)">
              <path id="Path_13701" data-name="Path 13701" d="M-39.353,930.625c.58-2.058,3.9-1.551,3.315.534-1.674,5.952-3.015,11.944-6.432,17.187-1.181,1.814-3.765-.336-2.6-2.135C-42,941.506-40.85,935.954-39.353,930.625Z" transform="translate(100.727 -913.415)" fill="#27ad97"/>
              <path id="Path_13702" data-name="Path 13702" d="M-46.33,930.646c.748-2.031,3.8-.628,3.052,1.395-1.751,4.748-3.3,9.618-6.693,13.5-1.42,1.623-4.019-.5-2.591-2.139C-49.365,939.755-47.975,935.107-46.33,930.646Z" transform="translate(101.829 -913.464)" fill="#27ad97"/>
              <path id="Path_13703" data-name="Path 13703" d="M-55.125,929.137c.376-2.131,3.688-1.6,3.312.534-.882,5.007-2.711,10.2-6.148,14.035-1.441,1.605-4.043-.518-2.6-2.138C-57.5,938.17-55.906,933.582-55.125,929.137Z" transform="translate(102.989 -913.193)" fill="#27ad97"/>
              <path id="Path_13704" data-name="Path 13704" d="M-59.875,926.206c-1.3,4.566-3.786,8.736-4.682,13.415-.407,2.123-3.723,1.595-3.312-.534.9-4.713,3.373-8.833,4.681-13.416C-62.605,923.614-59.286,924.125-59.875,926.206Z" transform="translate(103.991 -912.697)" fill="#27ad97"/>
              <path id="Path_13705" data-name="Path 13705" d="M-67.356,926.8a124.5,124.5,0,0,0-5.355,11.93c-.7,2.043-3.751.635-3.05-1.394A122.65,122.65,0,0,1-70.4,925.4,1.677,1.677,0,0,1-67.356,926.8Z" transform="translate(105.144 -912.711)" fill="#27ad97"/>
              <path id="Path_13706" data-name="Path 13706" d="M-74.007,921.7c-1.686,4.551-4.2,8.77-5.1,13.583-.4,2.124-3.714,1.6-3.312-.534.959-5.128,3.567-9.6,5.362-14.444C-76.3,918.276-73.256,919.678-74.007,921.7Z" transform="translate(106.098 -911.966)" fill="#27ad97"/>
              <path id="Path_13707" data-name="Path 13707" d="M-82.1,922.4c-2.229,3.447-4.62,6.954-5.217,11.1-.31,2.141-3.625,1.606-3.314-.534.687-4.76,3.381-8.753,5.933-12.7C-83.522,918.455-80.938,920.6-82.1,922.4Z" transform="translate(107.286 -912.005)" fill="#27ad97"/>
              <path id="Path_13708" data-name="Path 13708" d="M-89.983,919.414a56.635,56.635,0,0,0-5.335,12.17c-.582,2.058-3.9,1.55-3.315-.534a60.23,60.23,0,0,1,5.6-13.031C-91.987,916.143-88.926,917.518-89.983,919.414Z" transform="translate(108.452 -911.649)" fill="#27ad97"/>
              <path id="Path_13709" data-name="Path 13709" d="M-95.894,914.456c-2.217,3.768-4.678,7.563-5.517,11.914-.41,2.122-3.724,1.591-3.312-.535.9-4.684,3.39-8.72,5.779-12.773C-97.858,911.216-94.79,912.587-95.894,914.456Z" transform="translate(109.329 -910.934)" fill="#27ad97"/>
              <path id="Path_13710" data-name="Path 13710" d="M-104.77,911.575c1.119-1.814,4.188-.442,3.05,1.4-2.278,3.692-4.254,7.454-5.037,11.765-.39,2.128-3.7,1.6-3.315-.535A36.379,36.379,0,0,1-104.77,911.575Z" transform="translate(110.103 -910.722)" fill="#27ad97"/>
            </g>
            <path id="Path_13711" data-name="Path 13711" d="M-8.126,861.162s-8.851-14.586-18.581-16.615-23.153-.995-25.171-4.062-18.254-14.691-29.424-4.8-27.7,64.151-25.235,67.286,16.269,11.081,30.864,14.123,33.19,12.44,34.473,1.677,22.675-59.421,22.675-59.421S-11.031,860.726-8.126,861.162Z" transform="translate(109.622 -831.775)" fill="#80e1d3"/>
            <path id="Path_13712" data-name="Path 13712" d="M-62.9,855.891c-6.573-1.747-3.786-7.7-3.214-12.636.374-4.125-1.079-7.726-3.334-10.978,10.137-2.535,21.328,5.694,22.98,8.211,1.1,1.681,5.668,2.125,11.131,2.524a41.091,41.091,0,0,0-7.979,4.835C-48.526,851.809-55.622,857.52-62.9,855.891Z" transform="translate(104.215 -831.778)" fill="#27ad97" opacity="0.4"/>
            <path id="Path_13713" data-name="Path 13713" d="M-28.923,890.858c2.141-9.026,4.134-18.535,8.021-27.049,2.2-5.129,5.846-10.717,12.2-9a18.485,18.485,0,0,1,5.874,2.957,59.707,59.707,0,0,1,4.917,6.691c-2.906-.436-10.4-1.807-10.4-1.807s-21.4,48.658-22.675,59.421c-.386,3.234-2.355,4.628-5.292,4.937.488-3.382.946-6.784,1.556-10.112C-33.1,908.238-30.769,899.472-28.923,890.858Z" transform="translate(99.411 -835.065)" fill="#27ad97" opacity="0.4"/>
          </g>
        </g>
        <g id="Group_10889" data-name="Group 10889" transform="translate(115.876)">
          <path id="Path_13714" data-name="Path 13714" d="M29.652,716.208c-29.954-19.7-62.137-54.29-40.591-71.585s40.591,13.932,40.591,13.932S48.7,627.327,70.244,644.623,59.607,696.51,29.652,716.208Z" transform="translate(17.961 -639.403)" fill="#e6605d"/>
          <path id="Path_13715" data-name="Path 13715" d="M78.307,644.623c-21.546-17.3-40.591,13.932-40.591,13.932v57.652C67.671,696.51,99.854,661.918,78.307,644.623Z" transform="translate(9.897 -639.403)" fill="#e6605d" opacity="0.3" style="mix-blend-mode: multiply;isolation: isolate"/>
        </g>
      </g>
    </g>
  </g>
</svg>
