<svg xmlns="http://www.w3.org/2000/svg" xmlns:xlink="http://www.w3.org/1999/xlink" width="375" height="365" viewBox="0 0 375 365">
  <defs>
    <clipPath id="clip-_02-onboarding_1">
      <rect width="375" height="365"/>
    </clipPath>
  </defs>
  <g id="_02-onboarding_1" data-name="02-onboarding – 1" clip-path="url(#clip-_02-onboarding_1)">
    <rect width="375" height="365" fill="#fff"/>
    <g id="Group_10849" data-name="Group 10849" transform="translate(19.452 -20.204)">
      <path id="Path_13436" data-name="Path 13436" d="M-28.461,17.549V304.856c17.718,9.092,40.32,14.681,68.789,12.206,85.027-7.395,250.136-139.006,326.22-173.683V17.549Z" transform="translate(0 0)" fill="#83b927"/>
    </g>
    <g id="Group_10848" data-name="Group 10848" transform="translate(-302.232 -4.586)">
      <g id="Group_10835" data-name="Group 10835" transform="translate(622.01 125.913)">
        <path id="Path_13365" data-name="Path 13365" d="M600.2,193.025s17.773-23.574,26.479-34.765,20.914-26.989,24.5-26.989,11.49,0,9.335,9.335-6.463,17.951-6.463,24.414-40.931,59.6-40.931,59.6Z" transform="translate(-595.945 -122.544)" fill="#b57753"/>
        <path id="Path_13366" data-name="Path 13366" d="M596.249,202.49s14.95-20.765,30.731-43.606a149.053,149.053,0,0,1,34.886-35.715" transform="translate(-596.249 -123.169)" fill="#fff" stroke="#333" stroke-linecap="round" stroke-linejoin="round" stroke-width="1"/>
      </g>
      <path id="Path_13367" data-name="Path 13367" d="M496.843,138.734s-86.17,25.134-96.223,25.851-5.745,16.517,1.436,18.671,135.718-20.107,147.925-24.415,1.437-17.952-10.053-20.824S496.843,138.734,496.843,138.734Z" transform="translate(10.217 3.803)" fill="#333" stroke="#333" stroke-linecap="round" stroke-linejoin="round" stroke-width="1"/>
      <g id="Group_10836" data-name="Group 10836" transform="translate(469.327 93.893)">
        <path id="Path_13368" data-name="Path 13368" d="M592.455,140.656s11.8-9.442,12.393-20.066-14.164-14.754-24.2-15.344-25.967,3.541-50.165-1.181-41.9-15.935-61.968-7.672-16.524,34.82-2.36,37.77,15.345,2.951,45.443,3.542S575.93,148.328,592.455,140.656Z" transform="translate(-454.498 -93.441)" fill="#64a486"/>
        <path id="Path_13369" data-name="Path 13369" d="M592.455,140.656s11.8-9.442,12.393-20.066-14.164-14.754-24.2-15.344-25.967,3.541-50.165-1.181-41.9-15.935-61.968-7.672-16.524,34.82-2.36,37.77,15.345,2.951,45.443,3.542S575.93,148.328,592.455,140.656Z" transform="translate(-454.498 -93.441)" fill="none" stroke="#333" stroke-linecap="round" stroke-linejoin="round" stroke-width="1"/>
        <path id="Path_13370" data-name="Path 13370" d="M569.891,122.782a50.589,50.589,0,0,0,11.081-1.211c14.4-3.6,10.8,2.16,2.88,3.6s-23.193,1.011-23.193,1.011" transform="translate(-446.31 -91.361)" fill="none" stroke="#333" stroke-linecap="round" stroke-linejoin="round" stroke-width="1"/>
        <path id="Path_13371" data-name="Path 13371" d="M558.962,122.332c2.016.122,3.978.214,5.874.267" transform="translate(-446.441 -91.213)" fill="none" stroke="#333" stroke-linecap="round" stroke-linejoin="round" stroke-width="1"/>
        <path id="Path_13372" data-name="Path 13372" d="M470.166,118.812c-2.162-1.5-3.151-3.3.207-4.946,7.631-3.743,27.723,5.04,51.485,5.76,12.956.392,27.2,2.177,39.8,3.134" transform="translate(-453.442 -91.937)" fill="none" stroke="#333" stroke-linecap="round" stroke-linejoin="round" stroke-width="1"/>
        <path id="Path_13373" data-name="Path 13373" d="M477.2,121.6a40.862,40.862,0,0,1-4.242-1.611" transform="translate(-453.074 -91.393)" fill="none" stroke="#333" stroke-linecap="round" stroke-linejoin="round" stroke-width="1"/>
      </g>
      <g id="Group_10838" data-name="Group 10838" transform="translate(391.49 87.586)">
        <path id="Path_13374" data-name="Path 13374" d="M430.223,136.018s-6.492,11.213-21.246,20.066-36.591,14.164-21.837,18.885,94.428-8.853,115.674-17.115,36-23.606,54.886-33.049,27.738-14.754,13.574-14.754-53.116,4.132-56.066,4.132S443.207,131.887,430.223,136.018Z" transform="translate(-382.234 -85.854)" fill="#ffc200" stroke="#333" stroke-linecap="round" stroke-linejoin="round" stroke-width="1"/>
        <path id="Path_13375" data-name="Path 13375" d="M424.047,154.621s16.09,9.87,23.5,9.87c9.279,0,37.115-6.55,54.036-14.737s25.108-9.826,27.837-15.283-2.183-11.463-2.183-11.463l-13.645-1.637" transform="translate(-379.009 -84.98)" fill="#cca433"/>
        <g id="Group_10837" data-name="Group 10837" transform="translate(45.038)">
          <path id="Path_13376" data-name="Path 13376" d="M424.047,112.963v44.263a75.889,75.889,0,0,0,38.362-1.771c20.066-6.492,46.623-22.427,48.394-23.607S518.475,123,518.475,123s-30.1-35.41-37.181-35.41S437.621,99.389,424.047,112.963Z" transform="translate(-424.047 -87.586)" fill="#ffc200" stroke="#333" stroke-linecap="round" stroke-linejoin="round" stroke-width="1"/>
          <path id="Path_13377" data-name="Path 13377" d="M483.182,94.135a5.9,5.9,0,0,0-1.006-.188c-3.02-1.1-8.194.414-16.622,2.822-11.463,3.274-19.65,13.645-16.921,13.1s16.374-10.371,16.374-2.183-7.641,12.554-7.641,12.554c-.06.09-.109.177-.162.264-8.938,5.447-18.942,9.324-18.942,15.018,0,7.642,30.02-6,38.754-15.282C484.294,112.506,491.193,96.434,483.182,94.135Z" transform="translate(-422.951 -87.124)" fill="#cca433"/>
          <path id="Path_13378" data-name="Path 13378" d="M475.983,126.872c-17.567,11.321-39.257,15.409-51.936,16.882v12.037a75.889,75.889,0,0,0,38.362-1.771c20.066-6.492,46.623-22.427,48.394-23.607s7.672-8.852,7.672-8.852-6.257-7.359-13.733-15.365A326.079,326.079,0,0,1,475.983,126.872Z" transform="translate(-424.047 -86.151)" fill="#947c22" stroke="#333" stroke-linecap="round" stroke-linejoin="round" stroke-width="1"/>
        </g>
      </g>
      <g id="Group_10840" data-name="Group 10840" transform="translate(482.498 124.353)">
        <path id="Path_13379" data-name="Path 13379" d="M604.683,168.935s11.8-9.442,12.393-20.066-14.163-14.754-24.2-15.345-25.967,3.542-50.165-1.179-41.9-15.935-61.968-7.672-16.525,34.82-2.361,37.77,15.345,2.951,45.444,3.542S588.159,176.607,604.683,168.935Z" transform="translate(-466.726 -121.72)" fill="#436a79" stroke="#333" stroke-linecap="round" stroke-linejoin="round" stroke-width="1"/>
        <g id="Group_10839" data-name="Group 10839" transform="translate(4.022 0.118)">
          <path id="Path_13380" data-name="Path 13380" d="M605.7,140.367c-2.7-2.978-7.059-4.98-11.648-6.221l-15.49,36.705a49.825,49.825,0,0,0,14.208-1.642Z" transform="translate(-462.123 -120.88)" fill="#898989" stroke="#333" stroke-linecap="round" stroke-linejoin="round" stroke-width="1"/>
          <path id="Path_13381" data-name="Path 13381" d="M498.829,121.83,470.46,157.542a13.119,13.119,0,0,0,7.638,4.892l.571.118,32.873-38.517A72.977,72.977,0,0,0,498.829,121.83Z" transform="translate(-470.46 -121.83)" fill="#898989" stroke="#333" stroke-linecap="round" stroke-linejoin="round" stroke-width="1"/>
          <path id="Path_13382" data-name="Path 13382" d="M537.024,131.139c-3.882-.867-7.6-1.873-11.2-2.91l-28.567,36.635c3.424.159,7.619.275,13.166.4Z" transform="translate(-468.393 -121.336)" fill="#898989" stroke="#333" stroke-linecap="round" stroke-linejoin="round" stroke-width="1"/>
          <path id="Path_13383" data-name="Path 13383" d="M547.778,167.626l23.095-34.2c-4.014.241-8.493.4-13.46.249l-22.826,32.438C539,166.546,543.416,167.076,547.778,167.626Z" transform="translate(-465.514 -120.936)" fill="#898989" stroke="#333" stroke-linecap="round" stroke-linejoin="round" stroke-width="1"/>
        </g>
        <path id="Path_13384" data-name="Path 13384" d="M582.12,151.061a50.528,50.528,0,0,0,11.081-1.212c14.4-3.6,10.8,2.161,2.88,3.6s-23.193,1.011-23.193,1.011" transform="translate(-458.539 -119.641)" fill="none" stroke="#333" stroke-linecap="round" stroke-linejoin="round" stroke-width="1"/>
        <path id="Path_13385" data-name="Path 13385" d="M571.191,150.611c2.015.122,3.978.214,5.874.267" transform="translate(-458.67 -119.492)" fill="none" stroke="#333" stroke-linecap="round" stroke-linejoin="round" stroke-width="1"/>
        <path id="Path_13386" data-name="Path 13386" d="M482.395,147.091c-2.162-1.5-3.151-3.3.206-4.947,7.633-3.743,27.723,5.041,51.485,5.762,12.957.392,27.2,2.176,39.805,3.134" transform="translate(-465.67 -120.216)" fill="none" stroke="#333" stroke-linecap="round" stroke-linejoin="round" stroke-width="1"/>
        <path id="Path_13387" data-name="Path 13387" d="M489.433,149.881a40.742,40.742,0,0,1-4.241-1.61" transform="translate(-465.302 -119.672)" fill="none" stroke="#333" stroke-linecap="round" stroke-linejoin="round" stroke-width="1"/>
      </g>
      <g id="Group_10841" data-name="Group 10841" transform="translate(272.253 153.59)">
        <path id="Path_13388" data-name="Path 13388" d="M432.424,165.787c-1.77-4.721-7.082-1.771-7.082-1.771h-4.131c-8.263-2.36-17.7-11.8-21.246-13.574s-6.492,5.311-18.295,14.754-38.952,31.87-41.9,34.23c-2.356,1.885-43.436,10.16-59.922,13.424.652,2.317,2.274,5.308,6.153,8.129,7.9,5.744,8.617,15.08,5.744,25.133a47.4,47.4,0,0,0-1.486,7.26l60.135-30.338s27.148,2.95,32.46-.59,19.475-25.967,21.245-29.509,21.836-15.935,24.2-18.885S434.195,170.508,432.424,165.787Z" transform="translate(-270.894 -148.763)" fill="#ffcf97"/>
        <path id="Path_13389" data-name="Path 13389" d="M389.522,177.044l-14.063-5.693a57.116,57.116,0,0,0,9.245-6.79,39.985,39.985,0,0,0,6-8.732,29.758,29.758,0,0,0,11.4,7.3l7.161,2.528Z" transform="translate(-263.52 -148.327)" fill="#ec9f64"/>
        <path id="Path_13390" data-name="Path 13390" d="M428.169,168.5s-22.378,12.554-28.928,16.921-19.65,21.287-24.017,23.471-25.108,4.367-27.291,3.821-23.47,10.371-26.745,12.008c-2.853,1.427-17.3,17.35-20.978,21.428l48.609-24.524s27.148,2.95,32.46-.59,19.475-25.967,21.245-29.509,21.836-15.935,24.2-18.885c1.407-1.759,3.225-2.683,4.1-4.139Z" transform="translate(-269.324 -147.35)" fill="#ec9f64"/>
        <path id="Path_13391" data-name="Path 13391" d="M271.535,212.875s63.739-12.394,66.69-14.754,30.1-24.788,41.9-34.23,14.754-16.525,18.295-14.754,12.984,11.213,21.246,13.574H423.8s5.312-2.951,7.082,1.771-1.77,5.311-4.131,8.262-22.427,15.345-24.2,18.886-15.934,25.967-21.245,29.508-32.46.59-32.46.59l-65.508,33.05" transform="translate(-271.535 -148.864)" fill="none" stroke="#333" stroke-linecap="round" stroke-linejoin="round" stroke-width="1"/>
        <path id="Path_13392" data-name="Path 13392" d="M376.845,182.062a29.056,29.056,0,0,1-2.941,1.329" transform="translate(-263.64 -146.304)" fill="#fff" stroke="#333" stroke-linecap="round" stroke-linejoin="round" stroke-width="1"/>
        <path id="Path_13393" data-name="Path 13393" d="M415.308,161.719s-15.548,5.5-16.887,7.839c-.892,1.56-9.647,7.126-16.785,11.168" transform="translate(-263.044 -147.873)" fill="#fff" stroke="#333" stroke-linecap="round" stroke-linejoin="round" stroke-width="1"/>
        <path id="Path_13394" data-name="Path 13394" d="M400.906,168.663s-3.349-2.009-5.358-3.348-3.683-5.023-3.683-5.023-1.34,6.7-3.349,8.37-6.361,3.014-6.361,3.014l-6.7-.67c5.023,2.009,14.063,5.693,14.063,5.693Z" transform="translate(-263.52 -147.983)" fill="#333" stroke="#333" stroke-linecap="round" stroke-linejoin="round" stroke-width="1"/>
      </g>
      <path id="Path_13395" data-name="Path 13395" d="M394.816,176.3l7.672,161.707,226.036-10.624s-1.181.59-1.181-10.623-8.263-152.855-8.263-152.855Z" transform="translate(10.226 5.886)" fill="#ffca73"/>
      <path id="Path_13396" data-name="Path 13396" d="M497.384,298.2s14.7-1.942,17.2-4.439,11.652-3.884,11.652-3.884l3.052-8.6s-17.756,6.1-23.859,9.71S497.384,298.2,497.384,298.2Z" transform="translate(18.136 14.938)" fill="#333" stroke="#333" stroke-linecap="round" stroke-linejoin="round" stroke-width="1"/>
      <path id="Path_13397" data-name="Path 13397" d="M441.816,271.456s-5.471,8.451-10.239,11.63-17.485,5.3-17.485,5.3l7.948,15.9L437.4,327.061l-8.477,1.589-23.842-11.126-3.709-38.147Z" transform="translate(10.732 14.181)" fill="#333" stroke="#333" stroke-linecap="round" stroke-linejoin="round" stroke-width="1"/>
      <path id="Path_13398" data-name="Path 13398" d="M576.023,321.937c3.6-2.626,6.942-5.7,7.631-8.114,1.437-5.027,9.336-21.542,12.208-27.288,2.14-4.28,12.653-14.94,17.872-20.095q-.183-3.385-.374-6.9c-15.5,12.317-38.888,31.419-44.067,38.481-4.929,6.721-16.569,17.917-24.625,25.386Z" transform="translate(21.783 13.262)" fill="#cc8b59"/>
      <path id="Path_13399" data-name="Path 13399" d="M571.356,321.937c3.6-2.626,6.943-5.7,7.633-8.114,1.436-5.027,9.334-21.542,12.207-27.288,2.141-4.28,12.654-14.94,17.873-20.095q-.183-3.385-.374-6.9c-15.5,12.317-38.888,31.419-44.068,38.481-4.929,6.721-16.568,17.917-24.624,25.386Z" transform="translate(21.423 13.262)" fill="#333" stroke="#333" stroke-linecap="round" stroke-linejoin="round" stroke-width="1"/>
      <path id="Path_13400" data-name="Path 13400" d="M621.737,223.215l.763.083c-.354-6.288-.7-12.44-1.037-18.287-24.2,1.805-116.722,8.758-157.11,12.486-27.964,2.582-52.053,4.389-67.343,5.423l.595,12.53,25.818,28.723s12.207,5.026,35.186-.718,41.648-10.771,63.909-12.207,78.271,0,78.271,0l22.26-5.745Z" transform="translate(10.395 9.056)" fill="#cc8b59"/>
      <path id="Path_13401" data-name="Path 13401" d="M464.352,217.5c-27.964,2.582-52.053,4.389-67.343,5.423l.379,7.978a156.32,156.32,0,0,0,23.879,1.678c16.516,0,30.159.718,34.468-.717s14.361-1.437,35.186-3.591,30.159-2.154,37.34-1.436,32.314,15.08,35.9,15.08,20.106-21.542,20.106-21.542l37.8-4.563c-.209-3.681-.415-7.3-.614-10.8C597.262,206.816,504.74,213.769,464.352,217.5Z" transform="translate(10.395 9.056)" fill="#333" stroke="#333" stroke-linecap="round" stroke-linejoin="round" stroke-width="1"/>
      <path id="Path_13402" data-name="Path 13402" d="M394.816,176.3l7.672,161.707,226.036-10.624s-1.181.59-1.181-10.623-8.263-152.855-8.263-152.855Z" transform="translate(10.226 5.886)" fill="none" stroke="#333" stroke-linecap="round" stroke-linejoin="round" stroke-width="1"/>
      <path id="Path_13403" data-name="Path 13403" d="M579.895,154.365s.172.688,1.332,1.377,3.308,1.375,7.257,1.375c7.9,0,17.78-3.562,20.825,2.154s-5.745,12.208-8.617,12.208-66.261-1.2-75.4-5.027-45.958-.718-43.085-5.027,30.877-10.771,40.931-11.489Z" transform="translate(16.954 4.809)" fill="#ff8100" stroke="#333" stroke-linecap="round" stroke-linejoin="round" stroke-width="1"/>
      <path id="Path_13404" data-name="Path 13404" d="M395.661,176.3l-11.8,54.886s68.46,0,111.543-3.542,76.132-6.492,91.477-7.672a252.491,252.491,0,0,0,27.148-3.541l19.475-1.181-13.574-51.344Z" transform="translate(9.381 5.886)" fill="#ffca73" stroke="#333" stroke-linecap="round" stroke-linejoin="round" stroke-width="1"/>
      <path id="Path_13405" data-name="Path 13405" d="M560.767,218.948s11.131-.674,14.5-1.35,7.42-11.13,9.781-16.189,5.4-34.066,5.4-34.066l-31.367,47.22S557.394,219.285,560.767,218.948Z" transform="translate(22.862 6.151)" fill="#333" stroke="#333" stroke-linecap="round" stroke-linejoin="round" stroke-width="1"/>
      <g id="Group_10843" data-name="Group 10843" transform="translate(433.458 166.231)">
        <path id="Path_13406" data-name="Path 13406" d="M489.57,161.805s-24.2,1.181-35.41,2.95-17.682,4.16-17.682,7.11-15.28,59.289-15.28,59.289,10.536,5.012,19.978,6.783c6.7,1.256,17.146.117,22.653-.65A4.884,4.884,0,0,0,468,233.1l3.866-28.8,85.575,43.083s5.9-3.542,6.492-7.082c.486-2.917,23.667-55.946,31.4-73.236a4.446,4.446,0,0,0-3.833-6.26c-16.415-.793-60.232,1-70.651,1Z" transform="translate(-421.197 -160.6)" fill="#64bbc2"/>
        <path id="Path_13407" data-name="Path 13407" d="M594.032,167.063a4.4,4.4,0,0,0,.132-3.295c-2.952-.98-6.636-2.078-10.363-3.138-14.8-.186-39.161.6-53.933.98l-2.975,3.517s4.637,6.7-10.306,8.759-27.312-4.122-26.8,1.547-1.031,32.463-4.638,29.887-.515-36.071-4.637-30.918S464.809,214.451,463,217.686s-22.673-34.524-24.734-24.734,12.882,25.25,9.79,34.525a70.494,70.494,0,0,1-5.158,10.85c6.516.549,14.9-.38,19.633-1.039A4.884,4.884,0,0,0,466.7,233.1l3.866-28.8,53.946,27.159c4.938-3.264,10.308-6.094,16.3-6.555,7.015-.54,17.559,1.746,26.312,4.047C574.357,211.7,588.355,179.753,594.032,167.063Z" transform="translate(-419.896 -160.6)" fill="#299cab"/>
        <path id="Path_13408" data-name="Path 13408" d="M489.57,161.805s-24.2,1.181-35.41,2.95-17.682,4.16-17.682,7.11-15.28,59.289-15.28,59.289,10.536,5.012,19.978,6.783c6.7,1.256,17.146.117,22.653-.65A4.884,4.884,0,0,0,468,233.1l3.866-28.8,85.575,43.083s5.9-3.542,6.492-7.082c.486-2.917,23.667-55.946,31.4-73.236a4.446,4.446,0,0,0-3.833-6.26c-16.415-.793-60.232,1-70.651,1Z" transform="translate(-421.197 -160.6)" fill="none" stroke="#333" stroke-linecap="round" stroke-linejoin="round" stroke-width="1"/>
        <path id="Path_13409" data-name="Path 13409" d="M468.237,202.521s6.492-12.393,7.672-18.885" transform="translate(-417.569 -158.824)" fill="none" stroke="#333" stroke-linecap="round" stroke-linejoin="round" stroke-width="1"/>
        <g id="Group_10842" data-name="Group 10842" transform="translate(18.85 10.774)">
          <path id="Path_13410" data-name="Path 13410" d="M438.7,170.6s1.077,10.233,3.77,13.464" transform="translate(-438.697 -170.603)" fill="none" stroke="#333" stroke-linecap="round" stroke-linejoin="round" stroke-width="1"/>
          <path id="Path_13411" data-name="Path 13411" d="M451.794,187.213c.81,1.24,1.518,2.316,2.05,3.113" transform="translate(-437.687 -169.322)" fill="none" stroke="#333" stroke-linecap="round" stroke-linejoin="round" stroke-width="1"/>
          <path id="Path_13412" data-name="Path 13412" d="M441.7,171.6s4.471,6.956,8.352,12.937" transform="translate(-438.466 -170.526)" fill="none" stroke="#333" stroke-linecap="round" stroke-linejoin="round" stroke-width="1"/>
        </g>
        <path id="Path_13413" data-name="Path 13413" d="M480.821,184.534a15.2,15.2,0,0,0,1.2-3.09" transform="translate(-416.599 -158.993)" fill="none" stroke="#333" stroke-linecap="round" stroke-linejoin="round" stroke-width="1"/>
        <path id="Path_13414" data-name="Path 13414" d="M470.429,198.073a76.344,76.344,0,0,0,8.96-10.33" transform="translate(-417.4 -158.507)" fill="none" stroke="#333" stroke-linecap="round" stroke-linejoin="round" stroke-width="1"/>
      </g>
      <g id="Group_10845" data-name="Group 10845" transform="translate(262.221 264.815)">
        <path id="Path_13415" data-name="Path 13415" d="M459.159,334.443c2.361.59,5.9-.59,5.312-5.311s-4.132-5.311-7.082-6.492-41.9-37.181-41.9-37.181,22.427-3.541,25.967-4.721,11.8-5.311,11.8-11.8-13.574,2.36-23.016,2.36-20.656-5.9-24.788-4.721S372.4,280.148,372.4,280.148a91.107,91.107,0,0,1-10.033.59c-4.628,0-71.555-22.41-88.681-28.169a11.776,11.776,0,0,0,2.816,9.947c5.744,6.463,12.925,10.771,0,26.568-8.133,9.941-10.009,16.753-8.853,21.69,21.572,1.849,92.219,8.005,94.718,9.5,2.951,1.771,21.246,11.214,25.968,15.345S402.5,348.017,407.815,349.2s14.754,4.132,17.7,4.132h11.8s7.672,0,9.442-1.18,4.132-4.722,4.132-4.722l5.9,1.18s4.721-1.77,4.721-5.311-14.164-9.443-17.7-12.393S420.8,317.329,420.8,317.329s11.8,4.721,13.574,5.311S456.8,333.853,459.159,334.443Z" transform="translate(-261.826 -252.091)" fill="#ffcf97"/>
        <g id="Group_10844" data-name="Group 10844" transform="translate(24.509 20.822)">
          <path id="Path_13416" data-name="Path 13416" d="M445.406,348.042c1.771-1.181,4.132-4.722,4.132-4.722l5.9,1.18s4.721-1.771,4.721-5.311S446,329.746,442.456,326.8c-2.67-2.225-14.395-8.81-20-11.915a41.926,41.926,0,0,1-7.3,5.68s2.183,6,0,9.279-9.826,1.091-16.921-1.637-23.47-15.829-36.57-16.374-33.841-6-46.94-6c-7.122,0-19.723,1.291-29.747,2.469,29.235,2.576,74.055,6.691,76.036,7.88,2.951,1.771,21.246,11.214,25.968,15.345s14.164,12.393,19.475,13.574,14.754,4.132,17.7,4.132h11.8S443.636,349.222,445.406,348.042Z" transform="translate(-284.975 -268.806)" fill="#ec9f64"/>
          <path id="Path_13417" data-name="Path 13417" d="M442.02,271.456c-1.7,1.016-3.594,2.1-5.621,3.178-8.187,4.367-37.662,8.732-37.662,8.732s11.463,10.371,13.1,12.554,6,13.646,4.367,18.013A10.6,10.6,0,0,1,414,317.2c3.632,1.443,9.082,3.6,10.24,3.983,1.771.59,22.427,11.213,24.788,11.8s5.9-.59,5.311-5.311-4.132-5.311-7.082-6.492S405.354,284,405.354,284s22.427-3.541,25.967-4.721C434.072,278.365,439.658,275.659,442.02,271.456Z" transform="translate(-276.201 -271.456)" fill="#ec9f64"/>
        </g>
        <path id="Path_13418" data-name="Path 13418" d="M270.484,252.125s87.345,29.509,92.656,29.509a91.136,91.136,0,0,0,10.033-.59s28.919-12.393,33.049-13.574,15.345,4.721,24.787,4.721,23.017-8.853,23.017-2.361-8.263,10.624-11.8,11.8-25.967,4.721-25.967,4.721,38.951,36,41.9,37.181,6.492,1.77,7.082,6.492-2.951,5.9-5.312,5.311-23.016-11.213-24.787-11.8-13.574-5.312-13.574-5.312,19.475,10.624,23.017,13.574,17.7,8.853,17.7,12.395-4.721,5.311-4.721,5.311l-5.9-1.181s-2.361,3.542-4.132,4.721-9.443,1.181-9.443,1.181h-11.8c-2.95,0-12.393-2.95-17.7-4.131s-14.754-9.443-19.475-13.574-23.017-13.574-25.968-15.345-100.919-10.033-100.919-10.033" transform="translate(-262.221 -252.125)" fill="none" stroke="#333" stroke-linecap="round" stroke-linejoin="round" stroke-width="1"/>
        <path id="Path_13419" data-name="Path 13419" d="M408.514,330.477s11.8,4.131,17.115,7.082,14.754,4.721,14.754,4.721" transform="translate(-250.939 -246.082)" fill="none" stroke="#333" stroke-linecap="round" stroke-linejoin="round" stroke-width="1"/>
        <path id="Path_13420" data-name="Path 13420" d="M398.577,335.933c5.574,1.713,13.351,4.223,14.835,5.336,2.36,1.771,14.163,6.492,14.163,6.492" transform="translate(-251.705 -245.662)" fill="none" stroke="#333" stroke-linecap="round" stroke-linejoin="round" stroke-width="1"/>
        <path id="Path_13421" data-name="Path 13421" d="M393.172,334.312s.889.259,2.3.679" transform="translate(-252.122 -245.786)" fill="none" stroke="#333" stroke-linecap="round" stroke-linejoin="round" stroke-width="1"/>
      </g>
      <g id="Group_10846" data-name="Group 10846" transform="translate(507.178 142.059)">
        <path id="Path_13422" data-name="Path 13422" d="M682.685,199.983c-7.18-5.744-4.308-28.724-10.053-35.186-5.106-5.743-16.444-.713-18.9.477-18.575,19.714-40.965,44.1-48.452,54.843-13.574,19.477-41.9,44.854-41.9,44.854s-30.689,4.721-34.23,4.721-13.574,4.722-15.345,8.853-12.984,15.345-18.295,17.116-9.443,8.262-1.18,10.623,15.935-2.95,20.066-6.492,12.393-4.721,12.393-4.721S513.21,313.954,507.9,320.446s-12.393,14.164-11.213,17.706,2.95,5.9,8.262,5.9,11.214-5.9,11.214-5.9,7.082,5.311,11.8,4.131a66.055,66.055,0,0,0,8.853-2.951s5.9,2.361,8.263,2.361,6.492-4.131,6.492-4.131h7.082c4.721,0,14.754-8.853,18.885-12.985s10.032-14.163,11.8-20.066,2.361-11.8,6.492-15.934,17.115-14.164,17.115-14.164L699.7,209.494l-.2-.783C693.193,206.059,686.168,202.768,682.685,199.983Z" transform="translate(-489.639 -136.313)" fill="#d39870"/>
        <path id="Path_13423" data-name="Path 13423" d="M699.173,206.675c-6.316-2.652-13.341-5.942-16.824-8.728-2.251-1.8-3.515-5.3-4.365-9.45-13.075,12.6-48.117,46.147-66.007,61.152-22.261,18.67-46.675,28.005-54.575,27.287s-36.622,4.309-41.648,7.181-14.809,15.126-21.766,20.129c8.263,2.361,15.935-2.95,20.066-6.492s12.393-4.721,12.393-4.721-4.129,5.743-8.722,11.983c1.43-.29,2.726-.56,3.773-.793a26.41,26.41,0,0,0,10.053-4.308s-8.617,18.67-12.207,25.132,2.154,13.644,6.463,10.771,13.644-3.59,13.644-3.59a20.108,20.108,0,0,0,7.223,6.821,23.533,23.533,0,0,0,4.561-3.524h7.082c4.721,0,14.754-8.853,18.885-12.985s10.032-14.163,11.8-20.066,2.361-11.8,6.492-15.934,17.115-14.164,17.115-14.164l86.755-64.919Z" transform="translate(-489.303 -134.277)" fill="#b57753"/>
        <path id="Path_13424" data-name="Path 13424" d="M681.409,138.159s-62.558,64.328-76.132,83.8-41.9,44.854-41.9,44.854-30.689,4.721-34.23,4.721-13.574,4.722-15.345,8.853-12.984,15.345-18.295,17.116-9.443,8.262-1.18,10.623,15.935-2.95,20.066-6.492,12.393-4.721,12.393-4.721S513.21,315.8,507.9,322.292,495.505,336.456,496.686,340s2.95,5.9,8.262,5.9,11.214-5.9,11.214-5.9,7.082,5.311,11.8,4.131a66.055,66.055,0,0,0,8.853-2.951s5.9,2.361,8.263,2.361,6.492-4.131,6.492-4.131h7.082c4.721,0,14.754-8.853,18.885-12.985s10.032-14.163,11.8-20.066,2.361-11.8,6.492-15.934,17.115-14.164,17.115-14.164L699.7,211.34" transform="translate(-489.639 -138.159)" fill="none" stroke="#333" stroke-linecap="round" stroke-linejoin="round" stroke-width="1"/>
      </g>
      <g id="Group_10847" data-name="Group 10847" transform="translate(537.241 151.796)">
        <path id="Path_13425" data-name="Path 13425" d="M570.149,216.2s3.11.992,5.437-4.327,15.292-47.208,15.292-47.208-10.971-4.654-14.294-4.986-5.652-.333-5.652-.333Z" transform="translate(-513.492 -146.262)" fill="#c1b8d5" stroke="#333" stroke-linecap="round" stroke-linejoin="round" stroke-width="1"/>
        <path id="Path_13426" data-name="Path 13426" d="M517.549,149.265v62.648a4.682,4.682,0,0,0,4.632,4.681c13.269.142,50.571.541,52.025.541,1.771,0,4.131-59.607,2.951-62.558s-21.246-1.771-37.181-4.131S520.5,145.133,517.549,149.265Z" transform="translate(-517.549 -147.198)" fill="#c1b8d5" stroke="#333" stroke-linecap="round" stroke-linejoin="round" stroke-width="1"/>
        <path id="Path_13427" data-name="Path 13427" d="M548.592,152.2s.353,14.107.353,27.862V213.92" transform="translate(-515.155 -146.813)" fill="none" stroke="#333" stroke-linecap="round" stroke-linejoin="round" stroke-width="1"/>
        <line id="Line_1" data-name="Line 1" x1="0.705" y1="57.136" transform="translate(35.906 7.502)" fill="none" stroke="#333" stroke-linecap="round" stroke-linejoin="round" stroke-width="1" stroke-dasharray="5"/>
      </g>
    </g>
  </g>
</svg>
