<svg xmlns="http://www.w3.org/2000/svg" width="50" height="50" viewBox="0 0 50 50">
  <g id="Group_14464" data-name="Group 14464" transform="translate(-309 -747)">
    <path id="Path_13984" data-name="Path 13984" d="M25,0A25.105,25.105,0,0,1,40.862,5.675,25,25,0,1,1,25,0Z" transform="translate(309 747)" fill="#83b927"/>
    <path id="_5305170_bird_social_media_social_network_tweet_twitter_icon" data-name="5305170_bird_social media_social network_tweet_twitter_icon" d="M7.153,66.469A13.188,13.188,0,0,0,20.431,53.191c0-.2,0-.4-.014-.6a9.5,9.5,0,0,0,2.328-2.416,9.316,9.316,0,0,1-2.68.734,4.684,4.684,0,0,0,2.052-2.581,9.354,9.354,0,0,1-2.963,1.133A4.671,4.671,0,0,0,11.2,53.714a13.255,13.255,0,0,1-9.618-4.876,4.689,4.689,0,0,0,1.445,6.23A4.632,4.632,0,0,1,.91,54.484v.059a4.682,4.682,0,0,0,3.744,4.575,4.66,4.66,0,0,1-2.107.08,4.681,4.681,0,0,0,4.36,3.241,9.366,9.366,0,0,1-5.8,2A9.491,9.491,0,0,1,0,64.373a13.213,13.213,0,0,0,7.153,2.093" transform="translate(322.754 714.439)" fill="#fff"/>
  </g>
</svg>
