<svg xmlns="http://www.w3.org/2000/svg" width="50.678" height="50.667" viewBox="0 0 50.678 50.667">
  <g id="Group_14466" data-name="Group 14466" transform="translate(-308.788 -746.333)">
    <g id="_3146791_whatsapp_logo_icon" data-name="3146791_whatsapp_logo_icon" transform="translate(295.788 733.333)">
      <path id="Path_13982" data-name="Path 13982" d="M38.339,13a25.338,25.338,0,0,0-21.2,39.218L13.876,63.271l11.481-3.18A25.336,25.336,0,1,0,38.339,13Z" fill="#25d366"/>
      <path id="Path_13983" data-name="Path 13983" d="M150.31,154.344a.919.919,0,0,0-.532-.761c-2.044-.938-4.1-1.877-6.142-2.815a.577.577,0,0,0-.678.146l-2.774,3.128a.759.759,0,0,1-.865.209,19.7,19.7,0,0,1-5.339-3.285,19.9,19.9,0,0,1-4.494-5.579,4.858,4.858,0,0,0,1.908-2.492.036.036,0,0,1,.01-.021,4.226,4.226,0,0,0-.094-2.753,29.389,29.389,0,0,0-2.086-4.755c-.073-.073-.156-.146-.156-.146a1.841,1.841,0,0,0-1.147-.459c-.146-.01-.3-.01-.469-.01a8.72,8.72,0,0,0-1.22.031,3.148,3.148,0,0,0-1.94,1.22,8.247,8.247,0,0,0-1.46,2.649c-.031.1-.063.2-.094.3a7.459,7.459,0,0,0,.167,4.526,24.63,24.63,0,0,0,2.231,4.713,26.084,26.084,0,0,0,5.036,5.944,24.067,24.067,0,0,0,6.225,4.442,21.6,21.6,0,0,0,6.767,1.971,7.465,7.465,0,0,0,3.306-.459,6.979,6.979,0,0,0,1.627-.876,5.24,5.24,0,0,0,2.179-3.462v-.031A6.238,6.238,0,0,0,150.31,154.344Z" transform="translate(-98.051 -109.05)" fill="#fff"/>
    </g>
  </g>
</svg>
