<svg xmlns="http://www.w3.org/2000/svg" width="12.341" height="15.531" viewBox="0 0 12.341 15.531">
  <g id="Group_14458" data-name="Group 14458" transform="translate(-319.5 -780.969)">
    <path id="ic_notifications_24px" d="M9.671,17.031a1.422,1.422,0,0,0,1.418-1.418H8.253A1.417,1.417,0,0,0,9.671,17.031Zm4.253-4.962V8.525a4.319,4.319,0,0,0-3.19-4.48V3.563a1.063,1.063,0,0,0-2.127,0v.482a4.306,4.306,0,0,0-3.19,4.48v3.544L4,13.487V14.2H15.341v-.709Z" transform="translate(316 778.969)" fill="none" stroke="#83b927" stroke-width="1"/>
    <path id="Path_13977" data-name="Path 13977" d="M330.906,788.734h-9.781" transform="translate(-0.344)" fill="none" stroke="#fff" stroke-width="1"/>
    <path id="Path_13978" data-name="Path 13978" d="M330.063,788.734h-8.937" transform="translate(0.077 -1)" fill="none" stroke="#83b927" stroke-width="1"/>
    <path id="Path_13979" data-name="Path 13979" d="M330.063,788.734h-8.937" transform="translate(0.077 1)" fill="none" stroke="#83b927" stroke-width="1"/>
  </g>
</svg>
