<svg xmlns="http://www.w3.org/2000/svg" width="14" height="14" viewBox="0 0 14 14">
  <g id="article_black_24dp" transform="translate(-3 -3)">
    <g id="Group_3850" data-name="Group 3850" transform="translate(3 3)">
      <path id="Path_13350" data-name="Path 13350" d="M15.444,4.556V15.444H4.556V4.556H15.444m0-1.556H4.556A1.56,1.56,0,0,0,3,4.556V15.444A1.56,1.56,0,0,0,4.556,17H15.444A1.56,1.56,0,0,0,17,15.444V4.556A1.56,1.56,0,0,0,15.444,3Z" transform="translate(-3 -3)" fill="#951b80"/>
    </g>
    <path id="Path_13351" data-name="Path 13351" d="M12.444,14.778H7V13.222h5.444Zm2.333-3.111H7V10.111h7.778Zm0-3.111H7V7h7.778Z" transform="translate(-0.889 -0.889)" fill="#951b80"/>
  </g>
</svg>
