<svg xmlns="http://www.w3.org/2000/svg" xmlns:xlink="http://www.w3.org/1999/xlink" width="2732" height="2732" viewBox="0 0 2732 2732">
  <defs>
    <clipPath id="clip-path">
      <rect id="Rectangle_16" data-name="Rectangle 16" width="2732" height="2732" transform="translate(-191.426 -240.278)" fill="none"/>
    </clipPath>
  </defs>
  <g id="Group_5" data-name="Group 5" transform="translate(191.426 240.278)">
    <g id="Group_4" data-name="Group 4">
      <g id="Group_3" data-name="Group 3" clip-path="url(#clip-path)">
        <g id="Group_2" data-name="Group 2">
          <g id="Group_1" data-name="Group 1" clip-path="url(#clip-path)">
            <path id="Path_1" data-name="Path 1" d="M1104.329,320.075s-44.259,53.111-19.474,145.169c0,0,37.177,113.3,173.495,260.243,0,0,217.753,208.9,23.014,401.87,0,0,102.681-178.806-76.125-371.775,0,0-167.177-183.487-168.184-272.634-1.027-90.878,67.274-162.873,67.274-162.873" fill="#82b728"/>
            <path id="Path_2" data-name="Path 2" d="M1152.719,772.1s256.111,205.361,0,459.112c0,0,158.151-173.494,0-459.112" fill="#9c2681"/>
            <path id="Path_3" data-name="Path 3" d="M1352.179,580.317a65.5,65.5,0,1,1-65.5-65.5,65.5,65.5,0,0,1,65.5,65.5" fill="#9c2681"/>
            <path id="Path_4" data-name="Path 4" d="M1162.321,1026.447a53.861,53.861,0,1,1-53.862-53.861,53.861,53.861,0,0,1,53.862,53.861" fill="#82b728"/>
            <path id="Path_5" data-name="Path 5" d="M1128.739,1171.991a44.634,44.634,0,1,1-44.634-44.634,44.634,44.634,0,0,1,44.634,44.634" fill="#82b728"/>
            <path id="Path_6" data-name="Path 6" d="M1013.451,1245.165a26.125,26.125,0,1,1-26.125-26.125,26.125,26.125,0,0,1,26.125,26.125" fill="#82b728"/>
            <path id="Path_7" data-name="Path 7" d="M1241.826,435.148a51.93,51.93,0,1,1-51.93-51.931,51.93,51.93,0,0,1,51.93,51.931" fill="#9c2681"/>
            <path id="Path_8" data-name="Path 8" d="M1207.169,265.123a40.641,40.641,0,1,1-40.641-40.642,40.641,40.641,0,0,1,40.641,40.642" fill="#9c2681"/>
            <path id="Path_9" data-name="Path 9" d="M1276.549,191.46a28.738,28.738,0,1,1-28.738-28.738,28.737,28.737,0,0,1,28.738,28.738" fill="#9c2681"/>
            <path id="Path_10" data-name="Path 10" d="M842.168,1487.052c0,14.995,7.23,21.152,20.349,21.152H866V1530.7h-9.372c-24.366-1.072-37.485-17.672-37.485-42.575V1369.238h7.226c12.052,0,15.8,5.087,15.8,17.939Z" fill="#82b728"/>
            <path id="Path_11" data-name="Path 11" d="M910.17,1489.461c.536,13.39,8.036,18.743,20.35,18.743h6.158V1530.7H924.63c-10.977-.535-19.814-4.014-25.972-10.175-6.425,6.161-14.995,9.64-25.973,10.175H860.637V1508.2H866.8c12.583,0,19.543-5.621,20.349-20.082V1439.39h7.23c12.048,0,15.795,5.088,15.795,17.939ZM885,1412.079c0-7.23,5.89-12.851,13.389-12.851a12.852,12.852,0,0,1,0,25.7c-7.5,0-13.389-5.625-13.389-12.854" fill="#82b728"/>
            <rect id="Rectangle_1" data-name="Rectangle 1" width="34.808" height="22.492" transform="translate(933.997 1508.204)" fill="#82b728"/>
            <rect id="Rectangle_2" data-name="Rectangle 2" width="34.809" height="22.492" transform="translate(964.784 1508.204)" fill="#82b728"/>
            <path id="Path_12" data-name="Path 12" d="M1014.314,1530.7h-22.76V1508.2h16.871c12.584,0,19.543-5.622,20.349-20.082V1439.39H1036c12.048,0,15.8,5.088,15.8,17.939v21.69c0,25.437-8.031,49.8-37.486,51.678m-4.017-118.35a12.916,12.916,0,0,1,13.123-12.852,12.853,12.853,0,0,1,0,25.706,12.919,12.919,0,0,1-13.123-12.854m30.525,0c0-7.23,5.889-12.852,13.389-12.852a12.853,12.853,0,0,1,0,25.706c-7.5,0-13.389-5.625-13.389-12.854" fill="#82b728"/>
            <path id="Path_13" data-name="Path 13" d="M1096.781,1487.052c0,14.995,7.23,21.152,20.349,21.152h3.481V1530.7h-9.371c-24.367-1.072-37.485-17.672-37.485-42.575V1369.238h7.225c12.052,0,15.8,5.087,15.8,17.939Z" fill="#82b728"/>
            <rect id="Rectangle_3" data-name="Rectangle 3" width="34.809" height="22.492" transform="translate(1117.93 1508.204)" fill="#82b728"/>
            <rect id="Rectangle_4" data-name="Rectangle 4" width="34.808" height="22.492" transform="translate(1148.717 1508.204)" fill="#82b728"/>
            <rect id="Rectangle_5" data-name="Rectangle 5" width="34.809" height="22.492" transform="translate(1179.505 1508.204)" fill="#82b728"/>
            <rect id="Rectangle_6" data-name="Rectangle 6" width="34.809" height="22.492" transform="translate(1210.292 1508.204)" fill="#82b728"/>
            <rect id="Rectangle_7" data-name="Rectangle 7" width="34.809" height="22.492" transform="translate(1241.078 1508.204)" fill="#82b728"/>
            <rect id="Rectangle_8" data-name="Rectangle 8" width="34.809" height="22.492" transform="translate(1271.87 1508.204)" fill="#82b728"/>
            <path id="Path_14" data-name="Path 14" d="M1349.513,1489.461c.535,13.389,8.035,18.743,20.348,18.743h6.159V1530.7h-12.049c-10.977-.535-19.813-4.015-25.971-10.174-6.425,6.159-14.995,9.639-25.973,10.174h-12.049V1508.2h6.16c12.584,0,19.543-5.622,20.348-20.082V1439.39h7.231c12.047,0,15.8,5.088,15.8,17.939Zm-43.375,70.42a12.914,12.914,0,0,1,13.119-12.852,12.853,12.853,0,1,1,0,25.706,12.915,12.915,0,0,1-13.119-12.854m30.521,0c0-7.228,5.894-12.852,13.389-12.852a12.853,12.853,0,1,1,0,25.706c-7.495,0-13.389-5.624-13.389-12.854" fill="#82b728"/>
            <path id="Path_15" data-name="Path 15" d="M1496.242,1522.128a248.2,248.2,0,0,1-1.341,25.7s-10.977-17.137-40.7-17.137h-84.882V1508.2h102.819c-1.336-23.829-12.849-68.279-48.462-68.279-29.456,0-39.363,16.869-39.363,16.869v-9.371c0-15.263,11.783-30.524,44.181-30.524,54.356,0,67.745,58.908,67.745,105.229" fill="#82b728"/>
            <path id="Path_16" data-name="Path 16" d="M896.761,1696.443c-4.142,0-8.948-3.15-8.948-9.78v-36.3H837.425v46.078h-4.973c-3.98,0-8.62-2.984-8.62-9.78V1596.33h7.292a6.414,6.414,0,0,1,6.3,6.794v34.808h50.388v-41.6h6.462a6.86,6.86,0,0,1,6.965,6.794v93.319Z" fill="#9c2681"/>
            <path id="Path_17" data-name="Path 17" d="M995.713,1696.443c-5.8,0-8.451-2.487-9.281-7.128-1.328-6.8-3.648-14.586-4.806-19.393H934.882c-1.988,7.458-4.641,18.233-6.13,26.521h-5.139c-4.146,0-5.968-1.989-5.968-6.464,0-13.925,19.888-74.755,35.3-93.65h4.478c5.636,0,9.114,3.646,13.426,11.271,8.782,15.58,24.7,56.354,29.671,88.843Zm-37.623-88.016c-9.45,16.742-15.086,32.157-20.225,50.721H978.31c-5.3-18.73-11.6-34.974-20.22-50.721" fill="#9c2681"/>
            <path id="Path_18" data-name="Path 18" d="M1038.643,1654.508v41.935h-4.972c-4.972,0-8.454-2.487-8.454-8.122v-33.647c-11.771-15.748-25.691-39.616-32.323-58.345h6.96c4.644,0,7.956,2.155,10.115,7.292,4.971,12.1,13.259,26.521,23.038,40.775,9.28-13.26,21.216-33.483,26.52-48.067H1065c3.976,0,5.3,2.155,5.3,5.468,0,6.3-20.718,39.78-31.658,52.711" fill="#9c2681"/>
            <path id="Path_19" data-name="Path 19" d="M1140.741,1696.443c-5.8,0-8.451-2.487-9.281-7.128-1.328-6.8-3.648-14.586-4.8-19.393H1079.91c-1.988,7.458-4.641,18.233-6.13,26.521h-5.139c-4.146,0-5.967-1.989-5.967-6.464,0-13.925,19.888-74.755,35.3-93.65h4.478c5.636,0,9.114,3.646,13.426,11.271,8.782,15.58,24.695,56.354,29.671,88.843Zm-37.623-88.016c-9.45,16.742-15.086,32.157-20.224,50.721h40.444c-5.3-18.73-11.6-34.974-20.22-50.721" fill="#9c2681"/>
            <path id="Path_20" data-name="Path 20" d="M1204.219,1608.593h-23.536v87.85h-4.972c-5.8,0-8.786-1.989-8.786-8.621v-79.229h-30.5v-4.972c0-3.812,2.486-7.458,8.616-7.458h66.965v5.138c0,2.818-3.315,7.292-7.79,7.292" fill="#9c2681"/>
            <path id="Path_21" data-name="Path 21" d="M1259.414,1697.935c-24.2,0-44.425-18.73-44.425-50.389,0-30.665,16.576-52.709,46.08-52.709,26.853,0,44.421,20.719,44.421,50.223,0,30.665-16.572,52.875-46.076,52.875m0-90.667c-19.062,0-31,12.266-31,37.792,0,25.856,10.94,40.442,32.654,40.442,19.4,0,30.995-14.752,30.995-37.956,0-26.686-10.11-40.278-32.65-40.278" fill="#9c2681"/>
            <path id="Path_22" data-name="Path 22" d="M1400.96,1696.443c-9.28,0-17.07-4.972-27.679-26.354l-21.217-42.765c-4.145-8.454-7.458-13.094-11.1-16.74v85.859h-5.637c-4.141,0-7.458-3.316-7.458-9.116v-91.163h6.467c11.434,0,19.722,8.122,25.691,20.053l21.049,42.931c3.815,7.957,6.96,15.415,11.439,20.885v-83.7h5.632a6.936,6.936,0,0,1,6.964,7.126v92.987Z" fill="#9c2681"/>
            <path id="Path_23" data-name="Path 23" d="M1499.575,1696.443c-5.8,0-8.45-2.487-9.28-7.128-1.328-6.8-3.649-14.586-4.807-19.393h-46.744c-1.988,7.458-4.641,18.233-6.13,26.521h-5.139c-4.145,0-5.967-1.989-5.967-6.464,0-13.925,19.887-74.755,35.3-93.65h4.478c5.637,0,9.114,3.646,13.427,11.271,8.781,15.58,24.694,56.354,29.67,88.843Zm-37.623-88.016c-9.45,16.742-15.086,32.157-20.225,50.721h40.446c-5.3-18.73-11.6-34.974-20.221-50.721" fill="#9c2681"/>
            <path id="Path_24" data-name="Path 24" d="M879.656,1800.5v8.45H845.995q-9.141,0-14.406-2.382a14.753,14.753,0,0,1-7.633-7.855c-1.592-3.629-2.4-8.671-2.4-15.085q0-9.432,2.285-14.946a14.609,14.609,0,0,1,7.453-7.938q5.154-2.43,14.2-2.437,4.365,0,12.01.4t11.124.79v41Zm-47.111-6.842a9.632,9.632,0,0,0,5.014,5.263,23.453,23.453,0,0,0,9.53,1.579h12.2v-33.05q-7.937-.6-12.605-.6a21.765,21.765,0,0,0-9.281,1.635,9.692,9.692,0,0,0-4.918,5.263,26.176,26.176,0,0,0-1.5,9.78,26.646,26.646,0,0,0,1.552,10.126m4.419-53.22H845.4v9.627h-8.437Zm13.3,0H858.6v9.627h-8.339Z" fill="#666362"/>
            <path id="Path_25" data-name="Path 25" d="M918.677,1800.5v8.45H879.656v-8.45h14.793v-41.2h9.434v41.2Zm-30.489,16.387h8.437v9.53h-8.437Zm13.312,0h8.339v9.53H901.5Z" fill="#666362"/>
            <path id="Path_26" data-name="Path 26" d="M952.241,1800.5v8.45H918.678v-8.45h12.2V1738.25h9.433V1800.5Z" fill="#666362"/>
            <rect id="Rectangle_9" data-name="Rectangle 9" width="24.823" height="8.45" transform="translate(952.227 1800.501)" fill="#666362"/>
            <path id="Path_27" data-name="Path 27" d="M1032.015,1757.518a26.591,26.591,0,0,1,11.719,11.221q4.3,7.646,4.309,19.254v20.959H977.05v-8.45h11.123v-6.151a18.023,18.023,0,0,1,2.536-9.28,19.3,19.3,0,0,1,6.8-6.9,17.767,17.767,0,0,1,9.433-2.59,18.165,18.165,0,0,1,9.434,2.535,18.626,18.626,0,0,1,6.746,6.856,18.411,18.411,0,0,1,2.479,9.378v6.151h13.007V1788.09q0-14.295-7.4-20t-18.022-5.707q-6.836,0-21.637,2.674l-.692-7.342q14.086-3.759,24.227-3.767a38.476,38.476,0,0,1,16.927,3.573m-31.721,29.381a9.512,9.512,0,0,0-2.687,6.856v6.747h18.672v-6.843a9.4,9.4,0,0,0-2.687-6.76,9.363,9.363,0,0,0-13.3,0" fill="#666362"/>
            <path id="Path_28" data-name="Path 28" d="M1106.235,1738.25v70.7h-48.663V1800.5h12.62v-48.842h9.433V1800.5H1096.9V1738.25Zm-21.748,4.267-20.75,4.072-1-3.574,4.765-1.288a8.915,8.915,0,0,1-2.673-3.324,9.485,9.485,0,0,1-.9-4.018,9.326,9.326,0,0,1,9.641-9.336,13.05,13.05,0,0,1,7.342,2.383l-1.094,4.46a7.857,7.857,0,0,0-1.787-.983,6.584,6.584,0,0,0-2.577-.5,5.512,5.512,0,0,0-5.665,5.554,5.471,5.471,0,0,0,2.382,4.572l11.124-2.978Z" fill="#666362"/>
            <rect id="Rectangle_10" data-name="Rectangle 10" width="9.433" height="70.701" transform="translate(1122.511 1738.25)" fill="#666362"/>
            <path id="Path_29" data-name="Path 29" d="M1224.781,1800.5v8.45H1191.12q-9.122,0-14.393-2.382a14.832,14.832,0,0,1-7.646-7.855c-1.593-3.629-2.382-8.671-2.382-15.085q0-9.432,2.286-14.946a14.629,14.629,0,0,1,7.438-7.938q5.173-2.43,14.2-2.437,4.384,0,12.023.4c5.1.264,8.8.527,11.124.79v41Zm-47.111-6.842a9.677,9.677,0,0,0,5.013,5.263,23.5,23.5,0,0,0,9.531,1.579h12.218v-33.05c-5.305-.4-9.5-.6-12.619-.6a21.77,21.77,0,0,0-9.282,1.635,9.685,9.685,0,0,0-4.916,5.263,26.475,26.475,0,0,0-1.483,9.78,26.939,26.939,0,0,0,1.538,10.126m4.419-53.22h8.437v9.627h-8.437Zm13.312,0h8.339v9.627H1195.4Z" fill="#666362"/>
            <path id="Path_30" data-name="Path 30" d="M1263.8,1800.5v8.45h-39.021v-8.45h14.793v-41.2h9.434v41.2Zm-30.474,16.387h8.437v9.53h-8.437Zm13.3,0h8.339v9.53h-8.339Z" fill="#666362"/>
            <path id="Path_31" data-name="Path 31" d="M1326.261,1800.5v8.45h-11.219a44.147,44.147,0,0,1-9.974-1.191,48.5,48.5,0,0,1-9.586-3.284,44.412,44.412,0,0,1-9.336,3.284,43.168,43.168,0,0,1-9.835,1.191H1263.8v-8.45h12.218a31.244,31.244,0,0,0,10.431-1.884,48.929,48.929,0,0,1-11.581-12.855q-4.3-7.105-4.516-12.952l-.29-7.548a60.959,60.959,0,0,1,12.452-5.167,45.928,45.928,0,0,1,12.869-1.884,46.94,46.94,0,0,1,12.952,1.884,62.709,62.709,0,0,1,12.661,5.167l-.4,7.548q-.187,5.86-4.515,12.952a48.129,48.129,0,0,1-11.664,12.855,32.092,32.092,0,0,0,10.527,1.884Zm-42.442-17.177a37,37,0,0,0,11.663,11.123,38.83,38.83,0,0,0,11.815-11.164,23.622,23.622,0,0,0,4.267-13.257,48.533,48.533,0,0,0-16.082-3.283,47.476,47.476,0,0,0-15.889,3.283,23.867,23.867,0,0,0,4.226,13.3" fill="#666362"/>
            <path id="Path_32" data-name="Path 32" d="M1396.561,1800.5v8.45h-3.879a7.567,7.567,0,0,1-3.768-1.15,11.437,11.437,0,0,1-3.379-2.923v4.073h-59.274v-8.45h16.082a94.662,94.662,0,0,1-1.384-15.986,91.563,91.563,0,0,1,.885-12.646,101.425,101.425,0,0,1,1.981-10.681,40.117,40.117,0,0,1,7.411-1.98,54.427,54.427,0,0,1,10.167-.9q12.9,0,18.521,6.054t5.611,19.767v12.314a8.838,8.838,0,0,0,2.935,2.923,7.765,7.765,0,0,0,4.212,1.136Zm-45.823-7.092c.29,2.95.608,5.3.941,7.092H1376.1v-16.581q0-9.122-3.823-13.146t-12.162-4.031a38.874,38.874,0,0,0-8.339.9,105.186,105.186,0,0,0-1.495,16.872,86.43,86.43,0,0,0,.457,8.894" fill="#666362"/>
            <path id="Path_33" data-name="Path 33" d="M1456.027,1800.5v8.45H1396.56v-8.45h39.118V1776.08q0-9.537-9.738-9.53-4.363,0-20.543,1.593l-.3-6.663c3.573-.859,7.6-1.593,12.064-2.23a83.225,83.225,0,0,1,11.068-.942q7.854,0,12.316,3.823t4.472,12.951V1800.5Zm-34.145,16.387h9.031v9.738h-9.031Z" fill="#666362"/>
            <path id="Path_34" data-name="Path 34" d="M1477.678,1738.25v70.7h-21.65v-8.45h12.217V1738.25Z" fill="#666362"/>
            <rect id="Rectangle_11" data-name="Rectangle 11" width="9.434" height="70.701" transform="translate(1494.951 1738.25)" fill="#666362"/>
            <path id="Path_35" data-name="Path 35" d="M882.287,1919.658v8.435h-33.66c-6.1,0-10.887-.79-14.407-2.383a14.683,14.683,0,0,1-7.632-7.84q-2.39-5.464-2.4-15.1,0-9.433,2.285-14.933a14.585,14.585,0,0,1,7.453-7.951q5.152-2.431,14.2-2.425,4.363,0,12.01.389c5.1.263,8.81.54,11.123.8v41Zm-47.11-6.858a9.591,9.591,0,0,0,5.014,5.264,23.209,23.209,0,0,0,9.53,1.594h12.2v-33.066q-7.935-.6-12.6-.6a21.767,21.767,0,0,0-9.282,1.635,9.746,9.746,0,0,0-4.917,5.264,26.249,26.249,0,0,0-1.5,9.779q0,6.464,1.552,10.126m4.418-53.22h8.436v9.642h-8.436Zm13.3,0h8.339v9.642h-8.339Z" fill="#666362"/>
            <rect id="Rectangle_12" data-name="Rectangle 12" width="24.823" height="8.436" transform="translate(882.287 1919.658)" fill="#666362"/>
            <path id="Path_36" data-name="Path 36" d="M946.132,1919.658v8.435H907.111v-8.435h14.795v-41.21h9.433v41.21Zm-30.489,16.386h8.436v9.53h-8.436Zm13.312,0h8.339v9.53h-8.339Z" fill="#666362"/>
            <path id="Path_37" data-name="Path 37" d="M1005.6,1919.658v8.436H946.132v-8.436H985.25v-24.422q0-9.537-9.738-9.53-4.363,0-20.542,1.579l-.3-6.648c3.574-.86,7.6-1.608,12.065-2.231a80.887,80.887,0,0,1,11.068-.942q7.854,0,12.314,3.823t4.474,12.952v25.419Z" fill="#666362"/>
            <path id="Path_38" data-name="Path 38" d="M1088.809,1919.658v8.436H1005.6v-8.436h14.1v-41.21h9.336v15.888a96.851,96.851,0,0,1,8.09-9.031,29.757,29.757,0,0,1,8.491-5.667,27.185,27.185,0,0,1,11.22-2.175q12.508,0,17.717,7.688a31.342,31.342,0,0,1,5.222,18.023v16.484Zm-59.772-13.41v13.41h41.4v-14.892q0-8.04-3.879-13.451t-11.22-5.416q-13.589,0-26.305,20.349" fill="#666362"/>
            <path id="Path_39" data-name="Path 39" d="M1110.446,1857.406v70.688h-21.637v-8.436h12.2v-62.252Z" fill="#666362"/>
            <rect id="Rectangle_13" data-name="Rectangle 13" width="9.433" height="70.688" transform="translate(1127.734 1857.406)" fill="#666362"/>
            <path id="Path_40" data-name="Path 40" d="M1230,1919.658v8.435h-33.661q-9.143,0-14.405-2.383a14.686,14.686,0,0,1-7.634-7.84q-2.39-5.464-2.4-15.1,0-9.433,2.286-14.933a14.582,14.582,0,0,1,7.453-7.951q5.151-2.431,14.2-2.425,4.364,0,12.01.389c5.1.263,8.809.54,11.122.8v41Zm-47.112-6.858a9.6,9.6,0,0,0,5.015,5.264,23.207,23.207,0,0,0,9.531,1.594h12.2v-33.066q-7.938-.6-12.6-.6a21.759,21.759,0,0,0-9.281,1.635,9.749,9.749,0,0,0-4.919,5.264,26.229,26.229,0,0,0-1.5,9.779q0,6.464,1.55,10.126m4.419-53.22h8.436v9.642h-8.436Zm13.3,0h8.339v9.642h-8.339Z" fill="#666362"/>
            <path id="Path_41" data-name="Path 41" d="M1269.024,1919.658v8.435H1230v-8.435H1244.8v-41.21h9.433v41.21Zm-30.487,16.386h8.436v9.53h-8.436Zm13.31,0h8.339v9.53h-8.339Z" fill="#666362"/>
            <path id="Path_42" data-name="Path 42" d="M1321.94,1919.658v8.436h-52.915v-8.436H1286.2a27.025,27.025,0,0,1-3.921-7.841,33.355,33.355,0,0,1-1.649-10.721,27.249,27.249,0,0,1,2.785-12.716,19.483,19.483,0,0,1,7.744-8.187,22.324,22.324,0,0,1,11.316-2.84,37.016,37.016,0,0,1,8.339,1.053,32.921,32.921,0,0,1,8.145,2.923l-.387,8.547a31.147,31.147,0,0,0-6.663-2.591,29.693,29.693,0,0,0-8.436-1.385,12.454,12.454,0,0,0-9.724,4.072q-3.68,4.072-3.685,11.609a25.991,25.991,0,0,0,2.092,10.583,21.572,21.572,0,0,0,5.167,7.494Z" fill="#666362"/>
            <path id="Path_43" data-name="Path 43" d="M1383.013,1928.093H1370.6q-.707,11.718-4.821,18.174t-13.561,6.455a138.459,138.459,0,0,1-15.681-1.593v-8.437a101.16,101.16,0,0,0,14.988,1.594,11.054,11.054,0,0,0,5.472-1.191c1.385-.8,2.438-2.369,3.172-4.724a37.055,37.055,0,0,0,1.095-10.278h-13.6q-11.531,0-15.14-7.051-3.636-7.044-3.629-17.468.1-9.827,2.133-15.694a15.238,15.238,0,0,1,6.76-8.588c3.13-1.814,7.425-2.729,12.855-2.729a97.723,97.723,0,0,1,10.471.651c3.935.43,7.162.9,9.683,1.44v41h12.218Zm-42.3-13.049q2.39,4.613,10.028,4.613h10.625V1885.7a60.853,60.853,0,0,0-8.643-.706q-8.043,0-11.165,4.225c-2.092,2.812-3.158,7.494-3.228,14.046a25.572,25.572,0,0,0,2.383,11.774" fill="#666362"/>
            <rect id="Rectangle_14" data-name="Rectangle 14" width="24.823" height="8.436" transform="translate(1383 1919.658)" fill="#666362"/>
            <path id="Path_44" data-name="Path 44" d="M1446.844,1919.658v8.435h-39.021v-8.435h14.793v-41.21h9.434v41.21Zm-30.378-60.078h8.436v9.642h-8.436Zm13.3,0h8.339v9.642h-8.339Z" fill="#666362"/>
            <path id="Path_45" data-name="Path 45" d="M1480.407,1919.657v8.436h-33.563v-8.436h12.216v-62.252h9.434v62.252Z" fill="#666362"/>
            <path id="Path_46" data-name="Path 46" d="M1502.044,1857.406v70.688h-21.637v-8.436h12.2v-62.252Z" fill="#666362"/>
          </g>
        </g>
      </g>
    </g>
  </g>
</svg>
