<svg xmlns="http://www.w3.org/2000/svg" width="19.714" height="19.714" viewBox="0 0 19.714 19.714">
  <path id="ic_thumbs_up_down_24px" d="M9.857,4.928a.824.824,0,0,0-.821-.821H4.781l.542-2.612.016-.189A.954.954,0,0,0,5.068.649L4.419,0,.361,4.058A1.236,1.236,0,0,0,0,4.928v5.339A1.23,1.23,0,0,0,1.232,11.5H6.777a1.239,1.239,0,0,0,1.134-.747L9.767,6.407a1.2,1.2,0,0,0,.09-.452Zm8.625,3.286H12.937a1.239,1.239,0,0,0-1.134.747L9.947,13.307a1.2,1.2,0,0,0-.09.452v1.027a.824.824,0,0,0,.821.821h4.255l-.542,2.612-.016.2a.954.954,0,0,0,.271.657l.649.641,4.058-4.058a1.236,1.236,0,0,0,.361-.871V9.446a1.23,1.23,0,0,0-1.232-1.232Z" fill="#92278f"/>
</svg>
