<svg xmlns="http://www.w3.org/2000/svg" width="50" height="50" viewBox="0 0 50 50">
  <g id="Group_14465" data-name="Group 14465" transform="translate(-309 -747)">
    <circle id="Ellipse_162" data-name="Ellipse 162" cx="25" cy="25" r="25" transform="translate(309 747)" fill="#056839"/>
    <g id="_1161953_instagram_icon" data-name="1161953_instagram_icon" transform="translate(319.6 756.2)">
      <path id="Path_13980" data-name="Path 13980" d="M21.181,16.7a5.781,5.781,0,1,0,5.781,5.781A5.792,5.792,0,0,0,21.181,16.7Zm0,9.484a3.7,3.7,0,1,1,3.7-3.7A3.72,3.72,0,0,1,21.181,26.184Z" transform="translate(-6.581 -6.526)" fill="#fff"/>
      <circle id="Ellipse_163" data-name="Ellipse 163" cx="1.31" cy="1.31" r="1.31" transform="translate(19.297 8.729)" fill="#fff"/>
      <path id="Path_13981" data-name="Path 13981" d="M23.994,6.652A6.432,6.432,0,0,0,19.252,4.8h-9.3A6.187,6.187,0,0,0,3.4,11.348v9.258a6.5,6.5,0,0,0,1.9,4.832,6.591,6.591,0,0,0,4.7,1.761h9.213a6.669,6.669,0,0,0,4.742-1.761A6.465,6.465,0,0,0,25.8,20.652v-9.3A6.474,6.474,0,0,0,23.994,6.652Zm-.181,14a4.413,4.413,0,0,1-1.31,3.3,4.668,4.668,0,0,1-3.3,1.174H9.994a4.668,4.668,0,0,1-3.3-1.174,4.54,4.54,0,0,1-1.219-3.342V11.348A4.5,4.5,0,0,1,6.7,8.052a4.593,4.593,0,0,1,3.3-1.174h9.3a4.5,4.5,0,0,1,3.3,1.219,4.66,4.66,0,0,1,1.219,3.252v9.3Z" fill="#fff"/>
    </g>
  </g>
</svg>
