<svg xmlns="http://www.w3.org/2000/svg" width="33.095" height="46.333" viewBox="0 0 33.095 46.333">
  <path id="ic_touch_app_24px" d="M14.127,21.18V12.929a5.516,5.516,0,1,1,11.032,0V21.18a9.929,9.929,0,1,0-11.032,0ZM35.837,31.4,25.82,26.409a3.107,3.107,0,0,0-1.191-.243H22.952V12.929a3.31,3.31,0,1,0-6.619,0v23.7L8.766,35.036a3.856,3.856,0,0,0-.53-.066,2.468,2.468,0,0,0-1.743.728L4.75,37.463l10.9,10.9a3.321,3.321,0,0,0,2.339.971H32.969a3.214,3.214,0,0,0,3.177-2.824L37.8,34.882A3.171,3.171,0,0,0,35.837,31.4Z" transform="translate(-4.75 -3)" fill="#951b80"/>
</svg>
