<svg xmlns="http://www.w3.org/2000/svg" width="77" height="56.455" viewBox="0 0 77 56.455">
  <g id="Group_10888" data-name="Group 10888" transform="translate(0 0)">
    <g id="Group_10871" data-name="Group 10871">
      <g id="Group_10870" data-name="Group 10870" transform="translate(12.58 10.563)">
        <path id="Path_13648" data-name="Path 13648" d="M-38.22,838.9-57.5,849.1-91,838.9s.223,25.308.744,26.127,30.593,10.346,32.6,9.974,18.162-10.272,18.907-11.016S-38.22,838.9-38.22,838.9Z" transform="translate(90.995 -829.119)" fill="#ffd141"/>
        <path id="Path_13649" data-name="Path 13649" d="M-38.22,800.117s-26.2-9.88-27.616-9.779S-90.622,799.446-91,800.117l33.5,10.2Z" transform="translate(90.995 -790.337)" fill="#ffd141"/>
        <path id="Path_13650" data-name="Path 13650" d="M-38.22,800.117s-26.2-9.88-27.616-9.779S-90.622,799.446-91,800.117l33.5,10.2Z" transform="translate(90.995 -790.337)" fill="#f0a90f" style="mix-blend-mode: multiply;isolation: isolate"/>
      </g>
      <path id="Path_13651" data-name="Path 13651" d="M33.935,748.447s7.816-10.1,9.3-10.542,29.27,6.1,29.931,6.923-11.62,13.4-11.62,13.4S46.366,753.109,33.935,748.447Z" transform="translate(3.804 -737.883)" fill="#f0a90f"/>
      <path id="Path_13652" data-name="Path 13652" d="M-115.723,751.175s-6.587-7.514-12.877-9.872c-.6-.223-24.936,9.473-24.861,9.872s10.793,7.174,12.58,9.779C-140.882,760.954-118.18,752.265-115.723,751.175Z" transform="translate(153.462 -740.611)" fill="#f0a90f"/>
      <path id="Path_13653" data-name="Path 13653" d="M57.379,769.847a38.81,38.81,0,0,1-8.384.21A65.2,65.2,0,0,1,42.25,767.3c.333-1.273,1.824-2.369,1.414-2.745-.557-.512-3.1-3.3-4.272-3.4a6.733,6.733,0,0,1-.7-.114c-2.382,2.829-4.76,5.9-4.76,5.9,8.734,3.276,18.828,6.776,24.059,8.568-.23-2.3-.393-3.95-.393-3.95C57.568,771.018,58.256,769.72,57.379,769.847Z" transform="translate(3.804 -756.379)" fill="#f0a90f" opacity="0.3" style="mix-blend-mode: multiply;isolation: isolate"/>
    </g>
    <g id="Group_10883" data-name="Group 10883" transform="translate(17.429 3.698)">
      <g id="Group_10875" data-name="Group 10875" transform="translate(7.277)">
        <path id="Path_13654" data-name="Path 13654" d="M-19.358,756.248s4.73,1.379,5.9,1.478,3.715,2.885,4.272,3.4-2.4,2.355-1.181,4.165,3.912.21,3.953.751.217,3.871.436,4.66-2.7,5.918-3.205,7.062a13.014,13.014,0,0,1-5.591-2.245s-8.106,4.59-8.671,4.81-2.784-3.622-4.422-6.964-3.188-6.5-2.871-6.884,9.365-4.422,9.365-4.422S-21.277,757.861-19.358,756.248Z" transform="translate(30.781 -756.248)" fill="#84e2d5"/>
        <g id="Group_10872" data-name="Group 10872" transform="translate(2.877 0.257)">
          <path id="Path_13655" data-name="Path 13655" d="M56.65,777.229a4.162,4.162,0,0,0,.533-1.729,5.472,5.472,0,0,1-.12-.69c-.187-.2-.37-.405-.556-.6a38.994,38.994,0,0,1-3.029-3.42c-.033-.043-.065-.088-.1-.131a1.941,1.941,0,0,1-.587-.571,1.68,1.68,0,0,1-.284-.73A21.055,21.055,0,0,1,50.84,765.8a12.015,12.015,0,0,1-.8-3.183,1.272,1.272,0,0,0-.337-.086,11.616,11.616,0,0,1-1.394-.268C49.366,767.932,52.177,773.583,56.65,777.229Z" transform="translate(-35.259 -761.305)" fill="#24a08b"/>
          <path id="Path_13656" data-name="Path 13656" d="M36.658,774.854a22.471,22.471,0,0,0,2.444,1.937c.279-.535.582-1.119.872-1.7-.494-.4-.985-.8-1.464-1.211a25.111,25.111,0,0,1-5.251-6.608,23.159,23.159,0,0,1-2.356-5.448,19.675,19.675,0,0,1-.639-3.906c-.539-.146-1.045-.287-1.449-.4a9.881,9.881,0,0,0-.39,3.037,14.506,14.506,0,0,0,1.373,5.175A27.709,27.709,0,0,0,36.658,774.854Z" transform="translate(-19.372 -757.522)" fill="#24a08b"/>
          <path id="Path_13657" data-name="Path 13657" d="M-6.54,806.143a42.723,42.723,0,0,1-4.663-7.4c-.889-1.739-1.731-3.512-2.475-5.323-.938.428-1.929.885-2.816,1.3q.887,2.159,1.918,4.26a63.774,63.774,0,0,0,5.591,9.377c.954-.531,2-1.116,2.922-1.637C-6.224,806.533-6.384,806.34-6.54,806.143Z" transform="translate(16.494 -786.192)" fill="#24a08b"/>
          <path id="Path_13658" data-name="Path 13658" d="M10.093,782.846c-.022.281-.026.45-.026.45s-.592.265-1.478.664a46.752,46.752,0,0,0,2.824,6.739,40.09,40.09,0,0,0,4.236,6.633l1.016-.574a11.188,11.188,0,0,0,2.031,1.187,39.53,39.53,0,0,1-5.111-7.241A33.918,33.918,0,0,1,10.093,782.846Z" transform="translate(-3.538 -777.746)" fill="#24a08b"/>
        </g>
        <g id="Group_10873" data-name="Group 10873" transform="translate(9.376 2.806)">
          <path id="Path_13659" data-name="Path 13659" d="M22.706,770.186c-2.305.932-4.658,1.788-6.893,2.882a.063.063,0,0,0,.055.113c2.235-1.094,4.587-1.95,6.894-2.881.075-.03.019-.143-.056-.113Z" transform="translate(-15.779 -770.181)" fill="#24a08b"/>
        </g>
        <g id="Group_10874" data-name="Group 10874" transform="translate(15.976 15.164)">
          <path id="Path_13660" data-name="Path 13660" d="M55.579,831.554c-1.174.65-2.356,1.286-3.507,1.977q-.883.53-1.74,1.1a15.212,15.212,0,0,1-1.75.969.063.063,0,0,0,.055.113,15.079,15.079,0,0,0,1.65-.9c.574-.376,1.15-.744,1.736-1.1,1.181-.719,2.4-1.37,3.611-2.04.07-.039.016-.152-.055-.113Z" transform="translate(-48.548 -831.546)" fill="#24a08b"/>
        </g>
        <path id="Path_13661" data-name="Path 13661" d="M-27.869,797.3c1.638,3.342,3.858,7.185,4.422,6.964s8.671-4.81,8.671-4.81A13.013,13.013,0,0,0-9.186,801.7c.5-1.143,3.424-6.272,3.205-7.062s-.4-4.12-.436-4.66-2.73,1.059-3.953-.751a1.926,1.926,0,0,1,.085-2.165,12.4,12.4,0,0,0-2.116-.836c-.827.287-.6,1.021-.834,1.514l-1.517,2.96c-.924-1.173-1.759-2.12-2.128-2.189-.91-.171-4.381-1.65-4.95-1.877s-.285,3.3-2.731,3.641c-1.258.176-1.974-.777-2.481-1.7a35.665,35.665,0,0,0-3.7,1.843C-31.057,790.8-29.507,793.957-27.869,797.3Z" transform="translate(30.781 -780.187)" fill="#1b899a" opacity="0.4" style="mix-blend-mode: multiply;isolation: isolate"/>
      </g>
      <g id="Group_10877" data-name="Group 10877" transform="translate(16.445 6.989)">
        <path id="Path_13662" data-name="Path 13662" d="M40.881,794.134c.877-.127.189,1.171.222,1.714,0,0,1.271,12.79,1.7,17,0,0,.411,1.623-.016,1.889s-13.242.046-13.477-.157.139-2.181.139-2.181l.189-4.788-1.575,4.526s-.375,1.978-.668,2.081-12.3-4.38-12.6-4.784.677-1.763.677-1.763c1.943-3.762,7.8-15.2,7.8-15.2.23-.493.007-1.226.834-1.514.293-.1,6.709,3.037,8.386,3.386A38.787,38.787,0,0,0,40.881,794.134Z" transform="translate(-14.741 -790.955)" fill="#1f9999"/>
        <g id="Group_10876" data-name="Group 10876" transform="translate(0.781 1.371)">
          <path id="Path_13663" data-name="Path 13663" d="M89.293,818.456a2.623,2.623,0,0,0,2.1-2.052c.226-.852.419-1.711.649-2.562s.534-1.679.76-2.531v0a17.358,17.358,0,0,0,2.1.242,18.973,18.973,0,0,0,1.907-.055,9.383,9.383,0,0,0,3.466,4.454c.093.061.206-.059.113-.121a9.211,9.211,0,0,1-3.4-4.345l.3-.021c.8-.053,1.584-.1,2.369-.224.109-.018.094-.181-.017-.162a24.7,24.7,0,0,1-2.738.271.1.1,0,0,0-.084,0c-.488.023-.976.036-1.459.042a14.751,14.751,0,0,1-2.5-.238,6.736,6.736,0,0,1-1.909-.368h0a9.326,9.326,0,0,1,.548-1.655c.045-.1-.114-.169-.158-.074a14.257,14.257,0,0,0-.777,2.607c-.344,1.4-.644,2.811-.937,4.223-.276,1.332-.541,2.666-.8,4-.128.657-.227,1.328-.391,1.977-.026.1.147.133.173.033.158-.628.255-1.277.379-1.912Q89.141,819.221,89.293,818.456Zm1.395-6.531c.077-.321.151-.65.23-.978a5.671,5.671,0,0,0,1.579.313l.136.021c-.387,1.455-.853,2.881-1.216,4.344a4.878,4.878,0,0,1-.693,1.843,2.382,2.382,0,0,1-1.4.811q.217-1.092.441-2.182C90.058,814.7,90.355,813.31,90.688,811.925Z" transform="translate(-74.377 -806.748)" fill="#2eceb7"/>
          <path id="Path_13664" data-name="Path 13664" d="M45.033,802.712c2.445.239,4.381-1.273,5.757-2.942.243.116.487.229.738.333,1.433.591,2.953.957,4.386,1.546.1.042.179-.1.075-.146-1.432-.588-2.948-.966-4.386-1.545-1.46-.589-2.758-1.457-4.141-2.182a.082.082,0,1,0-.075.145c1.095.574,2.136,1.225,3.243,1.771-1.333,1.606-3.2,3.092-5.567,2.861C44.951,802.542,44.92,802.7,45.033,802.712Z" transform="translate(-39.657 -797.765)" fill="#2eceb7"/>
          <path id="Path_13665" data-name="Path 13665" d="M31.126,877.015c-4.211-1.2-8.673-1.951-12.358-4.379-.093-.062-.207.059-.114.12,3.715,2.448,8.2,3.211,12.443,4.417C31.205,877.206,31.235,877.046,31.126,877.015Z" transform="translate(-18.619 -857.545)" fill="#2eceb7"/>
          <path id="Path_13666" data-name="Path 13666" d="M101,897.363c-1.03.146-2.111.115-3.154.158-1.144.047-2.288.1-3.433.14a20.719,20.719,0,0,1-6.306-.346c-.109-.03-.139.129-.03.159a19.306,19.306,0,0,0,6.057.363c1.127-.052,2.256-.091,3.383-.138,1.157-.049,2.358-.011,3.5-.171A.082.082,0,1,0,101,897.363Z" transform="translate(-74.037 -877.264)" fill="#2eceb7"/>
        </g>
        <path id="Path_13667" data-name="Path 13667" d="M105.511,812.643a.664.664,0,1,1-.54-.67A.612.612,0,0,1,105.511,812.643Z" transform="translate(-86.196 -807.729)" fill="#2eceb7"/>
        <path id="Path_13668" data-name="Path 13668" d="M26.218,817.671c-.666-.791-2.853-3.954-4.336-5.664-1.858,3.625-5.066,9.88-6.407,12.478,0,0-.976,1.361-.677,1.764a67.117,67.117,0,0,0,6.739,2.745c-.167-3.133-.383-6.763-.383-6.763A14.723,14.723,0,0,0,26.218,817.671Z" transform="translate(-14.741 -807.767)" fill="#1b899a" opacity="0.4" style="mix-blend-mode: multiply;isolation: isolate"/>
        <path id="Path_13669" data-name="Path 13669" d="M57.234,882.3c.293-.1.668-2.081.668-2.081l1.4-4.016a78.293,78.293,0,0,0-7.2,4.33C54.745,881.517,57.107,882.346,57.234,882.3Z" transform="translate(-44.576 -859.037)" fill="#1b899a" opacity="0.4" style="mix-blend-mode: multiply;isolation: isolate"/>
        <path id="Path_13670" data-name="Path 13670" d="M99.206,846.157c-4.043,1.959-8.138,3.846-12.1,5.965l-.172,4.365s-.375,1.979-.139,2.181,13.051.423,13.477.157.016-1.889.016-1.889C100.06,854.7,99.594,850.034,99.206,846.157Z" transform="translate(-72.224 -835.04)" fill="#1b899a" opacity="0.4" style="mix-blend-mode: multiply;isolation: isolate"/>
      </g>
      <g id="Group_10882" data-name="Group 10882" transform="translate(0 7.389)">
        <path id="Path_13671" data-name="Path 13671" d="M-66.917,801.217s3.755-4.117,4.438-5.255,4.779-2.336,5.576-2.647,1.2,3.614,3.642,3.273,2.162-3.869,2.731-3.641,4.039,1.707,4.95,1.878,4.666,5.69,5.576,6.771a14.722,14.722,0,0,1-5.064,4.56s.626,10.518.569,11.2-5.064,1.024-9.274,1.024-8.193,0-8.421-.512.171-11.712.171-11.712S-66.234,803.969-66.917,801.217Z" transform="translate(66.917 -792.937)" fill="#fff"/>
        <g id="Group_10878" data-name="Group 10878" transform="translate(4.78 4.655)">
          <path id="Path_13672" data-name="Path 13672" d="M-42.677,816.119c-.2,2.805-.5,5.62-.505,8.435a.071.071,0,0,0,.142,0c0-2.815.3-5.63.505-8.435.006-.092-.135-.091-.142,0Z" transform="translate(43.182 -816.05)" fill="#72cace"/>
        </g>
        <g id="Group_10879" data-name="Group 10879" transform="translate(21.175 4.001)">
          <path id="Path_13673" data-name="Path 13673" d="M38.23,812.874c.077,1.516.134,3.033.262,4.546.065.774.148,1.543.248,2.313a17.255,17.255,0,0,1,.113,2.26.071.071,0,0,0,.142,0,17.009,17.009,0,0,0-.1-2.125c-.1-.771-.183-1.538-.254-2.311-.142-1.557-.2-3.121-.274-4.682,0-.091-.147-.092-.142,0Z" transform="translate(-38.229 -812.805)" fill="#72cace"/>
        </g>
        <g id="Group_10880" data-name="Group 10880" transform="translate(15.62 8.426)">
          <path id="Path_13674" data-name="Path 13674" d="M10.649,834.848c.032.762-.028,1.542.057,2.3.029.255.074.508.121.76.016.085.015.279.081.347.23.236.468.464.71.687.2.188.411.369.629.539.1.077.3.28.434.28s.324-.2.42-.269c.2-.155.392-.323.581-.494.265-.239.522-.488.772-.744.056-.057.055-.209.068-.28.048-.246.091-.494.123-.743.1-.785.034-1.593.067-2.384,0-.092-.138-.091-.142,0-.03.711.014,1.43-.041,2.139a9.242,9.242,0,0,1-.194,1.193c.009-.041-.1.092-.135.128-.144.143-.29.284-.438.423a6.533,6.533,0,0,1-1.07.871c-.142.086-.916-.706-1.035-.816q-.331-.306-.647-.628c.037.038,0-.028,0-.06-.016-.076-.03-.152-.045-.228-.051-.267-.094-.535-.125-.8-.082-.728-.017-1.484-.048-2.218,0-.091-.146-.092-.142,0Z" transform="translate(-10.649 -834.779)" fill="#72cace"/>
        </g>
        <path id="Path_13675" data-name="Path 13675" d="M-16.9,798.194a4.211,4.211,0,0,0,3.772-3.059,7.939,7.939,0,0,0,.314-1.744c-.511-.211-.912-.378-1.075-.444-.569-.227-.285,3.3-2.731,3.641s-2.845-3.584-3.642-3.273c-.153.059-.427.152-.775.27C-20.308,795.506-19.3,798.166-16.9,798.194Z" transform="translate(30.278 -792.937)" fill="#72cace"/>
        <g id="Group_10881" data-name="Group 10881" transform="translate(2.356 1.236)">
          <path id="Path_13676" data-name="Path 13676" d="M-36.543,835.783a.832.832,0,0,0-.832.832.832.832,0,0,0,.832.832.831.831,0,0,0,.832-.832A.832.832,0,0,0-36.543,835.783Z" transform="translate(40.969 -828.39)" fill="#72cace"/>
          <path id="Path_13677" data-name="Path 13677" d="M-25.7,862.688a.832.832,0,0,0-.832.832.831.831,0,0,0,.832.831.832.832,0,0,0,.832-.831A.832.832,0,0,0-25.7,862.688Z" transform="translate(32.306 -849.877)" fill="#72cace"/>
          <path id="Path_13678" data-name="Path 13678" d="M-42.283,881.23a.831.831,0,0,0-.832-.832.829.829,0,0,0-.349.078c-.013.488-.027.989-.038,1.489a.825.825,0,0,0,.388.1A.831.831,0,0,0-42.283,881.23Z" transform="translate(45.863 -864.02)" fill="#72cace"/>
          <path id="Path_13679" data-name="Path 13679" d="M-16.262,893.82a.831.831,0,0,0-.832.831.832.832,0,0,0,.832.832.832.832,0,0,0,.832-.832A.831.831,0,0,0-16.262,893.82Z" transform="translate(24.772 -874.739)" fill="#72cace"/>
          <path id="Path_13680" data-name="Path 13680" d="M-42,912.844a.832.832,0,0,0-.832.832c0,.023,0,.046,0,.068a5.071,5.071,0,0,0,1.585.276.829.829,0,0,0,.075-.344A.832.832,0,0,0-42,912.844Z" transform="translate(45.325 -889.932)" fill="#72cace"/>
          <path id="Path_13681" data-name="Path 13681" d="M5.747,874.057a.832.832,0,1,0,.832.832A.832.832,0,0,0,5.747,874.057Z" transform="translate(7.195 -858.956)" fill="#72cace"/>
          <path id="Path_13682" data-name="Path 13682" d="M18.7,897.065a.832.832,0,1,0,.832.832A.832.832,0,0,0,18.7,897.065Z" transform="translate(-3.152 -877.331)" fill="#72cace"/>
          <path id="Path_13683" data-name="Path 13683" d="M43.092,911.648a.83.83,0,0,0,.043.261c.136-.071.214-.147.221-.228s0-.306-.007-.634A.829.829,0,0,0,43.092,911.648Z" transform="translate(-23.294 -888.498)" fill="#72cace"/>
          <path id="Path_13684" data-name="Path 13684" d="M-.124,916.973a.83.83,0,0,0-.745.464c.488,0,.984-.006,1.482-.016A.832.832,0,0,0-.124,916.973Z" transform="translate(11.814 -893.23)" fill="#72cace"/>
          <path id="Path_13685" data-name="Path 13685" d="M37.4,881.508a.831.831,0,1,0,.063,1.151C37.441,882.274,37.42,881.888,37.4,881.508Z" transform="translate(-17.631 -864.728)" fill="#72cace"/>
          <path id="Path_13686" data-name="Path 13686" d="M-54.388,819.046a.832.832,0,0,0-.832.832.832.832,0,0,0,.832.832.832.832,0,0,0,.832-.832A.832.832,0,0,0-54.388,819.046Z" transform="translate(55.22 -815.024)" fill="#72cace"/>
          <path id="Path_13687" data-name="Path 13687" d="M-29.959,808.961a.832.832,0,0,0-.832-.832.832.832,0,0,0-.832.832.832.832,0,0,0,.832.832A.832.832,0,0,0-29.959,808.961Z" transform="translate(36.374 -806.305)" fill="#72cace"/>
          <path id="Path_13688" data-name="Path 13688" d="M-3.4,822.033a.832.832,0,0,0,.832-.832.832.832,0,0,0-.832-.832.832.832,0,0,0-.832.832A.832.832,0,0,0-3.4,822.033Z" transform="translate(14.497 -816.081)" fill="#72cace"/>
          <path id="Path_13689" data-name="Path 13689" d="M30.029,799.635c0-.014,0-.027,0-.041-.389-.123-.9-.311-1.442-.521a.831.831,0,1,0,1.444.562Z" transform="translate(-11.533 -799.073)" fill="#72cace"/>
          <path id="Path_13690" data-name="Path 13690" d="M-8.051,846.255a.832.832,0,0,0-.832.832.832.832,0,0,0,.832.832.831.831,0,0,0,.831-.832A.831.831,0,0,0-8.051,846.255Z" transform="translate(18.215 -836.753)" fill="#72cace"/>
          <path id="Path_13691" data-name="Path 13691" d="M25.069,823.176a.832.832,0,1,0,.832.831A.831.831,0,0,0,25.069,823.176Z" transform="translate(-8.236 -818.322)" fill="#72cace"/>
          <path id="Path_13692" data-name="Path 13692" d="M35.082,852.1a.832.832,0,1,0-.832.831A.832.832,0,0,0,35.082,852.1Z" transform="translate(-15.569 -840.758)" fill="#72cace"/>
          <path id="Path_13693" data-name="Path 13693" d="M56.82,825.012a.831.831,0,1,0,.978,1.327C57.515,825.958,57.181,825.5,56.82,825.012Z" transform="translate(-33.913 -819.788)" fill="#72cace"/>
        </g>
        <path id="Path_13694" data-name="Path 13694" d="M-57.779,829.8a11.915,11.915,0,0,1-2.173.133,4.393,4.393,0,0,1-1.773-.709,6.713,6.713,0,0,0-4.216-.816c-.569.638-.977,1.085-.977,1.085.683,2.751,4.893,4.938,4.893,4.938s-.4,11.2-.171,11.712,4.211.512,8.421.512,9.217-.341,9.274-1.024c.042-.508-.293-6.447-.467-9.464-.956-.523-1.909-1.05-2.836-1.622C-50.862,832.681-53.966,829.622-57.779,829.8Z" transform="translate(66.917 -821.211)" fill="#84e2d5" opacity="0.2"/>
      </g>
    </g>
    <g id="Group_10885" data-name="Group 10885" transform="translate(1.337 20.343)">
      <path id="Path_13695" data-name="Path 13695" d="M-57.5,849.1c-.527.041-10.865-3.193-19.885-6.054L-91,838.9s.223,25.308.744,26.127,30.593,10.346,32.6,9.974,18.162-10.272,18.907-11.016c.541-.54.571-13.519.547-20.589Z" transform="translate(102.238 -838.898)" fill="#ffd141"/>
      <path id="Path_13696" data-name="Path 13696" d="M74.742,849.1,74.593,875c2.01-.372,18.162-10.272,18.907-11.016s.521-25.085.521-25.085Z" transform="translate(-30.003 -838.898)" fill="#f0a90f" opacity="0.5"/>
      <path id="Path_13697" data-name="Path 13697" d="M-38.22,838.9-57.5,849.1-91,838.9s.074,8.4.236,15.678c6.527,2.945,24.27,10.8,26.167,10.077,2.329-.893,7.093-11.761,7.093-11.761s9.528,9.826,10.644,9.9c.73.049,5.372-1.673,8.5-2.871C-38.093,852.811-38.22,838.9-38.22,838.9Z" transform="translate(102.238 -838.898)" fill="#f0a90f" style="mix-blend-mode: multiply;isolation: isolate"/>
      <path id="Path_13698" data-name="Path 13698" d="M75.332,849.1s9.9,12.728,10.719,12.8,12.509-5.843,20.172-15.036c.372-.447-11.612-7.964-11.612-7.964S80.84,845.15,75.332,849.1Z" transform="translate(-30.594 -838.898)" fill="#ffd141"/>
      <path id="Path_13699" data-name="Path 13699" d="M-135.58,838.9s-11.463,8.709-11.24,9.081,35.282,14.219,36.4,13.92,8.337-12.8,8.337-12.8S-125.382,840.387-135.58,838.9Z" transform="translate(146.823 -838.898)" fill="#ffd141"/>
      <g id="Group_10884" data-name="Group 10884" transform="translate(18.22 3.722)">
        <path id="Path_13700" data-name="Path 13700" d="M-43.582,859.041c-1.684-.556-3.428-1.118-5.174-1.661a35.6,35.6,0,0,0-3.331,4.567,60.217,60.217,0,0,0-4.261,8.14c1.77.687,3.539,1.369,5.242,2.019,1.414-2.831,2.744-5.713,4.074-8.563A16.278,16.278,0,0,1-43.582,859.041Z" transform="translate(56.349 -857.38)" fill="#f0a90f" opacity="0.5"/>
      </g>
    </g>
    <g id="Group_10887" data-name="Group 10887" transform="translate(8.732 18.908)">
      <g id="Group_10886" data-name="Group 10886" transform="translate(0 15.899)">
        <path id="Path_13701" data-name="Path 13701" d="M-43.947,929.623c.137-.485.918-.365.781.126a14.141,14.141,0,0,1-1.515,4.047c-.278.427-.887-.079-.611-.5A12.868,12.868,0,0,0-43.947,929.623Z" transform="translate(58.4 -925.57)" fill="#27ad97"/>
        <path id="Path_13702" data-name="Path 13702" d="M-51.411,929.888c.176-.478.895-.148.719.328a9.671,9.671,0,0,1-1.576,3.179c-.334.382-.947-.119-.61-.5A9.1,9.1,0,0,0-51.411,929.888Z" transform="translate(64.481 -925.842)" fill="#27ad97"/>
        <path id="Path_13703" data-name="Path 13703" d="M-59.6,928.1a.4.4,0,0,1,.78.126,6.681,6.681,0,0,1-1.448,3.305c-.339.378-.952-.122-.612-.5A5.872,5.872,0,0,0-59.6,928.1Z" transform="translate(70.874 -924.346)" fill="#27ad97"/>
        <path id="Path_13704" data-name="Path 13704" d="M-66.013,924.8c-.306,1.075-.892,2.057-1.1,3.159-.1.5-.877.376-.78-.126.212-1.11.794-2.08,1.1-3.159C-66.656,924.186-65.875,924.306-66.013,924.8Z" transform="translate(76.402 -921.615)" fill="#27ad97"/>
        <path id="Path_13705" data-name="Path 13705" d="M-73.861,925.006a29.337,29.337,0,0,0-1.261,2.81c-.165.481-.883.149-.718-.328a28.886,28.886,0,0,1,1.261-2.81A.4.4,0,0,1-73.861,925.006Z" transform="translate(82.76 -921.689)" fill="#27ad97"/>
        <path id="Path_13706" data-name="Path 13706" d="M-80.464,919.876a20.018,20.018,0,0,0-1.2,3.2.4.4,0,0,1-.78-.126,21.138,21.138,0,0,1,1.263-3.4C-81.005,919.07-80.287,919.4-80.464,919.876Z" transform="translate(88.022 -917.584)" fill="#27ad97"/>
        <path id="Path_13707" data-name="Path 13707" d="M-88.638,920.245a6.734,6.734,0,0,0-1.228,2.614.4.4,0,0,1-.78-.126,7.683,7.683,0,0,1,1.4-2.992C-88.973,919.315-88.365,919.821-88.638,920.245Z" transform="translate(94.569 -917.796)" fill="#27ad97"/>
        <path id="Path_13708" data-name="Path 13708" d="M-96.648,917.664A13.339,13.339,0,0,0-97.9,920.53c-.137.485-.918.365-.781-.126a14.186,14.186,0,0,1,1.318-3.069C-97.12,916.894-96.4,917.218-96.648,917.664Z" transform="translate(100.997 -915.836)" fill="#27ad97"/>
        <path id="Path_13709" data-name="Path 13709" d="M-102.671,912.722a9.11,9.11,0,0,0-1.3,2.806c-.1.5-.877.375-.78-.126a9.629,9.629,0,0,1,1.361-3.008C-103.133,911.959-102.411,912.282-102.671,912.722Z" transform="translate(105.835 -911.893)" fill="#27ad97"/>
        <path id="Path_13710" data-name="Path 13710" d="M-108.847,910.923c.264-.427.986-.1.718.329a8.016,8.016,0,0,0-1.186,2.77.4.4,0,0,1-.781-.126A8.566,8.566,0,0,1-108.847,910.923Z" transform="translate(110.103 -910.722)" fill="#27ad97"/>
      </g>
      <path id="Path_13711" data-name="Path 13711" d="M-83.551,838.7s-2.084-3.435-4.376-3.913-5.452-.234-5.928-.957-4.3-3.459-6.929-1.129-6.523,15.107-5.943,15.845,3.831,2.609,7.268,3.326,7.816,2.93,8.118.395S-86,838.27-86,838.27-84.235,838.593-83.551,838.7Z" transform="translate(107.452 -831.775)" fill="#80e1d3"/>
      <path id="Path_13712" data-name="Path 13712" d="M-67.909,837.471c-1.548-.411-.892-1.812-.757-2.976a3.854,3.854,0,0,0-.785-2.585c2.387-.6,5.023,1.341,5.412,1.934.26.4,1.335.5,2.621.594a9.671,9.671,0,0,0-1.879,1.139C-64.523,836.51-66.194,837.855-67.909,837.471Z" transform="translate(77.638 -831.793)" fill="#27ad97" opacity="0.4"/>
      <path id="Path_13713" data-name="Path 13713" d="M-34.548,863.053a34.418,34.418,0,0,1,1.889-6.37c.518-1.208,1.377-2.524,2.872-2.121a4.352,4.352,0,0,1,1.383.7,14.053,14.053,0,0,1,1.158,1.576c-.684-.1-2.449-.426-2.449-.426s-5.038,11.459-5.34,13.993a1.231,1.231,0,0,1-1.246,1.163c.115-.8.223-1.6.367-2.381C-35.532,867.146-34.983,865.082-34.548,863.053Z" transform="translate(51.148 -849.914)" fill="#27ad97" opacity="0.4"/>
    </g>
  </g>
</svg>
