<svg id="Layer_2" data-name="Layer 2" xmlns="http://www.w3.org/2000/svg" width="46" height="46" viewBox="0 0 46 46">
  <g id="Icons">
    <g id="Comment">
      <rect id="Rectangle_17341" data-name="Rectangle 17341" width="46" height="46" fill="none"/>
      <path id="Path_13929" data-name="Path 13929" d="M15.2,24h10.25a.767.767,0,1,0,0-1.533H15.2A.767.767,0,0,0,15.2,24Z" transform="translate(-3.367 -5.243)" fill="#83b927"/>
      <path id="Path_13930" data-name="Path 13930" d="M15.2,30.793h10.25a.767.767,0,1,0,0-1.533H15.2a.767.767,0,0,0,0,1.533Z" transform="translate(-3.367 -6.827)" fill="#83b927"/>
      <path id="Path_13931" data-name="Path 13931" d="M44.5,17.788a4.485,4.485,0,0,0-1.05-5.727,3.534,3.534,0,0,0-6.409-2.883l-.529.9a.767.767,0,0,0-.935.322L34.2,12.774H7.58a2.078,2.078,0,0,0-2.07,2.07V35.023a2.078,2.078,0,0,0,2.07,2.07H18.152v3.3a.765.765,0,0,0,1.142.667l7.038-3.964H37.518a2.07,2.07,0,0,0,2.07-2.07V20.172l3.228-5.589a.767.767,0,0,0-.192-.966l.077-.146a2.936,2.936,0,0,1,.475,3.55l-2.384,4.125a2.561,2.561,0,0,0,.935,3.5.767.767,0,0,0,.767-1.326,1.027,1.027,0,0,1-.376-1.4ZM38.086,35.023a.537.537,0,0,1-.537.537H26.156a.767.767,0,0,0-.376.1l-6.095,3.419V36.326a.767.767,0,0,0-.767-.767H7.58a.544.544,0,0,1-.537-.537V14.844a.544.544,0,0,1,.537-.537H33.309L27.176,24.88a.82.82,0,0,0-.084.552L28,29.372H13.115a.767.767,0,1,0,0,1.533H29.077a.943.943,0,0,0,.146,0l4.792-1.464a.767.767,0,0,0,.437-.345l3.634-6.271ZM29.56,29.165,29.016,26.8l2.867,1.656Zm3.948-1.533-4.6-2.653,7.644-13.148,4.6,2.653Zm8.311-15.686-.514.882-3.465-2,.514-.882a2,2,0,1,1,3.466,2Z" transform="translate(-1.286 -1.734)" fill="#83b927"/>
    </g>
  </g>
</svg>
