<svg xmlns="http://www.w3.org/2000/svg" width="26.659" height="33.875" viewBox="0 0 26.659 33.875">
  <g id="Group_14458" data-name="Group 14458" transform="translate(-319.5 -780.969)">
    <path id="ic_notifications_24px" d="M16.829,35.375a3.217,3.217,0,0,0,3.207-3.207H13.622A3.206,3.206,0,0,0,16.829,35.375Zm9.622-11.226V16.131c0-4.923-2.63-9.045-7.216-10.135V4.905a2.405,2.405,0,1,0-4.811,0V6c-4.6,1.09-7.216,5.2-7.216,10.135v8.018L4,27.357v1.6H29.659v-1.6Z" transform="translate(316 778.969)" fill="none" stroke="#83b927" stroke-width="1"/>
    <path id="Path_13977" data-name="Path 13977" d="M343.254,788.734H321.125" transform="translate(0.642 9.172)" fill="none" stroke="#fff" stroke-width="1"/>
    <path id="Path_13978" data-name="Path 13978" d="M341.345,788.734h-20.22" transform="translate(1.595 6.91)" fill="none" stroke="#83b927" stroke-width="1"/>
    <path id="Path_13979" data-name="Path 13979" d="M341.345,788.734h-20.22" transform="translate(1.595 11.434)" fill="none" stroke="#83b927" stroke-width="1"/>
  </g>
</svg>
