<svg xmlns="http://www.w3.org/2000/svg" xmlns:xlink="http://www.w3.org/1999/xlink" width="1200" height="900" viewBox="0 0 1200 900">
  <defs>
    <clipPath id="clip-path">
      <rect width="1200" height="900" fill="none"/>
    </clipPath>
    <clipPath id="clip-path-2">
      <rect id="Rectangle_2" data-name="Rectangle 2" width="1200" height="900"/>
    </clipPath>
  </defs>
  <g id="Repeat_Grid_2" data-name="Repeat Grid 2" clip-path="url(#clip-path)">
    <g id="_02-onboarding_1" data-name="02-onboarding – 1" clip-path="url(#clip-path-2)">
      <rect id="Rectangle_1" data-name="Rectangle 1" width="1200" height="900" fill="#fff"/>
      <g id="Group_10849" data-name="Group 10849" transform="translate(-28.829 -6.546)">
        <path id="Path_13436" data-name="Path 13436" d="M-28.461,17.549V725.864c56.7,22.415,129.024,36.194,220.125,30.092,272.086-18.231,800.435-342.7,1043.9-428.191V17.549Z" transform="translate(28.461 -17.549)" fill="#83b927"/>
      </g>
      <g id="Group_10848" data-name="Group 10848" transform="translate(-128.016 204.635)">
        <g id="Group_10835" data-name="Group 10835" transform="translate(1151.306 94.48)">
          <path id="Path_13365" data-name="Path 13365" d="M600.2,283.517s56.874-58.118,84.733-85.708,66.925-66.538,78.4-66.538,36.768,0,29.872,23.014-20.682,44.256-20.682,60.189S641.544,361.41,641.544,361.41Z" transform="translate(-586.584 -109.756)" fill="#b57753"/>
          <path id="Path_13366" data-name="Path 13366" d="M596.249,318.724s47.84-51.193,98.339-107.5c30.522-33.977,68.263-63.744,111.635-88.05" transform="translate(-596.249 -123.169)" fill="#fff" stroke="#333" stroke-linecap="round" stroke-linejoin="round" stroke-width="1"/>
        </g>
        <path id="Path_13367" data-name="Path 13367" d="M721.553,141.417S445.809,203.381,413.64,205.149s-18.384,40.72,4.6,46.031,434.3-49.571,473.36-60.192,4.6-44.258-32.17-51.339S721.553,141.417,721.553,141.417Z" transform="translate(61.912 -5.953)" fill="#333" stroke="#333" stroke-linecap="round" stroke-linejoin="round" stroke-width="1"/>
        <g id="Group_10836" data-name="Group 10836" transform="translate(662.708 15.538)">
          <path id="Path_13368" data-name="Path 13368" d="M895.969,209.844s37.76-23.278,39.658-49.47S890.3,124,858.186,122.545s-83.094,8.73-160.528-2.912-134.08-39.285-198.3-18.914-52.877,85.844-7.552,93.117,49.1,7.275,145.418,8.732S843.089,228.758,895.969,209.844Z" transform="translate(-454.494 -93.44)" fill="#64a486"/>
          <path id="Path_13369" data-name="Path 13369" d="M895.969,209.844s37.76-23.278,39.658-49.47S890.3,124,858.186,122.545s-83.094,8.73-160.528-2.912-134.08-39.285-198.3-18.914-52.877,85.844-7.552,93.117,49.1,7.275,145.418,8.732S843.089,228.758,895.969,209.844Z" transform="translate(-454.494 -93.44)" fill="none" stroke="#333" stroke-linecap="round" stroke-linejoin="round" stroke-width="1"/>
          <path id="Path_13370" data-name="Path 13370" d="M590.2,126.264a208.356,208.356,0,0,0,35.459-2.986c46.08-8.875,34.56,5.325,9.216,8.875s-74.217,2.493-74.217,2.493" transform="translate(-194.73 -48.798)" fill="none" stroke="#333" stroke-linecap="round" stroke-linejoin="round" stroke-width="1"/>
          <path id="Path_13371" data-name="Path 13371" d="M558.962,122.332c6.451.3,12.73.528,18.8.658" transform="translate(-198.883 -45.611)" fill="none" stroke="#333" stroke-linecap="round" stroke-linejoin="round" stroke-width="1"/>
          <path id="Path_13372" data-name="Path 13372" d="M474.515,127.415c-6.918-3.7-10.083-8.136.662-12.194,24.419-9.228,88.714,12.425,164.752,14.2,41.459.966,87.04,5.367,127.36,7.726" transform="translate(-420.986 -61.157)" fill="none" stroke="#333" stroke-linecap="round" stroke-linejoin="round" stroke-width="1"/>
          <path id="Path_13373" data-name="Path 13373" d="M486.532,123.961q-6.925-1.694-13.574-3.972" transform="translate(-409.317 -49.488)" fill="none" stroke="#333" stroke-linecap="round" stroke-linejoin="round" stroke-width="1"/>
        </g>
        <g id="Group_10838" data-name="Group 10838" transform="translate(413.641 0)">
          <path id="Path_13374" data-name="Path 13374" d="M535.8,174.069s-20.774,27.644-67.987,49.47S350.721,258.458,397.934,270.1,700.1,248.271,768.09,227.9s115.2-58.2,175.635-81.478,88.762-36.374,43.437-36.374-169.971,10.187-179.411,10.187S577.348,163.885,535.8,174.069Z" transform="translate(-382.234 -50.407)" fill="#ffc200" stroke="#333" stroke-linecap="round" stroke-linejoin="round" stroke-width="1"/>
          <path id="Path_13375" data-name="Path 13375" d="M424.047,203.344s51.488,24.333,75.2,24.333c29.693,0,118.768-16.148,172.915-36.332s80.346-24.225,89.078-37.678-6.986-28.26-6.986-28.26l-43.664-4.036" transform="translate(-279.925 -31.664)" fill="#cca433"/>
          <g id="Group_10837" data-name="Group 10837" transform="translate(144.122)">
            <path id="Path_13376" data-name="Path 13376" d="M424.047,150.144V259.268A312.723,312.723,0,0,0,546.805,254.9C611.017,238.9,696,199.611,701.666,196.7s24.55-21.814,24.55-21.814-96.32-87.3-118.979-87.3S467.484,116.679,424.047,150.144Z" transform="translate(-424.047 -87.59)" fill="#ffc200" stroke="#333" stroke-linecap="round" stroke-linejoin="round" stroke-width="1"/>
            <path id="Path_13377" data-name="Path 13377" d="M582.006,94.946a23.986,23.986,0,0,0-3.219-.463c-9.664-2.712-26.221,1.021-53.19,6.957-36.682,8.072-62.88,33.64-54.147,32.3s52.4-25.568,52.4-5.382-24.451,30.95-24.451,30.95c-.192.222-.349.436-.518.651-28.6,13.429-60.614,22.987-60.614,37.025,0,18.84,96.064-14.792,124.013-37.676C585.564,140.237,607.641,100.613,582.006,94.946Z" transform="translate(-389.267 -77.671)" fill="#cca433"/>
            <path id="Path_13378" data-name="Path 13378" d="M590.242,157.17c-56.214,27.91-125.622,37.989-166.2,41.62v29.676A312.721,312.721,0,0,0,546.805,224.1C611.017,208.094,696,168.809,701.666,165.9s24.551-21.823,24.551-21.823-20.023-18.143-43.946-37.88Q638.089,133.591,590.242,157.17Z" transform="translate(-424.047 -56.788)" fill="#947c22" stroke="#333" stroke-linecap="round" stroke-linejoin="round" stroke-width="1"/>
          </g>
        </g>
        <g id="Group_10840" data-name="Group 10840" transform="translate(704.853 90.636)">
          <path id="Path_13379" data-name="Path 13379" d="M908.2,238.121s37.76-23.278,39.658-49.47-45.322-36.374-77.44-37.831-83.094,8.732-160.528-2.907S575.807,108.628,511.59,129s-52.88,85.844-7.555,93.117,49.1,7.275,145.421,8.732S855.321,257.035,908.2,238.121Z" transform="translate(-466.722 -121.721)" fill="#436a79" stroke="#333" stroke-linecap="round" stroke-linejoin="round" stroke-width="1"/>
          <g id="Group_10839" data-name="Group 10839" transform="translate(12.884 0.289)">
            <path id="Path_13380" data-name="Path 13380" d="M665.4,149.483c-8.64-7.342-22.589-12.277-37.274-15.337l-49.568,90.491a204.863,204.863,0,0,0,45.466-4.048Z" transform="translate(-205.957 -101.441)" fill="#898989" stroke="#333" stroke-linecap="round" stroke-linejoin="round" stroke-width="1"/>
            <path id="Path_13381" data-name="Path 13381" d="M561.241,121.83,470.46,209.873c6.027,6.131,14.692,10.407,24.442,12.061l1.827.291,105.194-94.958a297.5,297.5,0,0,0-40.682-5.436Z" transform="translate(-470.46 -121.83)" fill="#898989" stroke="#333" stroke-linecap="round" stroke-linejoin="round" stroke-width="1"/>
            <path id="Path_13382" data-name="Path 13382" d="M624.511,135.4c-12.422-2.137-24.32-4.618-35.84-7.174l-91.414,90.318c10.957.392,24.381.678,42.131.986Z" transform="translate(-404.892 -111.235)" fill="#898989" stroke="#333" stroke-linecap="round" stroke-linejoin="round" stroke-width="1"/>
            <path id="Path_13383" data-name="Path 13383" d="M576.8,217.741l73.9-84.315c-12.845.594-27.177.986-43.072.614l-73.043,79.971C548.708,215.079,562.84,216.385,576.8,217.741Z" transform="translate(-313.553 -102.634)" fill="#898989" stroke="#333" stroke-linecap="round" stroke-linejoin="round" stroke-width="1"/>
          </g>
          <path id="Path_13384" data-name="Path 13384" d="M602.43,154.544a208.105,208.105,0,0,0,35.459-2.988c46.08-8.875,34.56,5.328,9.216,8.875s-74.218,2.493-74.218,2.493" transform="translate(-206.957 -77.084)" fill="none" stroke="#333" stroke-linecap="round" stroke-linejoin="round" stroke-width="1"/>
          <path id="Path_13385" data-name="Path 13385" d="M571.191,150.611c6.448.3,12.73.528,18.8.658" transform="translate(-211.11 -73.893)" fill="none" stroke="#333" stroke-linecap="round" stroke-linejoin="round" stroke-width="1"/>
          <path id="Path_13386" data-name="Path 13386" d="M486.744,155.695c-6.918-3.7-10.083-8.136.659-12.2,24.426-9.228,88.714,12.428,164.752,14.205,41.462.966,87.04,5.365,127.376,7.726" transform="translate(-433.21 -89.44)" fill="none" stroke="#333" stroke-linecap="round" stroke-linejoin="round" stroke-width="1"/>
          <path id="Path_13387" data-name="Path 13387" d="M498.763,152.24q-6.924-1.692-13.571-3.969" transform="translate(-421.53 -77.766)" fill="none" stroke="#333" stroke-linecap="round" stroke-linejoin="round" stroke-width="1"/>
        </g>
        <g id="Group_10841" data-name="Group 10841" transform="translate(32.083 162.715)">
          <path id="Path_13388" data-name="Path 13388" d="M768.091,188.674c-5.664-11.639-22.662-4.366-22.662-4.366H732.21c-26.442-5.818-56.64-29.091-67.987-33.465s-20.774,13.094-58.544,36.374S481.032,265.787,471.6,271.606c-7.539,4.647-139,25.048-191.75,33.095,2.086,5.712,7.277,13.086,19.69,20.041,25.28,14.161,27.574,37.178,18.381,61.962a93.868,93.868,0,0,0-4.755,17.9L505.6,329.808s86.874,7.273,103.872-1.454,62.32-64.018,67.984-72.75,69.875-39.285,77.44-46.558S773.758,200.312,768.091,188.674Z" transform="translate(-251.195 -146.704)" fill="#ffcf97"/>
          <path id="Path_13389" data-name="Path 13389" d="M420.461,208.132l-45-14.035a188.284,188.284,0,0,0,29.584-16.74,102.319,102.319,0,0,0,19.2-21.528,101.975,101.975,0,0,0,36.48,18l22.915,6.232Z" transform="translate(-17.254 -137.335)" fill="#ec9f64"/>
          <path id="Path_13390" data-name="Path 13390" d="M709.679,168.5s-71.61,30.95-92.57,41.716-62.88,52.48-76.854,57.864-80.345,10.766-87.331,9.42-75.1,25.568-85.584,29.6c-9.13,3.518-55.36,42.774-67.13,52.828l155.549-60.461s86.874,7.273,103.872-1.455,62.32-64.018,67.984-72.75,69.875-39.285,77.44-46.558c4.5-4.337,10.32-6.615,13.12-10.2Z" transform="translate(-201.375 -116.359)" fill="#ec9f64"/>
          <path id="Path_13391" data-name="Path 13391" d="M271.535,306.673S475.5,276.118,484.943,270.3s96.32-61.111,134.08-84.389,47.213-40.74,58.544-36.374S719.116,177.18,745.554,183h13.229s17-7.275,22.662,4.366-5.664,13.094-13.219,20.369-71.766,37.831-77.44,46.561S639.8,318.315,622.8,327.045,518.93,328.5,518.93,328.5L309.3,409.979" transform="translate(-271.535 -148.864)" fill="none" stroke="#333" stroke-linecap="round" stroke-linejoin="round" stroke-width="1"/>
          <path id="Path_13392" data-name="Path 13392" d="M383.315,182.062q-4.584,1.838-9.411,3.276" transform="translate(-21.059 -93.907)" fill="#fff" stroke="#333" stroke-linecap="round" stroke-linejoin="round" stroke-width="1"/>
          <path id="Path_13393" data-name="Path 13393" d="M489.386,161.719s-49.754,13.559-54.038,19.326c-2.854,3.846-30.87,17.568-53.712,27.533" transform="translate(-2.142 -127.585)" fill="#fff" stroke="#333" stroke-linecap="round" stroke-linejoin="round" stroke-width="1"/>
          <path id="Path_13394" data-name="Path 13394" d="M456.9,180.93s-10.717-4.953-17.146-8.254-11.786-12.383-11.786-12.383-4.288,16.518-10.717,20.635-20.355,7.431-20.355,7.431l-21.44-1.652c16.074,4.953,45,14.035,45,14.035Z" transform="translate(-17.263 -129.947)" fill="#333" stroke="#333" stroke-linecap="round" stroke-linejoin="round" stroke-width="1"/>
        </g>
        <path id="Path_13395" data-name="Path 13395" d="M394.816,194.463l24.55,398.666,723.315-26.192s-3.779,1.455-3.779-26.19-26.442-376.842-26.442-376.842Z" transform="translate(62.192 38.75)" fill="#ffca73"/>
        <path id="Path_13396" data-name="Path 13396" d="M497.384,323s47.04-4.788,55.04-10.944,37.286-9.575,37.286-9.575l9.766-21.2s-56.819,15.039-76.349,23.939S497.384,323,497.384,323Z" transform="translate(313.154 233.059)" fill="#333" stroke="#333" stroke-linecap="round" stroke-linejoin="round" stroke-width="1"/>
        <path id="Path_13397" data-name="Path 13397" d="M530.793,271.456s-17.507,20.835-32.765,28.672-55.952,13.066-55.952,13.066l25.434,39.2,49.152,56.149-27.126,3.917-76.294-27.43-11.869-94.046Z" transform="translate(78.234 216.801)" fill="#333" stroke="#333" stroke-linecap="round" stroke-linejoin="round" stroke-width="1"/>
        <path id="Path_13398" data-name="Path 13398" d="M645,413.371c11.52-6.474,22.214-14.053,24.419-20,4.6-12.393,29.875-53.109,39.066-67.275,6.848-10.552,40.49-36.832,57.19-49.541q-.586-8.345-1.2-17.011C714.882,289.906,640.041,337,623.468,354.41c-15.773,16.57-53.021,44.172-78.8,62.586Z" transform="translate(428.849 197.074)" fill="#cc8b59"/>
        <path id="Path_13399" data-name="Path 13399" d="M640.333,413.371c11.52-6.474,22.218-14.053,24.426-20,4.6-12.393,29.869-53.109,39.062-67.275,6.851-10.552,40.493-36.832,57.194-49.541q-.586-8.345-1.2-17.011C710.217,289.906,635.376,337,618.8,354.41,603.027,370.979,565.782,398.581,540,417Z" transform="translate(417.434 197.074)" fill="#333" stroke="#333" stroke-linecap="round" stroke-linejoin="round" stroke-width="1"/>
        <path id="Path_13400" data-name="Path 13400" d="M1116.136,249.89l2.441.2c-1.133-15.5-2.24-30.669-3.318-45.084-77.44,4.45-373.51,21.592-502.752,30.782-89.485,6.366-166.57,10.82-215.5,13.37l1.9,30.891,82.618,70.812s39.062,12.391,112.6-1.77S727.4,322.542,798.635,319s250.467,0,250.467,0l71.232-14.163Z" transform="translate(67.56 106.8)" fill="#cc8b59"/>
        <path id="Path_13401" data-name="Path 13401" d="M612.507,235.8c-89.485,6.366-166.57,10.82-215.5,13.37l1.213,19.669a646.957,646.957,0,0,0,76.413,4.137c52.851,0,96.509,1.77,110.3-1.768s45.955-3.543,112.6-8.853,96.509-5.31,119.488-3.54,103.4,37.178,114.88,37.178,64.339-53.109,64.339-53.109l120.96-11.249c-.669-9.075-1.328-18-1.965-26.626C1037.819,209.462,741.748,226.6,612.507,235.8Z" transform="translate(67.557 106.799)" fill="#333" stroke="#333" stroke-linecap="round" stroke-linejoin="round" stroke-width="1"/>
        <path id="Path_13402" data-name="Path 13402" d="M394.816,194.463l24.55,398.666,723.315-26.192s-3.779,1.455-3.779-26.19-26.442-376.842-26.442-376.842Z" transform="translate(62.192 38.75)" fill="none" stroke="#333" stroke-linecap="round" stroke-linejoin="round" stroke-width="1"/>
        <path id="Path_13403" data-name="Path 13403" d="M795.159,160.855s.55,1.7,4.262,3.395,10.586,3.39,23.223,3.39c25.28,0,56.9-8.782,66.64,5.31s-18.384,30.1-27.574,30.1-212.035-2.958-241.28-12.393-147.066-1.77-137.872-12.393,98.806-26.554,130.979-28.324Z" transform="translate(275.631 15.625)" fill="#ff8100" stroke="#333" stroke-linecap="round" stroke-linejoin="round" stroke-width="1"/>
        <path id="Path_13404" data-name="Path 13404" d="M421.621,194.462l-37.76,135.314s219.072,0,356.938-8.732,243.622-16.005,292.726-18.914q43.712-2.546,86.874-8.73l62.32-2.912-43.437-126.581Z" transform="translate(35.387 38.751)" fill="#ffca73" stroke="#333" stroke-linecap="round" stroke-linejoin="round" stroke-width="1"/>
        <path id="Path_13405" data-name="Path 13405" d="M565.4,294.568s35.619-1.662,46.4-3.328,23.744-27.44,31.3-39.912,17.28-83.985,17.28-83.985L560.009,283.757S554.611,295.4,565.4,294.568Z" transform="translate(463.082 44.441)" fill="#333" stroke="#333" stroke-linecap="round" stroke-linejoin="round" stroke-width="1"/>
        <g id="Group_10843" data-name="Group 10843" transform="translate(547.942 193.883)">
          <path id="Path_13406" data-name="Path 13406" d="M639.988,163.567s-77.44,2.912-113.312,7.273-56.582,10.256-56.582,17.529-48.9,146.169-48.9,146.169,33.715,12.356,63.93,16.723c21.44,3.1,54.867.289,72.49-1.6,6.953-.741,12.412-4.963,13.347-10.322l12.371-71,273.84,106.215s18.88-8.732,20.774-17.46c1.555-7.191,75.734-137.927,100.48-180.553a8.81,8.81,0,0,0-.848-10.21c-2.453-3.087-6.726-5.041-11.418-5.223-52.528-1.955-192.742,2.465-226.083,2.465Z" transform="translate(-421.198 -160.601)" fill="#64bbc2"/>
          <path id="Path_13407" data-name="Path 13407" d="M937.148,176.531a8.578,8.578,0,0,0,.422-8.123c-9.446-2.416-21.235-5.123-33.161-7.736-47.36-.459-125.315,1.479-172.586,2.416l-9.52,8.671s14.839,16.518-32.979,21.594-87.4-10.162-85.76,3.814-3.3,80.033-14.842,73.682-1.648-88.928-14.838-76.224-50.25,98.735-56.039,106.711-72.554-85.114-79.149-60.978,41.222,62.25,31.328,85.117a160.117,160.117,0,0,1-16.506,26.749c20.851,1.353,47.68-.937,62.826-2.561,6.952-.743,12.407-4.966,13.341-10.325l12.371-71L714.684,335.29c15.8-8.047,32.986-15.024,52.16-16.16,22.448-1.331,56.189,4.3,84.2,9.977C874.188,286.577,918.982,207.816,937.148,176.531Z" transform="translate(-379.916 -160.602)" fill="#299cab"/>
          <path id="Path_13408" data-name="Path 13408" d="M639.988,163.567s-77.44,2.912-113.312,7.273-56.582,10.256-56.582,17.529-48.9,146.169-48.9,146.169,33.715,12.356,63.93,16.723c21.44,3.1,54.867.289,72.49-1.6,6.953-.741,12.412-4.963,13.347-10.322l12.371-71,273.84,106.215s18.88-8.732,20.774-17.46c1.555-7.191,75.734-137.927,100.48-180.553a8.81,8.81,0,0,0-.848-10.21c-2.453-3.087-6.726-5.041-11.418-5.223-52.528-1.955-192.742,2.465-226.083,2.465Z" transform="translate(-421.198 -160.601)" fill="none" stroke="#333" stroke-linecap="round" stroke-linejoin="round" stroke-width="1"/>
          <path id="Path_13409" data-name="Path 13409" d="M468.237,230.194s20.774-30.553,24.55-46.558" transform="translate(-306.103 -122.47)" fill="none" stroke="#333" stroke-linecap="round" stroke-linejoin="round" stroke-width="1"/>
          <g id="Group_10842" data-name="Group 10842" transform="translate(60.326 26.55)">
            <path id="Path_13410" data-name="Path 13410" d="M438.7,170.6s3.446,25.228,12.064,33.194" transform="translate(-438.7 -170.6)" fill="none" stroke="#333" stroke-linecap="round" stroke-linejoin="round" stroke-width="1"/>
            <path id="Path_13411" data-name="Path 13411" d="M451.794,187.213c2.592,3.057,4.858,5.71,6.56,7.675" transform="translate(-406.661 -143.098)" fill="none" stroke="#333" stroke-linecap="round" stroke-linejoin="round" stroke-width="1"/>
            <path id="Path_13412" data-name="Path 13412" d="M441.7,171.6s14.307,17.149,26.726,31.894" transform="translate(-431.361 -168.945)" fill="none" stroke="#333" stroke-linecap="round" stroke-linejoin="round" stroke-width="1"/>
          </g>
          <path id="Path_13413" data-name="Path 13413" d="M480.821,189.062a32.873,32.873,0,0,0,3.84-7.618" transform="translate(-275.314 -126.099)" fill="none" stroke="#333" stroke-linecap="round" stroke-linejoin="round" stroke-width="1"/>
          <path id="Path_13414" data-name="Path 13414" d="M470.429,213.21A213.418,213.418,0,0,0,499.1,187.743" transform="translate(-300.739 -115.671)" fill="none" stroke="#333" stroke-linecap="round" stroke-linejoin="round" stroke-width="1"/>
        </g>
        <g id="Group_10845" data-name="Group 10845" transform="translate(0 436.923)">
          <path id="Path_13415" data-name="Path 13415" d="M881.165,454.418c7.555,1.455,18.88-1.455,17-13.094s-13.222-13.093-22.662-16.005-134.08-91.665-134.08-91.665,71.766-8.73,83.094-11.639,37.76-13.094,37.76-29.091-43.437,5.818-73.651,5.818S722.525,284.2,709.3,287.1s-105.766,33.457-105.766,33.457q-15.988,1.409-32.105,1.455c-14.81,0-228.976-55.249-283.779-69.447-2.063,8.807,1.262,17.855,9.011,24.523,18.381,15.934,41.36,26.554,0,65.5-26.026,24.508-32.029,41.3-28.33,53.474,69.03,4.558,295.1,19.735,303.1,23.421,9.443,4.366,67.987,27.647,83.1,37.831s45.328,30.566,62.336,33.482,47.213,10.187,56.64,10.187h37.76s24.551,0,30.214-2.909S854.7,486.435,854.7,486.435l18.88,2.909s15.107-4.364,15.107-13.094-45.325-23.28-56.64-30.553-73.632-33.472-73.632-33.472,37.76,11.639,43.437,13.094S873.616,452.963,881.165,454.418Z" transform="translate(-249.719 -251.391)" fill="#ffcf97"/>
          <g id="Group_10844" data-name="Group 10844" transform="translate(78.419 51.334)">
            <path id="Path_13416" data-name="Path 13416" d="M798.348,409.893c5.667-2.912,13.222-11.641,13.222-11.641l18.88,2.909s15.107-4.366,15.107-13.094-45.309-23.28-56.65-30.543c-8.544-5.485-46.064-21.72-64-29.375a135.588,135.588,0,0,1-23.36,14s6.986,14.792,0,22.876-31.443,2.69-54.147-4.036-75.1-39.024-117.024-40.368-108.291-14.792-150.208-14.792c-22.79,0-63.114,3.183-95.19,6.087,93.552,6.351,236.976,16.5,243.315,19.427,9.443,4.366,67.987,27.647,83.1,37.831s45.325,30.553,62.32,33.465,47.213,10.187,56.64,10.187h37.76S792.683,412.8,798.348,409.893Z" transform="translate(-284.978 -214.548)" fill="#ec9f64"/>
            <path id="Path_13417" data-name="Path 13417" d="M537.243,271.456c-5.44,2.5-11.5,5.177-17.987,7.835-26.2,10.766-120.518,21.527-120.518,21.527s36.682,25.568,41.92,30.95,19.2,33.642,13.974,44.409a26.954,26.954,0,0,1-7.053,8.054c11.622,3.557,29.062,8.875,32.768,9.819,5.667,1.455,71.767,27.644,79.322,29.091s18.88-1.455,17-13.094S563.441,396.955,554,394.044s-134.09-91.662-134.09-91.662,71.766-8.73,83.094-11.639C511.809,288.489,529.684,281.818,537.243,271.456Z" transform="translate(-6.631 -271.456)" fill="#ec9f64"/>
          </g>
          <path id="Path_13418" data-name="Path 13418" d="M288.649,252.125s279.5,72.75,296.5,72.75q16.092-.044,32.106-1.455s92.541-30.553,105.757-33.465,49.1,11.639,79.318,11.639,73.654-21.826,73.654-5.821-26.442,26.192-37.76,29.091S755.129,336.5,755.129,336.5s124.643,88.753,134.08,91.664,20.774,4.364,22.662,16.005-9.443,14.546-17,13.094-73.651-27.644-79.318-29.091-43.437-13.1-43.437-13.1,62.32,26.192,73.654,33.465,56.64,21.826,56.64,30.558S887.305,492.2,887.305,492.2l-18.88-2.912s-7.555,8.732-13.222,11.639-30.218,2.912-30.218,2.912h-37.76c-9.44,0-39.658-7.273-56.64-10.184s-47.213-23.28-62.32-33.465-73.654-33.465-83.1-37.831-322.941-24.735-322.941-24.735" transform="translate(-262.227 -252.125)" fill="none" stroke="#333" stroke-linecap="round" stroke-linejoin="round" stroke-width="1"/>
          <path id="Path_13419" data-name="Path 13419" d="M408.514,330.477s37.76,10.184,54.768,17.46,47.213,11.639,47.213,11.639" transform="translate(95.707 -122.413)" fill="none" stroke="#333" stroke-linecap="round" stroke-linejoin="round" stroke-width="1"/>
          <path id="Path_13420" data-name="Path 13420" d="M398.577,335.933c17.837,4.223,42.723,10.411,47.472,13.155,7.552,4.366,45.322,16.005,45.322,16.005" transform="translate(71.394 -113.383)" fill="none" stroke="#333" stroke-linecap="round" stroke-linejoin="round" stroke-width="1"/>
          <path id="Path_13421" data-name="Path 13421" d="M393.172,334.312s2.845.639,7.36,1.674" transform="translate(58.169 -116.064)" fill="none" stroke="#333" stroke-linecap="round" stroke-linejoin="round" stroke-width="1"/>
        </g>
        <g id="Group_10846" data-name="Group 10846" transform="translate(783.85 134.286)">
          <path id="Path_13422" data-name="Path 13422" d="M1107.375,255.5c-22.976-14.161-13.786-70.815-32.169-86.746-16.339-14.159-52.621-1.758-60.48,1.176-59.44,48.6-131.088,108.722-155.047,135.208C816.242,353.151,725.6,415.715,725.6,415.715s-98.205,11.639-109.536,11.639S572.626,439,566.959,449.18s-41.549,37.831-58.544,42.2-30.218,20.369-3.776,26.189,50.992-7.273,64.211-16.005,39.658-11.639,39.658-11.639-43.453,46.553-60.445,62.559-39.658,34.919-35.882,43.652,9.44,14.546,26.438,14.546S574.5,596.132,574.5,596.132s22.662,13.094,37.76,10.184a257.723,257.723,0,0,0,28.329-7.275s18.88,5.821,26.442,5.821,20.774-10.184,20.774-10.184h22.662c15.107,0,47.213-21.826,60.432-32.013s32.1-34.917,37.76-49.47,7.555-29.091,20.774-39.283,54.768-34.919,54.768-34.919l277.616-160.049-.64-1.93C1141,270.476,1118.52,262.362,1107.375,255.5Z" transform="translate(-489.635 -98.527)" fill="#d39870"/>
          <path id="Path_13423" data-name="Path 13423" d="M1150.58,233.312c-20.211-6.538-42.691-14.649-53.837-21.518-7.2-4.438-11.248-13.066-13.968-23.3-41.84,31.064-153.974,113.769-211.222,150.762-71.235,46.028-149.36,69.042-174.64,67.272s-117.19,10.623-133.274,17.7-47.389,37.291-69.651,49.625c26.442,5.821,50.992-7.273,64.211-16.005s39.658-11.639,39.658-11.639-13.213,14.159-27.91,29.543c4.576-.715,8.723-1.381,12.074-1.955a99.107,99.107,0,0,0,32.17-10.621s-27.574,46.028-39.062,61.959,6.893,33.637,20.682,26.554,43.661-8.851,43.661-8.851a60.566,60.566,0,0,0,23.114,16.816,76.265,76.265,0,0,0,14.6-8.688h22.662c15.107,0,47.213-21.826,60.432-32.013s32.1-34.917,37.76-49.47,7.555-29.091,20.774-39.283,54.768-34.919,54.768-34.919L1151.191,235.24Z" transform="translate(-479.003 -54.825)" fill="#b57753"/>
          <path id="Path_13424" data-name="Path 13424" d="M1103.3,138.159s-200.186,158.592-243.622,206.6S725.6,455.337,725.6,455.337s-98.2,11.639-109.536,11.639-43.437,11.641-49.1,21.826-41.549,37.831-58.544,42.2-30.218,20.369-3.776,26.189,50.992-7.273,64.211-16.005S608.5,529.545,608.5,529.545s-43.443,46.563-60.435,62.568-39.664,34.919-35.885,43.657,9.44,14.546,26.438,14.546,35.885-14.546,35.885-14.546,22.662,13.094,37.76,10.184a257.689,257.689,0,0,0,28.33-7.275s18.88,5.821,26.442,5.821,20.774-10.184,20.774-10.184h22.662c15.107,0,47.213-21.826,60.432-32.013s32.1-34.917,37.76-49.47,7.555-29.091,20.774-39.283S884.21,478.63,884.21,478.63l277.619-160.054" transform="translate(-489.641 -138.159)" fill="none" stroke="#333" stroke-linecap="round" stroke-linejoin="round" stroke-width="1"/>
        </g>
        <g id="Group_10847" data-name="Group 10847" transform="translate(880.045 158.293)">
          <path id="Path_13425" data-name="Path 13425" d="M570.149,299.511s9.952,2.446,17.4-10.668,48.934-116.385,48.934-116.385-35.107-11.474-45.741-12.292-18.086-.821-18.086-.821Z" transform="translate(-388.847 -127.091)" fill="#c1b8d5" stroke="#333" stroke-linecap="round" stroke-linejoin="round" stroke-width="1"/>
          <path id="Path_13426" data-name="Path 13426" d="M517.549,152.293v154.45c0,6.324,6.609,11.472,14.82,11.54,42.463.35,161.83,1.334,166.482,1.334,5.667,0,13.219-146.953,9.443-154.228s-67.987-4.366-118.979-10.184S526.992,142.106,517.549,152.293Z" transform="translate(-517.549 -147.199)" fill="#c1b8d5" stroke="#333" stroke-linecap="round" stroke-linejoin="round" stroke-width="1"/>
          <path id="Path_13427" data-name="Path 13427" d="M548.592,152.2s1.13,34.779,1.13,68.69v83.472" transform="translate(-441.594 -138.921)" fill="none" stroke="#333" stroke-linecap="round" stroke-linejoin="round" stroke-width="1"/>
          <line id="Line_1" data-name="Line 1" x1="2.256" y1="140.861" transform="translate(114.899 18.493)" fill="none" stroke="#333" stroke-linecap="round" stroke-linejoin="round" stroke-width="1" stroke-dasharray="5"/>
        </g>
      </g>
    </g>
  </g>
</svg>
