<svg xmlns="http://www.w3.org/2000/svg" width="47.807" height="28.291" viewBox="0 0 47.807 28.291">
  <g id="_7853761_eye_kashifarif_vision_look_visibility_icon" data-name="7853761_eye_kashifarif_vision_look_visibility_icon" transform="translate(0.078 -4.675)">
    <path id="Path_13719" data-name="Path 13719" d="M18.819,32.137A13.319,13.319,0,1,1,32.137,18.819,13.292,13.292,0,0,1,18.819,32.137Z" transform="translate(4.904 0.079)" fill="none" stroke="#83b927" stroke-linecap="round" stroke-linejoin="round" stroke-miterlimit="10" stroke-width="1.5"/>
    <path id="Path_13720" data-name="Path 13720" d="M14.308,18.816a4.508,4.508,0,1,1,4.508-4.508A4.548,4.548,0,0,1,14.308,18.816Z" transform="translate(9.415 4.589)" fill="none" stroke="#83b927" stroke-linecap="round" stroke-linejoin="round" stroke-miterlimit="10" stroke-width="1.5"/>
    <g id="Group_10894" data-name="Group 10894" transform="translate(0.825 5.425)">
      <path id="Path_13721" data-name="Path 13721" d="M46.057,20.946C33.353,35.9,14.3,35.9,1.593,20.946a3.4,3.4,0,0,1,0-4.3c12.7-14.958,31.76-14.958,44.464,0A3.4,3.4,0,0,1,46.057,20.946Z" transform="translate(-0.825 -5.425)" fill="none" stroke="#83b927" stroke-linecap="round" stroke-linejoin="round" stroke-miterlimit="10" stroke-width="1.5"/>
    </g>
  </g>
</svg>
