<svg xmlns="http://www.w3.org/2000/svg" width="29.081" height="27" viewBox="0 0 29.081 27">
  <g id="_9204026_bird_charity_dove_fly_freedom_icon" data-name="9204026_bird_charity_dove_fly_freedom_icon" transform="translate(-6.203 -13.762)">
    <path id="Path_13926" data-name="Path 13926" d="M35.092,33.017c-.1-.113-2.5-2.782-5.615-2.387-2.166.275-4.047,1.948-5.593,4.969a.744.744,0,0,0,.018.714,44.476,44.476,0,0,0-11.345-5.1c.13,2.56,7.306,8.881,4.591,12.881a.579.579,0,0,1-.784.168,0,0,0,0,1,0,0A21.1,21.1,0,0,1,14.127,42.7a.848.848,0,0,0-.721-.123c-.175.035-6.582,1.077-6.582,1.077a.751.751,0,0,0-.609.872c.421,2.389,3.561,7.551,7.428,8.813a.747.747,0,0,0,.726-.148,11.09,11.09,0,0,1,4-2.314c.857-.15,1.66-.275,2.439-.393,4.06-.624,7.265-1.114,9.66-4.608a19.023,19.023,0,0,0,2.893-8.009c.368-2.071.619-3.263,1.49-3.669a.748.748,0,0,0,.418-.528A.771.771,0,0,0,35.092,33.017Z" transform="translate(0 -12.614)" fill="#fff"/>
    <g id="Group_10940" data-name="Group 10940" transform="translate(6.844 16.503)">
      <path id="Path_13927" data-name="Path 13927" d="M12.453,36.42a.751.751,0,0,1-.6-.3,14.792,14.792,0,0,1-2.965-10.8.757.757,0,0,1,.326-.491.748.748,0,0,1,.579-.105A70.848,70.848,0,0,1,16.8,26.778c5.144,1.793,8.923,3.787,11.238,5.926a.751.751,0,1,1-1.019,1.1c-4.4-4.062-13.88-6.692-16.732-7.416a13.86,13.86,0,0,0,2.77,8.828.751.751,0,0,1-.6,1.2Z" transform="translate(-8.762 -24.706)" fill="#fff"/>
    </g>
    <g id="Group_10941" data-name="Group 10941" transform="translate(12.368 13.762)">
      <path id="Path_13928" data-name="Path 13928" d="M41.56,19.975a.741.741,0,0,1-.408-.123A64.168,64.168,0,0,0,32.4,15.5c-.03.115-.063.253-.1.418a.751.751,0,1,1-1.468-.318c.265-1.23.471-1.756,1.037-1.831a.737.737,0,0,1,.381.048,68.914,68.914,0,0,1,9.72,4.781.752.752,0,0,1,.22,1.039A.76.76,0,0,1,41.56,19.975Z" transform="translate(-30.818 -13.762)" fill="#fff"/>
    </g>
  </g>
</svg>
