<svg xmlns="http://www.w3.org/2000/svg" width="22" height="22" viewBox="0 0 22 22">
  <g id="layer1" transform="translate(-0.529 -0.529)">
    <path id="path859" d="M6.213.529A5.862,5.862,0,0,0,.529,6.541a10.538,10.538,0,0,0,1.853,5.753,7.17,7.17,0,0,0,.952,2.788,5.976,5.976,0,0,1,.882,1.947H4.2a.367.367,0,0,0-.368.365v1.1a.367.367,0,0,0-.365.365v3.3a.367.367,0,0,0,.365.368h15.4a.367.367,0,0,0,.365-.368v-3.3a.367.367,0,0,0-.365-.365v-1.1a.367.367,0,0,0-.368-.365h-.325a5.776,5.776,0,0,1,.65-1.337,6.124,6.124,0,0,0,.715-2.3,11.229,11.229,0,0,0,2.627-6.848A5.862,5.862,0,0,0,16.845.529a8.417,8.417,0,0,0-5.316,1.716A8.417,8.417,0,0,0,6.213.529Zm5.314,4.033a.364.364,0,0,1,.368.365V8.6a.367.367,0,1,0,.733,0V6.028a.367.367,0,0,1,.733,0v3.3a.367.367,0,1,0,.733,0V7.5a.366.366,0,1,1,.733,0c0,.866,0,1.7,0,2.6a5.907,5.907,0,0,1-.69,3.05,5.067,5.067,0,0,0-.749,1.684H9.716a5.78,5.78,0,0,0-.969-2.292A6.052,6.052,0,0,1,7.862,9.7c0-.559,0-1.114,0-1.674a.55.55,0,0,1,1.1.023V9.7a.367.367,0,0,0,.2.327,2.361,2.361,0,0,1,1.264,1.871.365.365,0,1,0,.73,0A2.961,2.961,0,0,0,9.7,9.485q0-1.912,0-3.824a.366.366,0,0,1,.731-.011V8.229a.367.367,0,1,0,.733,0c0-1.121,0-2.323,0-3.3A.362.362,0,0,1,11.527,4.562ZM6.762,7.129a.364.364,0,0,1,.368.365v.53c0,.007,0,.014,0,.021V9.7A6.706,6.706,0,0,0,8.1,12.882a5.982,5.982,0,0,1,.883,1.946H8.962a.367.367,0,0,0-.368.369v1.1a.367.367,0,0,0-.365.365v.368H4.95a5.781,5.781,0,0,0-.969-2.293A6.048,6.048,0,0,1,3.1,11.9V10.245a.551.551,0,0,1,1.1,0V11.9a.367.367,0,0,0,.2.327,2.361,2.361,0,0,1,1.264,1.871.365.365,0,1,0,.73,0,2.961,2.961,0,0,0-1.464-2.409V8.228a.366.366,0,0,1,.731-.011V10.8a.367.367,0,0,0,.734,0q0-1.284,0-2.568s0-.009,0-.014V7.494A.362.362,0,0,1,6.762,7.129Zm9.165,0a.364.364,0,0,1,.368.365v3.667a.367.367,0,1,0,.733,0V8.595a.367.367,0,0,1,.733,0v2.934a.364.364,0,0,0,.5.344.345.345,0,0,0,.232-.344V9.7a.366.366,0,1,1,.733,0v2.6a5.91,5.91,0,0,1-.69,3.051,5.068,5.068,0,0,0-.749,1.684H14.828v-.368a.367.367,0,0,0-.365-.365V15.2a.363.363,0,0,0-.328-.361,5.7,5.7,0,0,1,.651-1.346,6.659,6.659,0,0,0,.776-3.4V7.5A.362.362,0,0,1,15.927,7.129Zm-6.6,8.433h4.4V16.3h-4.4Zm-.365,1.467h5.132V21.8H8.963Zm-4.4.734H8.229V18.5H4.561Zm10.267,0H18.5V18.5H14.828ZM4.2,19.229H8.23V21.8H4.2Zm10.632,0h4.033V21.8H14.828Z" transform="translate(0)" fill="#fff"/>
  </g>
</svg>
