<svg id="Group_10939" data-name="Group 10939" xmlns="http://www.w3.org/2000/svg" width="28.466" height="26.279" viewBox="0 0 28.466 26.279">
  <path id="Path_13922" data-name="Path 13922" d="M204.57,223.012l.258,0c.4,0,.864.015,1.367.049l.055,0,.113.008a22.144,22.144,0,0,1,4.07.666c2.251.615,3.482,1.484,3.657,2.584v0l0,.013c0,.031.009.061.012.092a17.023,17.023,0,0,1,4.7-2.352l.027-.007.131-.036.1-.027.054-.014.159-.038c-.872-1.684-4.084-2.916-7.746-2.916C208.639,221.036,205.975,221.81,204.57,223.012Z" transform="translate(-193.809 -210.257)" fill="#fff"/>
  <path id="Path_13923" data-name="Path 13923" d="M51,295.185c-.349-.593-.723-1.194-1.075-1.722a10.108,10.108,0,0,0-1.137-1.489c-.408-.39-.658-.564-.811-.564a.351.351,0,0,0-.16.047,11.044,11.044,0,0,0-2.617,1.9c-.091.191-.033.356.105.712a5.21,5.21,0,0,1,.218.648,13.814,13.814,0,0,1,.175,3.814,10.52,10.52,0,0,0,.205,3.544c.013.037.029.084.172.084a1.694,1.694,0,0,0,.752-.254c.354-.206,1.033-.53,1.819-.9.824-.393,1.757-.838,2.514-1.242,1.167-.624,1.329-.846,1.349-.884a1.683,1.683,0,0,0-.2-1.223A25.605,25.605,0,0,0,51,295.185Zm-1.863,3.549a.688.688,0,1,1,.609-.761A.69.69,0,0,1,49.136,298.734Z" transform="translate(-45.155 -275.88)" fill="#fff"/>
  <path id="Path_13924" data-name="Path 13924" d="M133.728,261.575c-.06-.814-1.25-1.109-2.035-1.109a2.718,2.718,0,0,0-.37.023l-.147.023-.053.009-.117.022-.062.013-.108.024-.081.019-.089.022-.109.029-.061.017-.145.042-.023.007a16.883,16.883,0,0,0-4.823,2.54l-.086.068a1.313,1.313,0,0,1-.291.379,2.939,2.939,0,0,1-1.96.534,18.532,18.532,0,0,1-4.389-.755l-.224-.06a.316.316,0,1,1,.159-.612l.228.061a24.31,24.31,0,0,0,3.019.646c1.75.23,2.457-.027,2.743-.284a.7.7,0,0,0,.226-.44v-.01c0-.031.006-.062.007-.1,0-.006,0-.011,0-.017,0-.034,0-.069,0-.1,0-.01,0-.02,0-.03,0-.035-.007-.072-.013-.109v0c-.239-1.51-3.837-2.45-6.969-2.707-.58-.048-1.143-.072-1.667-.072-.378,0-.717.013-1.01.039h0a4.991,4.991,0,0,0-.514.069,19.233,19.233,0,0,0-4.857,2.281l-.284.166.02.024.06.072.041.05.047.06.049.062.058.076.036.047.076.1.033.045.073.1.031.043.076.107.028.039.089.129.026.038.094.139.015.022.093.138.016.024.1.153.019.03.1.158.012.019.1.162.006.01.106.168.017.027.1.166.014.023q.107.173.212.347l.017.029.1.165.02.034.1.165.012.021.087.148.023.039.087.15.03.051.082.144.03.053.059.1.039.069.066.117.038.069.066.118.042.075.035.065.069.127.028.051q.073.135.14.263l.016.031.076.146.012.023q.065.127.123.244l0,.009.068.14.009.018.026.053a9.8,9.8,0,0,1,3.365-.681,9.5,9.5,0,0,1,3.046.6,10.036,10.036,0,0,0,3.28.625c.216,0,.438-.008.662-.025,1.147-.085,3.779-1.223,6.259-2.7C132.475,263.526,133.77,262.148,133.728,261.575Z" transform="translate(-105.263 -246.259)" fill="#fff"/>
  <path id="Path_13925" data-name="Path 13925" d="M198.445,67.747a2.9,2.9,0,0,0,1.8.555h0a5.4,5.4,0,0,0,1.606-.273L204.4,70.31v1.513a.316.316,0,0,0,.633,0V67.86l2.325-1.937a.308.308,0,0,0,.062.02,6.275,6.275,0,0,0,1.212.128,3.14,3.14,0,0,0,2.307-.829,3.728,3.728,0,0,0,.706-3.505.316.316,0,0,0-.249-.248,6.279,6.279,0,0,0-1.212-.128,3.138,3.138,0,0,0-2.307.829,3.521,3.521,0,0,0-.771,3.12l-2.073,1.727V62.882a.316.316,0,0,0-.633,0v6.58l-2.154-1.926a3.651,3.651,0,0,0-1.18-3.223,2.9,2.9,0,0,0-1.8-.554,5.556,5.556,0,0,0-1.784.331.316.316,0,0,0-.213.28A3.73,3.73,0,0,0,198.445,67.747Zm9.737-2.331.063.005Zm.2.015.059,0Zm2.677-3.361a3.1,3.1,0,0,1-.57,2.723,2.537,2.537,0,0,1-1.861.645h0a2.537,2.537,0,0,0,1.861-.645,3.1,3.1,0,0,0,.57-2.723,5.4,5.4,0,0,0-.879-.077h0A5.406,5.406,0,0,1,211.062,62.07Zm-3.169,1.212-.026.063Zm.411-.624c-.022.023-.044.046-.065.07Q208.271,62.692,208.3,62.657Zm-.1.108q-.036.043-.069.087Q208.171,62.808,208.206,62.765Zm-.1.127-.044.065Zm-.072.109c-.018.029-.035.059-.051.089C208,63.06,208.019,63.03,208.037,63Zm-.077.139c-.012.024-.024.048-.035.072C207.936,63.187,207.947,63.163,207.959,63.14Zm-.284,1.318c0,.01,0,.02,0,.03C207.676,64.477,207.676,64.467,207.676,64.457Zm.171-1.057c-.011.031-.022.062-.032.094C207.825,63.463,207.835,63.431,207.846,63.4Zm-.05.154c-.006.019-.011.039-.016.058C207.786,63.593,207.791,63.574,207.8,63.554Zm-.039.153c0,.02-.009.039-.013.059C207.748,63.746,207.753,63.727,207.757,63.707Zm-.026.126c0,.019-.007.038-.01.057C207.725,63.871,207.728,63.852,207.731,63.833Zm-.025.164c0,.016,0,.032-.006.048C207.7,64.028,207.7,64.012,207.706,64Zm-.018.173,0,.037Zm-.007.114c0,.013,0,.025,0,.038C207.68,64.309,207.68,64.3,207.681,64.284Zm0,.458v.018C207.684,64.754,207.683,64.748,207.683,64.742Zm.005.082.972-.81a.315.315,0,0,1,.231-.072.315.315,0,0,0-.231.072l-.973.811Zm-7.445,2.845h0Zm.921-.11.126-.029-.968-.866a.316.316,0,0,1,.193-.552.316.316,0,0,0-.193.552l.968.866Zm-.78.107.053,0Zm.143-.009.067-.006Zm.143-.014q.158-.018.322-.049Q200.829,67.625,200.671,67.643Zm.352-.054.119-.025Zm.591-.619h0a3.014,3.014,0,0,0-.7-1.945A3.013,3.013,0,0,1,201.614,66.97Zm-.7-1.949q-.051-.053-.106-.1Q200.862,64.968,200.913,65.021Zm-.228-.2c.04.031.079.063.116.1-.037-.033-.076-.065-.116-.1a2.288,2.288,0,0,0-1.416-.426h0A2.288,2.288,0,0,1,200.685,64.817Z" transform="translate(-186.99 -61.36)" fill="#fff"/>
</svg>
