<svg xmlns="http://www.w3.org/2000/svg" width="19.4" height="19.4" viewBox="0 0 19.4 19.4">
  <g id="_1161953_instagram_icon" data-name="1161953_instagram_icon" transform="translate(-3.4 -4.8)">
    <path id="Path_13945" data-name="Path 13945" d="M20.407,16.7a5.007,5.007,0,1,0,5.007,5.007A5.016,5.016,0,0,0,20.407,16.7Zm0,8.214a3.207,3.207,0,1,1,3.207-3.207A3.222,3.222,0,0,1,20.407,24.914Z" transform="translate(-7.306 -7.246)" fill="#a5a5a5"/>
    <circle id="Ellipse_158" data-name="Ellipse 158" cx="1.134" cy="1.134" r="1.134" transform="translate(17.168 8.203)" fill="#a5a5a5"/>
    <path id="Path_13946" data-name="Path 13946" d="M21.236,6.4a5.57,5.57,0,0,0-4.107-1.6H9.071A5.358,5.358,0,0,0,3.4,10.471V18.49a5.628,5.628,0,0,0,1.643,4.185A5.708,5.708,0,0,0,9.111,24.2H17.09A5.775,5.775,0,0,0,21.2,22.675a5.6,5.6,0,0,0,1.6-4.146V10.471A5.607,5.607,0,0,0,21.236,6.4Zm-.156,12.125a3.822,3.822,0,0,1-1.134,2.855A4.043,4.043,0,0,1,17.09,22.4H9.111a4.043,4.043,0,0,1-2.855-1.017A3.932,3.932,0,0,1,5.2,18.49V10.471A3.9,3.9,0,0,1,6.255,7.616,3.977,3.977,0,0,1,9.111,6.6h8.057a3.9,3.9,0,0,1,2.855,1.056,4.036,4.036,0,0,1,1.056,2.816v8.057Z" fill="#a5a5a5"/>
  </g>
</svg>
