<svg xmlns="http://www.w3.org/2000/svg" width="19" height="15.438" viewBox="0 0 19 15.438">
  <path id="_5305170_bird_social_media_social_network_tweet_twitter_icon_1_" data-name="5305170_bird_social media_social network_tweet_twitter_icon (1)" d="M5.975,63.425A11.016,11.016,0,0,0,17.067,52.334c0-.169,0-.337-.011-.5A7.932,7.932,0,0,0,19,49.812a7.782,7.782,0,0,1-2.239.613,3.912,3.912,0,0,0,1.714-2.156A7.813,7.813,0,0,1,16,49.216a3.9,3.9,0,0,0-6.643,3.555A11.072,11.072,0,0,1,1.322,48.7a3.917,3.917,0,0,0,1.207,5.2A3.869,3.869,0,0,1,.76,53.414v.049a3.911,3.911,0,0,0,3.127,3.821,3.893,3.893,0,0,1-1.76.067,3.911,3.911,0,0,0,3.642,2.707A7.824,7.824,0,0,1,.928,61.731,7.93,7.93,0,0,1,0,61.674a11.037,11.037,0,0,0,5.975,1.748" transform="translate(0 -47.987)" fill="#92278f"/>
</svg>
